<?xml version="1.0" encoding="utf-8"?>
<!-- Generator: Adobe Illustrator 16.0.0, SVG Export Plug-In . SVG Version: 6.00 Build 0)  -->
<!DOCTYPE svg PUBLIC "-//W3C//DTD SVG 1.1//EN" "http://www.w3.org/Graphics/SVG/1.1/DTD/svg11.dtd">
<svg version="1.1" id="Layer_1" xmlns="http://www.w3.org/2000/svg" xmlns:xlink="http://www.w3.org/1999/xlink" x="0px" y="0px"
	 width="500px" height="225px" viewBox="13 -279 500 225" enable-background="new 13 -279 500 225" xml:space="preserve">
<g id="XMLID_555_">
	<g id="XMLID_558_">
		<path id="XMLID_559_" fill="#1D1D1B" d="M58.016-142.799c-0.24,0-0.47-0.096-0.64-0.266l-4.325-4.324
			c-0.354-0.354-0.354-0.926,0-1.279c0.353-0.354,0.927-0.354,1.279,0l3.686,3.686l3.686-3.686c0.353-0.354,0.926-0.354,1.279,0
			c0.354,0.354,0.354,0.926,0,1.279l-4.325,4.324C58.485-142.895,58.255-142.799,58.016-142.799z"/>
	</g>
	<g id="XMLID_556_">
		<path id="XMLID_557_" fill="#1D1D1B" d="M58.016-142.799c-0.5,0-0.905-0.405-0.905-0.904v-24.353c0-0.5,0.405-0.905,0.905-0.905
			s0.905,0.405,0.905,0.905v24.353C58.92-143.204,58.515-142.799,58.016-142.799z"/>
	</g>
</g>
<g id="XMLID_527_">
	<g id="XMLID_530_">
		<g id="XMLID_539_">
			<g id="XMLID_548_">
				<g id="XMLID_553_">
					<path id="XMLID_554_" fill="#39546A" d="M90.092-118.452l-1.261-8.233c-0.139-0.899,0.558-1.711,1.468-1.711h6.369
						c0.91,0,1.605,0.812,1.468,1.711l-1.261,8.233H90.092z"/>
				</g>
				<g id="XMLID_551_">
					<path id="XMLID_552_" fill="#FBC248" d="M97.076-119.568h-7.155l-0.433-3.015l0,0c2.634-0.556,5.354-0.558,7.987-0.006
						l0.031,0.006L97.076-119.568z"/>
				</g>
				<g id="XMLID_549_">
					<path id="XMLID_550_" fill="#39546A" d="M114.184-79.891v-19.483c0-11.433-9.268-20.701-20.701-20.701l0,0
						c-11.433,0-20.7,9.269-20.7,20.701v17.353c0,1.178-0.954,2.131-2.132,2.131h-1.015c-1.177,0-2.131,0.955-2.131,2.132l0,0
						c0,1.177,0.954,2.131,2.131,2.131h47.694c1.177,0,2.131-0.954,2.131-2.131l0,0c0-1.177-0.954-2.132-2.131-2.132H114.184
						L114.184-79.891z"/>
				</g>
			</g>
			<g id="XMLID_540_">
				<g id="XMLID_546_">
					<circle id="XMLID_547_" fill="#FBC248" cx="93.482" cy="-99.885" r="7.935"/>
				</g>
				<g id="XMLID_544_">
					<path id="XMLID_545_" fill="#FBC248" d="M93.483-89.402c-5.778,0-10.48-4.703-10.48-10.481c0-5.779,4.702-10.481,10.48-10.481
						c5.779,0,10.481,4.702,10.481,10.481C103.964-94.105,99.262-89.402,93.483-89.402z M93.483-109.009
						c-5.03,0-9.125,4.093-9.125,9.124s4.094,9.124,9.125,9.124c5.032,0,9.124-4.093,9.124-9.124S98.514-109.009,93.483-109.009z"/>
				</g>
				<g id="XMLID_541_">
					<g id="XMLID_542_">
						<path id="XMLID_543_" fill="#F5F5F5" d="M92.941-94.518v-0.951c-0.794-0.125-1.542-0.418-2.246-0.879
							c-0.461-0.303-0.533-0.953-0.184-1.379l0,0c0.309-0.377,0.86-0.469,1.258-0.188c0.418,0.295,0.81,0.497,1.171,0.606v-1.944
							c-0.914-0.233-1.583-0.55-2.009-0.945s-0.639-0.966-0.639-1.709s0.243-1.356,0.729-1.84c0.487-0.481,1.126-0.771,1.918-0.867
							v-0.64h1.384v0.666c0.554,0.077,1.106,0.252,1.657,0.523c0.517,0.256,0.7,0.9,0.372,1.373l0,0
							c-0.265,0.381-0.776,0.517-1.185,0.295c-0.294-0.16-0.576-0.277-0.845-0.354v1.879c0.938,0.243,1.632,0.569,2.08,0.979
							c0.448,0.408,0.673,0.986,0.673,1.734s-0.25,1.366-0.75,1.854c-0.5,0.486-1.167,0.777-2.002,0.873v0.914H92.941L92.941-94.518
							z M92.941-102.8c-0.375,0.13-0.561,0.368-0.561,0.717s0.187,0.613,0.561,0.796V-102.8z M94.989-98.052
							c0-0.183-0.048-0.334-0.144-0.456s-0.27-0.235-0.521-0.34v1.604C94.767-97.382,94.989-97.65,94.989-98.052z"/>
					</g>
				</g>
			</g>
		</g>
		<g id="XMLID_537_">
			<path id="XMLID_538_" fill="#F5F5F5" d="M78.164-93.159c-0.749,0-1.357-0.606-1.357-1.356v-6.055
				c0-8.586,6.986-15.572,15.573-15.572c0.75,0,1.356,0.608,1.356,1.357c0,0.75-0.606,1.357-1.356,1.357
				c-7.09,0-12.858,5.768-12.858,12.856v6.054C79.521-93.768,78.914-93.159,78.164-93.159z"/>
		</g>
		<g id="XMLID_535_">
			<path id="XMLID_536_" fill="#F5F5F5" d="M78.164-85.291c-0.749,0-1.357-0.607-1.357-1.357v-3.434
				c0-0.749,0.608-1.355,1.357-1.355c0.75,0,1.356,0.606,1.356,1.355v3.434C79.521-85.898,78.914-85.291,78.164-85.291z"/>
		</g>
		<g id="XMLID_533_">
			<path id="XMLID_534_" fill="#F5F5F5" d="M99.011-78.594h-1.716c-0.75,0-1.357-0.607-1.357-1.357c0-0.749,0.608-1.357,1.357-1.357
				h1.716c0.75,0,1.357,0.608,1.357,1.357C100.368-79.201,99.76-78.594,99.011-78.594z"/>
		</g>
		<g id="XMLID_531_">
			<path id="XMLID_532_" fill="#F5F5F5" d="M110.891-78.594h-8.22c-0.75,0-1.357-0.607-1.357-1.357c0-0.749,0.608-1.357,1.357-1.357
				h8.22c0.75,0,1.357,0.608,1.357,1.357C112.248-79.201,111.64-78.594,110.891-78.594z"/>
		</g>
	</g>
	<g id="XMLID_528_">
		<path id="XMLID_529_" fill="#1D1D1B" d="M117.345-74.755H69.651c-1.674,0-3.035-1.362-3.035-3.036s1.361-3.035,3.035-3.035h1.016
			c0.676,0,1.226-0.551,1.226-1.227v-17.354c0-10.22,7.093-18.958,16.989-21.104l-0.93-6.07c-0.105-0.689,0.094-1.391,0.549-1.919
			s1.116-0.833,1.813-0.833h6.369c0.698,0,1.359,0.305,1.813,0.833s0.654,1.229,0.549,1.919l-0.905,6.075
			c9.882,2.157,16.964,10.894,16.964,21.1v18.579h2.241c1.674,0,3.036,1.361,3.036,3.035S119.019-74.755,117.345-74.755z
			 M69.651-79.018c-0.676,0-1.226,0.551-1.226,1.227c0,0.677,0.55,1.227,1.226,1.227h47.694c0.676,0,1.226-0.55,1.226-1.227
			c0-0.676-0.55-1.227-1.226-1.227h-3.146c-0.5,0-0.905-0.404-0.905-0.904v-19.483c0-9.622-6.87-17.817-16.334-19.487
			c-0.482-0.086-0.811-0.539-0.738-1.024l1.033-6.933c0.036-0.233-0.068-0.395-0.133-0.471c-0.065-0.074-0.208-0.201-0.44-0.201
			h-6.369c-0.231,0-0.375,0.127-0.439,0.201c-0.065,0.076-0.168,0.236-0.134,0.467l1.062,6.928c0.074,0.486-0.254,0.943-0.739,1.027
			c-9.479,1.659-16.36,9.857-16.36,19.493v17.354c0,1.674-1.362,3.036-3.036,3.036h-1.015V-79.018z"/>
	</g>
</g>
<g id="XMLID_483_">
	<g id="XMLID_518_">
		<g id="XMLID_524_">
			<rect id="XMLID_526_" x="346.801" y="-159.777" fill="#ECECEC" width="64.654" height="84.148"/>
			<path id="XMLID_525_" fill="#1D1D1B" d="M411.455-74.725h-64.654c-0.5,0-0.905-0.404-0.905-0.904v-84.148
				c0-0.5,0.405-0.904,0.905-0.904h64.654c0.499,0,0.904,0.404,0.904,0.904v84.148C412.36-75.129,411.954-74.725,411.455-74.725z
				 M347.704-76.533h62.847v-82.34h-62.847V-76.533z"/>
		</g>
		<g id="XMLID_521_">
			<path id="XMLID_523_" fill="#FBC248" d="M385.95-166.601v-1.462c0-4.038-3.272-7.311-7.311-7.311l0,0
				c-4.037,0-7.312,3.272-7.312,7.311v1.462h-10.233c-4.037,0-7.311,3.272-7.311,7.31v4.063h49.709v-4.063
				c0-4.037-3.271-7.31-7.31-7.31H385.95z"/>
			<path id="XMLID_522_" fill="#1D1D1B" d="M403.494-154.324h-49.709c-0.5,0-0.904-0.404-0.904-0.904v-4.063
				c0-4.529,3.686-8.215,8.215-8.215h9.33v-0.557c0-4.53,3.686-8.216,8.215-8.216c4.53,0,8.215,3.686,8.215,8.216v0.557h9.33
				c4.529,0,8.215,3.686,8.215,8.215v4.063C404.4-154.729,403.994-154.324,403.494-154.324z M354.69-156.135h47.9v-3.156
				c0-3.531-2.874-6.404-6.405-6.404H385.95c-0.5,0-0.904-0.406-0.904-0.905v-1.462c0-3.532-2.873-6.406-6.405-6.406
				s-6.405,2.874-6.405,6.406v1.462c0,0.499-0.405,0.905-0.905,0.905h-10.233c-3.531,0-6.405,2.873-6.405,6.404v3.156H354.69z"/>
		</g>
		<g id="XMLID_519_">
			<circle id="XMLID_520_" fill="#1D1D1B" cx="378.641" cy="-168.496" r="2.491"/>
		</g>
	</g>
	<g id="XMLID_486_">
		<g id="XMLID_507_">
			<g id="XMLID_515_">
				<rect id="XMLID_517_" x="395.119" y="-139.635" fill="#EE7D6D" width="6.281" height="6.281"/>
				<path id="XMLID_516_" fill="#1D1D1B" d="M401.401-132.448h-6.281c-0.5,0-0.904-0.405-0.904-0.905v-6.28
					c0-0.5,0.404-0.904,0.904-0.904h6.281c0.5,0,0.905,0.404,0.905,0.904v6.28C402.307-132.854,401.901-132.448,401.401-132.448z
					 M396.024-134.258h4.472v-4.473h-4.472V-134.258z"/>
			</g>
			<g id="XMLID_508_">
				<g id="XMLID_512_">
					<g id="XMLID_513_">
						<path id="XMLID_514_" fill="#1D1D1B" d="M387.073-138.195h-30.218c-0.5,0-0.905-0.406-0.905-0.906
							c0-0.498,0.405-0.903,0.905-0.903h30.218c0.5,0,0.905,0.405,0.905,0.903C387.979-138.602,387.573-138.195,387.073-138.195z"/>
					</g>
				</g>
				<g id="XMLID_509_">
					<g id="XMLID_510_">
						<path id="XMLID_511_" fill="#1D1D1B" d="M387.073-132.98h-30.218c-0.5,0-0.905-0.405-0.905-0.905
							c0-0.499,0.405-0.904,0.905-0.904h30.218c0.5,0,0.905,0.405,0.905,0.904C387.979-133.387,387.573-132.98,387.073-132.98z"/>
					</g>
				</g>
			</g>
		</g>
		<g id="XMLID_497_">
			<g id="XMLID_505_">
				<path id="XMLID_506_" fill="#1D1D1B" d="M401.978-114.205h-6.282c-0.499,0-0.904-0.404-0.904-0.904v-6.281
					c0-0.5,0.405-0.905,0.904-0.905h6.282c0.499,0,0.904,0.405,0.904,0.905v6.281C402.882-114.609,402.477-114.205,401.978-114.205z
					 M396.601-116.016h4.472v-4.471h-4.472V-116.016z"/>
			</g>
			<g id="XMLID_498_">
				<g id="XMLID_502_">
					<g id="XMLID_503_">
						<path id="XMLID_504_" fill="#1D1D1B" d="M386.497-119.953h-30.219c-0.5,0-0.905-0.404-0.905-0.904s0.405-0.904,0.905-0.904
							h30.219c0.499,0,0.904,0.404,0.904,0.904S386.996-119.953,386.497-119.953z"/>
					</g>
				</g>
				<g id="XMLID_499_">
					<g id="XMLID_500_">
						<path id="XMLID_501_" fill="#1D1D1B" d="M386.497-114.738h-30.219c-0.5,0-0.905-0.404-0.905-0.904s0.405-0.904,0.905-0.904
							h30.219c0.499,0,0.904,0.404,0.904,0.904S386.996-114.738,386.497-114.738z"/>
					</g>
				</g>
			</g>
		</g>
		<g id="XMLID_487_">
			<g id="XMLID_495_">
				<path id="XMLID_496_" fill="#1D1D1B" d="M401.978-95.962h-6.282c-0.499,0-0.904-0.405-0.904-0.905v-6.281
					c0-0.5,0.405-0.903,0.904-0.903h6.282c0.499,0,0.904,0.403,0.904,0.903v6.281C402.882-96.367,402.477-95.962,401.978-95.962z
					 M396.601-97.771h4.472v-4.472h-4.472V-97.771z"/>
			</g>
			<g id="XMLID_488_">
				<g id="XMLID_492_">
					<g id="XMLID_493_">
						<path id="XMLID_494_" fill="#1D1D1B" d="M386.497-101.71h-30.219c-0.5,0-0.905-0.405-0.905-0.905
							c0-0.499,0.405-0.904,0.905-0.904h30.219c0.499,0,0.904,0.405,0.904,0.904C387.402-102.115,386.996-101.71,386.497-101.71z"/>
					</g>
				</g>
				<g id="XMLID_489_">
					<g id="XMLID_490_">
						<path id="XMLID_491_" fill="#1D1D1B" d="M386.497-96.495h-30.219c-0.5,0-0.905-0.405-0.905-0.905s0.405-0.904,0.905-0.904
							h30.219c0.499,0,0.904,0.404,0.904,0.904S386.996-96.495,386.497-96.495z"/>
					</g>
				</g>
			</g>
		</g>
	</g>
	<g id="XMLID_484_">
		<path id="XMLID_485_" fill="#F5F5F5" d="M375.439-158.421h-17.265c-0.749,0-1.356-0.606-1.356-1.356s0.607-1.356,1.356-1.356
			h17.265c0.749,0,1.357,0.606,1.357,1.356C376.797-159.027,376.188-158.421,375.439-158.421z"/>
	</g>
</g>
<path id="XMLID_482_" fill="#12C48B" d="M185.085-85.688h-73.303c-4.119,0-7.458-3.34-7.458-7.457v-73.304
	c0-4.119,3.339-7.458,7.458-7.458h73.303c4.119,0,7.458,3.339,7.458,7.458v73.304C192.542-89.027,189.204-85.688,185.085-85.688z"/>
<path id="XMLID_481_" fill="#1D1D1B" d="M184.852-84.783h-72.837c-4.74,0-8.596-3.855-8.596-8.596v-72.837
	c0-4.739,3.855-8.596,8.596-8.596h72.837c4.739,0,8.596,3.856,8.596,8.596v72.837C193.448-88.641,189.591-84.783,184.852-84.783z
	 M112.015-173.002c-3.742,0-6.786,3.045-6.786,6.786v72.837c0,3.742,3.044,6.786,6.786,6.786h72.837
	c3.742,0,6.786-3.044,6.786-6.786v-72.837c0-3.741-3.044-6.786-6.786-6.786H112.015z"/>
<g id="XMLID_478_">
	<path id="XMLID_480_" fill="#364558" d="M181.115-137.516h-19.22c-1.563,0-2.832-1.27-2.832-2.832l0,0
		c0-1.563,1.269-2.832,2.832-2.832h19.22c1.563,0,2.831,1.269,2.831,2.832l0,0C183.947-138.784,182.679-137.516,181.115-137.516z"/>
	<path id="XMLID_479_" fill="#1D1D1B" d="M181.115-136.611h-19.22c-2.06,0-3.735-1.676-3.735-3.736c0-2.06,1.676-3.735,3.735-3.735
		h19.219c2.062,0,3.737,1.676,3.737,3.735C184.852-138.287,183.176-136.611,181.115-136.611z M161.896-142.273
		c-1.063,0-1.927,0.863-1.927,1.926c0,1.063,0.864,1.928,1.927,1.928h19.219c1.063,0,1.928-0.864,1.928-1.928
		c0-1.063-0.865-1.926-1.928-1.926H161.896z"/>
</g>
<g id="XMLID_475_">
	<path id="XMLID_477_" fill="#364558" d="M181.115-126.966h-19.22c-1.563,0-2.832-1.269-2.832-2.831l0,0
		c0-1.564,1.269-2.832,2.832-2.832h19.22c1.563,0,2.831,1.268,2.831,2.832l0,0C183.947-128.232,182.679-126.966,181.115-126.966z"/>
	<path id="XMLID_476_" fill="#1D1D1B" d="M181.115-126.061h-19.22c-2.06,0-3.735-1.676-3.735-3.736s1.676-3.737,3.735-3.737h19.219
		c2.062,0,3.737,1.677,3.737,3.737S183.176-126.061,181.115-126.061z M161.896-131.725c-1.063,0-1.927,0.865-1.927,1.928
		s0.864,1.927,1.927,1.927h19.219c1.063,0,1.928-0.864,1.928-1.927s-0.865-1.928-1.928-1.928H161.896z"/>
</g>
<g id="XMLID_472_">
	<path id="XMLID_474_" fill="#364558" d="M181.115-116.415h-19.22c-1.563,0-2.832-1.269-2.832-2.832l0,0
		c0-1.563,1.269-2.831,2.832-2.831h19.22c1.563,0,2.831,1.268,2.831,2.831l0,0C183.947-117.684,182.679-116.415,181.115-116.415z"/>
	<path id="XMLID_473_" fill="#1D1D1B" d="M181.115-115.51h-19.22c-2.06,0-3.735-1.678-3.735-3.737s1.676-3.735,3.735-3.735h19.219
		c2.062,0,3.737,1.676,3.737,3.735S183.176-115.51,181.115-115.51z M161.896-121.174c-1.063,0-1.927,0.863-1.927,1.927
		s0.864,1.929,1.927,1.929h19.219c1.063,0,1.928-0.865,1.928-1.929s-0.865-1.927-1.928-1.927H161.896z"/>
</g>
<g id="XMLID_469_">
	<circle id="XMLID_471_" fill="#FBC248" cx="132.374" cy="-113.737" r="16.06"/>
	<path id="XMLID_470_" fill="#1D1D1B" d="M132.374-96.771c-9.354,0-16.964-7.61-16.964-16.965c0-9.355,7.609-16.966,16.964-16.966
		c9.354,0,16.965,7.61,16.965,16.966C149.339-104.382,141.728-96.771,132.374-96.771z M132.374-128.893
		c-8.356,0-15.155,6.799-15.155,15.154c0,8.356,6.798,15.155,15.155,15.155c8.356,0,15.154-6.799,15.154-15.155
		C147.529-122.094,140.73-128.893,132.374-128.893z"/>
</g>
<g id="XMLID_467_">
	<path id="XMLID_468_" fill="#1D1D1B" d="M132.374-104.923c-4.86,0-8.814-3.954-8.814-8.813c0-4.861,3.954-8.814,8.814-8.814
		c4.859,0,8.813,3.953,8.813,8.814C141.188-108.877,137.234-104.923,132.374-104.923z M132.374-120.742
		c-3.862,0-7.005,3.143-7.005,7.006c0,3.861,3.143,7.004,7.005,7.004s7.005-3.143,7.005-7.004
		C139.379-117.6,136.236-120.742,132.374-120.742z"/>
</g>
<g id="XMLID_465_">
	<path id="XMLID_466_" fill="#1D1D1B" d="M104.324-130.283c-0.5,0-0.905-0.404-0.905-0.904s0.405-0.904,0.905-0.904
		c3.242,0,5.881-2.639,5.881-5.881v-17.084c0-3.241-2.639-5.881-5.881-5.881c-0.5,0-0.905-0.404-0.905-0.904
		c0-0.499,0.405-0.904,0.905-0.904c4.24,0,7.69,3.45,7.69,7.689v17.084C112.015-133.732,108.565-130.283,104.324-130.283z"/>
</g>
<g id="XMLID_458_">
	<g id="XMLID_462_">
		<path id="XMLID_464_" fill="#364558" d="M120.837-78.449L120.837-78.449c-2.25,0-4.075-1.824-4.075-4.074v-3.164h8.15v3.164
			C124.913-80.273,123.088-78.449,120.837-78.449z"/>
		<path id="XMLID_463_" fill="#1D1D1B" d="M120.837-77.545c-2.746,0-4.98-2.232-4.98-4.979v-3.164c0-0.5,0.405-0.904,0.905-0.904
			h8.15c0.5,0,0.904,0.404,0.904,0.904v3.164C125.817-79.777,123.583-77.545,120.837-77.545z M117.667-84.783v2.26
			c0,1.748,1.422,3.17,3.17,3.17s3.17-1.422,3.17-3.17v-2.26H117.667z"/>
	</g>
	<g id="XMLID_459_">
		<path id="XMLID_461_" fill="#364558" d="M176.029-78.449L176.029-78.449c-2.25,0-4.074-1.824-4.074-4.074v-3.164h8.149v3.164
			C180.104-80.273,178.28-78.449,176.029-78.449z"/>
		<path id="XMLID_460_" fill="#1D1D1B" d="M176.029-77.545c-2.745,0-4.979-2.232-4.979-4.979v-3.164c0-0.5,0.405-0.904,0.905-0.904
			h8.149c0.5,0,0.905,0.404,0.905,0.904v3.164C181.009-79.777,178.775-77.545,176.029-77.545z M172.859-84.783v2.26
			c0,1.748,1.422,3.17,3.17,3.17s3.171-1.422,3.171-3.17v-2.26H172.859z"/>
	</g>
</g>
<g id="XMLID_456_">
	<path id="XMLID_457_" fill="#F5F5F5" d="M150.005-162.965h-29.28c-0.75,0-1.356-0.607-1.356-1.355c0-0.75,0.607-1.357,1.356-1.357
		h29.28c0.75,0,1.356,0.607,1.356,1.357C151.362-163.572,150.754-162.965,150.005-162.965z"/>
</g>
<g id="XMLID_454_">
	<path id="XMLID_455_" fill="#F5F5F5" d="M141.006-153.326h-17.264c-0.75,0-1.357-0.607-1.357-1.357
		c0-0.748,0.608-1.356,1.357-1.356h17.264c0.75,0,1.356,0.608,1.356,1.356C142.363-153.934,141.755-153.326,141.006-153.326z"/>
</g>
<g id="XMLID_452_">
	<path id="XMLID_453_" fill="#F5F5F5" d="M135.365-89.828h-17.265c-0.75,0-1.356-0.607-1.356-1.357c0-0.748,0.606-1.356,1.356-1.356
		h17.265c0.75,0,1.356,0.608,1.356,1.356C136.722-90.436,136.114-89.828,135.365-89.828z"/>
</g>
<g id="XMLID_349_">
	<g id="XMLID_395_">
		<g id="XMLID_441_">
			<g id="XMLID_450_">
				<rect id="XMLID_451_" x="64.673" y="-86.482" fill="#FBC248" width="11.913" height="2.715"/>
			</g>
			<g id="XMLID_448_">
				<rect id="XMLID_449_" x="67.84" y="-86.482" fill="#F2AD02" width="7.087" height="2.715"/>
			</g>
			<g id="XMLID_446_">
				<path id="XMLID_447_" fill="#F2D496" d="M70.63-83.542c-0.125,0-0.227-0.103-0.227-0.228v-2.713
					c0-0.125,0.102-0.228,0.227-0.228s0.226,0.103,0.226,0.228v2.713C70.856-83.645,70.755-83.542,70.63-83.542z"/>
			</g>
			<g id="XMLID_444_">
				<path id="XMLID_445_" fill="#F2D496" d="M71.384-83.542c-0.125,0-0.226-0.103-0.226-0.228v-2.713
					c0-0.125,0.101-0.228,0.226-0.228s0.227,0.103,0.227,0.228v2.713C71.61-83.645,71.509-83.542,71.384-83.542z"/>
			</g>
			<g id="XMLID_442_">
				<path id="XMLID_443_" fill="#F2D496" d="M72.477-83.542c-0.125,0-0.226-0.103-0.226-0.228v-2.713
					c0-0.125,0.101-0.228,0.226-0.228s0.228,0.103,0.228,0.228v2.713C72.704-83.645,72.603-83.542,72.477-83.542z"/>
			</g>
		</g>
		<g id="XMLID_428_">
			<g id="XMLID_439_">
				<rect id="XMLID_440_" x="65.258" y="-78.34" fill="#FBC248" width="11.913" height="2.715"/>
			</g>
			<g id="XMLID_437_">
				<rect id="XMLID_438_" x="69.819" y="-78.34" fill="#F2AD02" width="5.693" height="2.715"/>
			</g>
			<g id="XMLID_435_">
				<path id="XMLID_436_" fill="#F2D496" d="M71.214-75.398c-0.125,0-0.227-0.102-0.227-0.227v-2.715
					c0-0.125,0.102-0.227,0.227-0.227s0.226,0.102,0.226,0.227v2.715C71.44-75.5,71.339-75.398,71.214-75.398z"/>
			</g>
			<g id="XMLID_433_">
				<path id="XMLID_434_" fill="#F2D496" d="M71.968-75.398c-0.125,0-0.226-0.102-0.226-0.227v-2.715
					c0-0.125,0.101-0.227,0.226-0.227s0.226,0.102,0.226,0.227v2.715C72.194-75.5,72.093-75.398,71.968-75.398z"/>
			</g>
			<g id="XMLID_431_">
				<path id="XMLID_432_" fill="#F2D496" d="M73.062-75.398c-0.125,0-0.226-0.102-0.226-0.227v-2.715
					c0-0.125,0.101-0.227,0.226-0.227s0.227,0.102,0.227,0.227v2.715C73.288-75.5,73.187-75.398,73.062-75.398z"/>
			</g>
			<g id="XMLID_429_">
				<path id="XMLID_430_" fill="#F2D496" d="M74.343-75.398c-0.125,0-0.226-0.102-0.226-0.227v-2.715
					c0-0.125,0.101-0.227,0.226-0.227s0.227,0.102,0.227,0.227v2.715C74.57-75.5,74.468-75.398,74.343-75.398z"/>
			</g>
		</g>
		<g id="XMLID_419_">
			<g id="XMLID_426_">
				<rect id="XMLID_427_" x="65.409" y="-83.77" fill="#FBC248" width="11.912" height="2.715"/>
			</g>
			<g id="XMLID_424_">
				<rect id="XMLID_425_" x="70.121" y="-83.77" fill="#F2AD02" width="5.542" height="2.715"/>
			</g>
			<g id="XMLID_422_">
				<path id="XMLID_423_" fill="#F2D496" d="M72.271-80.828c-0.125,0-0.226-0.102-0.226-0.227v-2.715
					c0-0.125,0.101-0.226,0.226-0.226s0.227,0.101,0.227,0.226v2.715C72.497-80.93,72.396-80.828,72.271-80.828z"/>
			</g>
			<g id="XMLID_420_">
				<path id="XMLID_421_" fill="#F2D496" d="M73.024-80.828c-0.125,0-0.226-0.102-0.226-0.227v-2.715
					c0-0.125,0.101-0.226,0.226-0.226s0.228,0.101,0.228,0.226v2.715C73.251-80.93,73.15-80.828,73.024-80.828z"/>
			</g>
		</g>
		<g id="XMLID_412_">
			<g id="XMLID_417_">
				<rect id="XMLID_418_" x="64.673" y="-81.055" fill="#FBC248" width="11.913" height="2.715"/>
			</g>
			<g id="XMLID_415_">
				<rect id="XMLID_416_" x="69.386" y="-81.055" fill="#F2AD02" width="3.657" height="2.715"/>
			</g>
			<g id="XMLID_413_">
				<path id="XMLID_414_" fill="#F2D496" d="M71.535-78.113c-0.125,0-0.227-0.102-0.227-0.227v-2.715
					c0-0.125,0.102-0.227,0.227-0.227s0.227,0.102,0.227,0.227v2.715C71.762-78.215,71.66-78.113,71.535-78.113z"/>
			</g>
		</g>
		<g id="XMLID_403_">
			<g id="XMLID_410_">
				<rect id="XMLID_411_" x="64.306" y="-89.197" fill="#FBC248" width="11.914" height="2.715"/>
			</g>
			<g id="XMLID_408_">
				<rect id="XMLID_409_" x="65.964" y="-89.197" fill="#F2AD02" width="5.542" height="2.715"/>
			</g>
			<g id="XMLID_406_">
				<path id="XMLID_407_" fill="#F2D496" d="M69.357-86.257c-0.125,0-0.226-0.101-0.226-0.226v-2.716
					c0-0.125,0.101-0.227,0.226-0.227s0.227,0.102,0.227,0.227v2.716C69.583-86.357,69.482-86.257,69.357-86.257z"/>
			</g>
			<g id="XMLID_404_">
				<path id="XMLID_405_" fill="#F2D496" d="M68.603-86.257c-0.125,0-0.227-0.101-0.227-0.226v-2.716
					c0-0.125,0.102-0.227,0.227-0.227s0.227,0.102,0.227,0.227v2.716C68.829-86.357,68.728-86.257,68.603-86.257z"/>
			</g>
		</g>
		<g id="XMLID_396_">
			<g id="XMLID_401_">
				<rect id="XMLID_402_" x="65.409" y="-91.911" fill="#FBC248" width="11.912" height="2.714"/>
			</g>
			<g id="XMLID_399_">
				<rect id="XMLID_400_" x="68.952" y="-91.911" fill="#F2AD02" width="3.656" height="2.714"/>
			</g>
			<g id="XMLID_397_">
				<path id="XMLID_398_" fill="#F2D496" d="M70.46-88.971c-0.125,0-0.228-0.103-0.228-0.228v-2.715
					c0-0.125,0.102-0.226,0.228-0.226c0.125,0,0.226,0.101,0.226,0.226v2.715C70.686-89.072,70.585-88.971,70.46-88.971z"/>
			</g>
		</g>
	</g>
	<g id="XMLID_365_">
		<g id="XMLID_382_">
			<g id="XMLID_393_">
				<rect id="XMLID_394_" x="51.476" y="-83.77" fill="#FBC248" width="11.914" height="2.715"/>
			</g>
			<g id="XMLID_391_">
				<rect id="XMLID_392_" x="53.135" y="-83.77" fill="#F2AD02" width="5.692" height="2.715"/>
			</g>
			<g id="XMLID_389_">
				<path id="XMLID_390_" fill="#F2D496" d="M57.433-80.828c-0.125,0-0.226-0.102-0.226-0.227v-2.715
					c0-0.125,0.101-0.226,0.226-0.226s0.228,0.101,0.228,0.226v2.715C57.659-80.93,57.558-80.828,57.433-80.828z"/>
			</g>
			<g id="XMLID_387_">
				<path id="XMLID_388_" fill="#F2D496" d="M56.679-80.828c-0.125,0-0.226-0.102-0.226-0.227v-2.715
					c0-0.125,0.101-0.226,0.226-0.226s0.227,0.101,0.227,0.226v2.715C56.905-80.93,56.804-80.828,56.679-80.828z"/>
			</g>
			<g id="XMLID_385_">
				<path id="XMLID_386_" fill="#F2D496" d="M55.586-80.828c-0.125,0-0.228-0.102-0.228-0.227v-2.715
					c0-0.125,0.102-0.226,0.228-0.226c0.125,0,0.226,0.101,0.226,0.226v2.715C55.812-80.93,55.711-80.828,55.586-80.828z"/>
			</g>
			<g id="XMLID_383_">
				<path id="XMLID_384_" fill="#F2D496" d="M54.304-80.828c-0.125,0-0.226-0.102-0.226-0.227v-2.715
					c0-0.125,0.101-0.226,0.226-0.226s0.226,0.101,0.226,0.226v2.715C54.53-80.93,54.429-80.828,54.304-80.828z"/>
			</g>
		</g>
		<g id="XMLID_373_">
			<g id="XMLID_380_">
				<rect id="XMLID_381_" x="51.325" y="-78.34" fill="#FBC248" width="11.913" height="2.715"/>
			</g>
			<g id="XMLID_378_">
				<rect id="XMLID_379_" x="52.984" y="-78.34" fill="#F2AD02" width="5.542" height="2.715"/>
			</g>
			<g id="XMLID_376_">
				<path id="XMLID_377_" fill="#F2D496" d="M56.376-75.398c-0.125,0-0.227-0.102-0.227-0.227v-2.715
					c0-0.125,0.102-0.227,0.227-0.227s0.227,0.102,0.227,0.227v2.715C56.603-75.5,56.501-75.398,56.376-75.398z"/>
			</g>
			<g id="XMLID_374_">
				<path id="XMLID_375_" fill="#F2D496" d="M55.623-75.398c-0.125,0-0.227-0.102-0.227-0.227v-2.715
					c0-0.125,0.102-0.227,0.227-0.227s0.227,0.102,0.227,0.227v2.715C55.849-75.5,55.748-75.398,55.623-75.398z"/>
			</g>
		</g>
		<g id="XMLID_366_">
			<g id="XMLID_371_">
				<rect id="XMLID_372_" x="52.061" y="-81.055" fill="#FBC248" width="11.914" height="2.715"/>
			</g>
			<g id="XMLID_369_">
				<rect id="XMLID_370_" x="55.604" y="-81.055" fill="#F2AD02" width="3.657" height="2.715"/>
			</g>
			<g id="XMLID_367_">
				<path id="XMLID_368_" fill="#F2D496" d="M57.112-78.113c-0.125,0-0.226-0.102-0.226-0.227v-2.715
					c0-0.125,0.101-0.227,0.226-0.227s0.227,0.102,0.227,0.227v2.715C57.338-78.215,57.237-78.113,57.112-78.113z"/>
			</g>
		</g>
	</g>
	<g id="XMLID_357_">
		<g id="XMLID_363_">
			<circle id="XMLID_364_" fill="#FBC248" cx="73.244" cy="-97.103" r="5.894"/>
		</g>
		<g id="XMLID_361_">
			<path id="XMLID_362_" fill="#F2D496" d="M73.244-92.307c-2.646,0-4.797-2.152-4.797-4.797s2.151-4.795,4.797-4.795
				c2.644,0,4.796,2.15,4.796,4.795S75.888-92.307,73.244-92.307z M73.244-101.445c-2.396,0-4.345,1.947-4.345,4.344
				c0,2.395,1.949,4.343,4.345,4.343c2.395,0,4.343-1.948,4.343-4.343C77.587-99.498,75.639-101.445,73.244-101.445z"/>
		</g>
		<g id="XMLID_358_">
			<g id="XMLID_359_">
				<path id="XMLID_360_" fill="#F2AD02" d="M72.847-94.236v-0.509c-0.424-0.065-0.823-0.223-1.199-0.47
					c-0.246-0.161-0.285-0.51-0.098-0.736l0,0c0.165-0.199,0.459-0.249,0.672-0.1c0.224,0.156,0.432,0.266,0.625,0.322v-1.037
					c-0.488-0.125-0.845-0.293-1.073-0.506c-0.228-0.211-0.341-0.516-0.341-0.912s0.13-0.725,0.391-0.981
					c0.26-0.258,0.601-0.412,1.023-0.463v-0.342h0.738v0.354c0.296,0.042,0.591,0.135,0.886,0.28
					c0.275,0.136,0.374,0.479,0.198,0.733l0,0c-0.143,0.203-0.415,0.274-0.633,0.156c-0.157-0.086-0.309-0.147-0.451-0.188v1.003
					c0.501,0.13,0.872,0.305,1.11,0.522c0.239,0.219,0.358,0.526,0.358,0.926c0,0.4-0.133,0.729-0.4,0.99
					c-0.267,0.26-0.624,0.414-1.068,0.465v0.488h-0.738V-94.236z M72.847-98.66c-0.2,0.07-0.3,0.197-0.3,0.385
					c0,0.186,0.1,0.326,0.3,0.424V-98.66z M73.941-96.124c0-0.099-0.025-0.179-0.077-0.244c-0.051-0.063-0.144-0.125-0.278-0.181
					v0.855C73.822-95.768,73.941-95.91,73.941-96.124z"/>
			</g>
		</g>
	</g>
	<g id="XMLID_350_">
		<g id="XMLID_355_">
			<path id="XMLID_356_" fill="#1D1D1B" d="M77.171-74.721H65.258c-0.5,0-0.905-0.404-0.905-0.904v-1.868
				c-0.342-0.129-0.584-0.46-0.584-0.847v-2.715c0-0.441,0.316-0.81,0.735-0.889v-0.937c-0.418-0.08-0.735-0.447-0.735-0.89v-1.986
				c-0.223-0.164-0.368-0.43-0.368-0.729v-2.715c0-0.5,0.405-0.904,0.905-0.904h0.198v-1.811c0-0.499,0.405-0.904,0.905-0.904
				h11.913c0.5,0,0.905,0.405,0.905,0.904v2.715c0,0.5-0.405,0.905-0.905,0.905h-0.197v1.081c0.223,0.165,0.367,0.43,0.367,0.729
				v1.825c0.419,0.079,0.734,0.447,0.734,0.89v2.715c0,0.44-0.315,0.81-0.734,0.889v0.979c0.342,0.129,0.584,0.459,0.584,0.847
				v2.715C78.076-75.125,77.67-74.721,77.171-74.721z M66.163-76.53h10.104v-0.963c-0.341-0.129-0.584-0.46-0.584-0.847v-2.715
				c0-0.441,0.317-0.81,0.735-0.889v-0.937c-0.418-0.08-0.735-0.447-0.735-0.89v-1.986c-0.223-0.164-0.368-0.43-0.368-0.729v-2.715
				c0-0.5,0.405-0.904,0.905-0.904h0.198v-0.904H66.313v1.81c0,0.5-0.404,0.905-0.904,0.905H65.21v1.081
				c0.223,0.165,0.368,0.43,0.368,0.729v1.824c0.418,0.079,0.734,0.447,0.734,0.889v2.715c0,0.441-0.315,0.811-0.734,0.89v0.979
				c0.341,0.129,0.584,0.459,0.584,0.846L66.163-76.53L66.163-76.53z"/>
		</g>
		<g id="XMLID_353_">
			<path id="XMLID_354_" fill="#1D1D1B" d="M63.239-74.721H51.325c-0.5,0-0.905-0.404-0.905-0.904v-2.715
				c0-0.441,0.316-0.811,0.734-0.889v-0.979c-0.342-0.13-0.584-0.46-0.584-0.847v-2.715c0-0.5,0.405-0.904,0.905-0.904H63.39
				c0.5,0,0.905,0.404,0.905,0.904v1.867c0.341,0.131,0.584,0.461,0.584,0.848v2.714c0,0.442-0.317,0.81-0.735,0.89v1.825
				C64.144-75.125,63.738-74.721,63.239-74.721z M52.23-76.53h10.104v-1.81c0-0.441,0.315-0.811,0.734-0.889v-0.979
				c-0.342-0.13-0.584-0.46-0.584-0.847v-1.811H52.381v0.963c0.342,0.131,0.584,0.461,0.584,0.848v2.714
				c0,0.442-0.316,0.81-0.735,0.89V-76.53z"/>
		</g>
		<g id="XMLID_351_">
			<path id="XMLID_352_" fill="#1D1D1B" d="M73.641-91.098c-3.749,0-6.799-3.049-6.799-6.799c0-3.748,3.05-6.799,6.799-6.799
				s6.799,3.051,6.799,6.799C80.44-94.146,77.39-91.098,73.641-91.098z M73.641-102.885c-2.751,0-4.989,2.238-4.989,4.988
				c0,2.752,2.238,4.989,4.989,4.989s4.99-2.237,4.99-4.989C78.63-100.646,76.392-102.885,73.641-102.885z"/>
		</g>
	</g>
</g>
<g id="XMLID_295_">
	<g id="XMLID_346_">
		<path id="XMLID_348_" fill="#364558" d="M288.595-75.629H161.699c-6.156,0-9.733-6.962-6.148-11.967l0,0h139.193l0,0
			C298.327-82.591,294.75-75.629,288.595-75.629z"/>
		<path id="XMLID_347_" fill="#1D1D1B" d="M288.595-74.725H161.699c-3.189,0-6.075-1.762-7.532-4.599
			c-1.457-2.836-1.209-6.208,0.647-8.8c0.17-0.236,0.444-0.378,0.735-0.378h139.193c0.291,0,0.564,0.142,0.734,0.378
			c1.856,2.592,2.104,5.964,0.647,8.8C294.668-76.486,291.783-74.725,288.595-74.725z M156.033-86.689
			c-1.247,2-1.351,4.414-0.258,6.541c1.163,2.265,3.377,3.615,5.922,3.615h126.896c2.545,0,4.759-1.352,5.922-3.615
			c1.094-2.127,0.99-4.541-0.257-6.541H156.033z"/>
	</g>
	<g id="XMLID_343_">
		<path id="XMLID_345_" fill="#B1B1B1" d="M279.541-87.596H170.752v-63.614c0-5.685,4.606-10.291,10.291-10.291h88.207
			c5.684,0,10.291,4.606,10.291,10.291V-87.596L279.541-87.596z"/>
		<path id="XMLID_344_" fill="#1D1D1B" d="M279.541-86.689H170.752c-0.5,0-0.905-0.405-0.905-0.905v-63.411
			c0-6.285,5.114-11.399,11.399-11.399h87.8c6.285,0,11.398,5.114,11.398,11.399v63.411
			C280.446-87.096,280.041-86.689,279.541-86.689z M171.657-88.5h106.979v-62.507c0-5.287-4.303-9.591-9.59-9.591h-87.8
			c-5.288,0-9.59,4.304-9.59,9.591V-88.5z"/>
	</g>
	<g id="XMLID_340_">
		<path id="XMLID_342_" fill="#ECECEC" d="M174.824-91.667v-59.293c0-3.573,2.896-6.47,6.47-6.47H269c3.572,0,6.47,2.896,6.47,6.47
			v59.293H174.824z"/>
		<path id="XMLID_341_" fill="#1D1D1B" d="M275.47-90.764H174.824c-0.5,0-0.905-0.404-0.905-0.903v-59.34
			c0-4.04,3.287-7.327,7.328-7.327h87.8c4.04,0,7.327,3.287,7.327,7.327v59.34C276.374-91.168,275.969-90.764,275.47-90.764z
			 M175.729-92.572h98.836v-58.435c0-3.043-2.476-5.519-5.518-5.519h-87.8c-3.042,0-5.519,2.476-5.519,5.519V-92.572L175.729-92.572
			z"/>
	</g>
	<g id="XMLID_333_">
		<g id="XMLID_337_">
			<path id="XMLID_339_" fill="#F14D53" d="M193.603-117.544l2.079-10.381c-0.672-0.134-1.367-0.207-2.079-0.207
				c-5.847,0-10.587,4.739-10.587,10.588c0,5.848,4.74,10.588,10.587,10.588c5.849,0,10.587-4.74,10.587-10.588
				c0-0.712-0.072-1.406-0.207-2.079L193.603-117.544z"/>
			<path id="XMLID_338_" fill="#1D1D1B" d="M193.603-106.052c-6.337,0-11.492-5.155-11.492-11.492s5.155-11.492,11.492-11.492
				c0.75,0,1.509,0.075,2.256,0.226c0.235,0.045,0.443,0.185,0.576,0.385c0.134,0.199,0.183,0.443,0.135,0.68l-1.812,9.049
				l9.049-1.812c0.234-0.048,0.48,0.001,0.68,0.134c0.2,0.133,0.339,0.341,0.386,0.576c0.148,0.746,0.224,1.505,0.224,2.256
				C205.095-111.207,199.94-106.052,193.603-106.052z M193.603-127.227c-5.339,0-9.683,4.344-9.683,9.683s4.343,9.683,9.683,9.683
				s9.684-4.344,9.684-9.683c0-0.334-0.019-0.67-0.054-1.006l-9.452,1.893c-0.296,0.062-0.604-0.032-0.816-0.247
				c-0.214-0.214-0.307-0.521-0.248-0.816l1.893-9.452C194.273-127.209,193.937-127.227,193.603-127.227z"/>
		</g>
		<g id="XMLID_334_">
			<path id="XMLID_336_" fill="#12C48B" d="M207.133-122.771c-0.833-4.18-4.123-7.47-8.302-8.302l-2.079,10.382L207.133-122.771z"/>
			<path id="XMLID_335_" fill="#1D1D1B" d="M196.752-119.788c-0.238,0-0.468-0.094-0.641-0.265
				c-0.214-0.215-0.307-0.521-0.248-0.817l2.079-10.381c0.099-0.49,0.573-0.808,1.064-0.71c4.564,0.909,8.103,4.445,9.013,9.013
				c0.099,0.489-0.22,0.966-0.71,1.063l-10.381,2.078C196.871-119.794,196.811-119.788,196.752-119.788z M199.533-129.969
				l-1.626,8.121l8.121-1.627C205.098-126.604,202.662-129.038,199.533-129.969z"/>
		</g>
	</g>
	<g id="XMLID_328_">
		<g id="XMLID_331_">
			<path id="XMLID_332_" fill="#1D1D1B" d="M202.247-146.37h-17.288c-0.5,0-0.905-0.405-0.905-0.905s0.405-0.904,0.905-0.904h17.288
				c0.5,0,0.904,0.404,0.904,0.904S202.747-146.37,202.247-146.37z"/>
		</g>
		<g id="XMLID_329_">
			<path id="XMLID_330_" fill="#1D1D1B" d="M203.964-138.218h-20.722c-0.5,0-0.905-0.405-0.905-0.905
				c0-0.499,0.405-0.904,0.905-0.904h20.722c0.5,0,0.905,0.405,0.905,0.904C204.869-138.623,204.464-138.218,203.964-138.218z"/>
		</g>
	</g>
	<g id="XMLID_300_">
		<g id="XMLID_326_">
			<path id="XMLID_327_" fill="#1D1D1B" d="M269.936-96.333h-49.283c-0.5,0-0.904-0.405-0.904-0.905v-45.961
				c0-0.499,0.404-0.904,0.904-0.904s0.905,0.405,0.905,0.904v45.057h48.378c0.5,0,0.904,0.404,0.904,0.904
				S270.436-96.333,269.936-96.333z"/>
		</g>
		<g id="XMLID_316_">
			<g id="XMLID_323_">
				<rect id="XMLID_325_" x="226.42" y="-122.404" fill="#F14D53" width="9.087" height="25.166"/>
				<path id="XMLID_324_" fill="#1D1D1B" d="M235.508-96.333h-9.088c-0.5,0-0.905-0.405-0.905-0.905v-25.164
					c0-0.5,0.405-0.906,0.905-0.906h9.088c0.5,0,0.905,0.406,0.905,0.906v25.164C236.413-96.738,236.007-96.333,235.508-96.333z
					 M227.325-98.143h7.277v-23.356h-7.277V-98.143z"/>
			</g>
			<g id="XMLID_320_">
				<rect id="XMLID_322_" x="240.75" y="-115.413" fill="#FBC248" width="9.087" height="18.175"/>
				<path id="XMLID_321_" fill="#1D1D1B" d="M249.838-96.333h-9.087c-0.5,0-0.905-0.405-0.905-0.905v-18.175
					c0-0.5,0.405-0.905,0.905-0.905h9.087c0.5,0,0.905,0.405,0.905,0.905v18.175C250.743-96.738,250.338-96.333,249.838-96.333z
					 M241.655-98.143h7.278v-16.366h-7.278V-98.143z"/>
			</g>
			<g id="XMLID_317_">
				<rect id="XMLID_319_" x="255.081" y="-131.073" fill="#12C48B" width="9.087" height="33.835"/>
				<path id="XMLID_318_" fill="#1D1D1B" d="M264.169-96.333h-9.088c-0.5,0-0.905-0.405-0.905-0.905v-33.835
					c0-0.5,0.405-0.905,0.905-0.905h9.088c0.499,0,0.904,0.405,0.904,0.905v33.835C265.073-96.738,264.668-96.333,264.169-96.333z
					 M255.986-98.143h7.278v-32.026h-7.278V-98.143z"/>
			</g>
		</g>
		<g id="XMLID_314_">
			<path id="XMLID_315_" fill="#1D1D1B" d="M225.327-124.189c-0.315,0-0.62-0.164-0.787-0.457c-0.248-0.435-0.097-0.985,0.338-1.233
				l12.231-6.974c0.399-0.228,0.905-0.119,1.178,0.25l4.489,6.094l16.068-17.305c0.34-0.365,0.913-0.388,1.279-0.047
				c0.366,0.34,0.388,0.912,0.047,1.278l-16.813,18.104c-0.184,0.196-0.443,0.304-0.714,0.287c-0.269-0.016-0.517-0.148-0.677-0.365
				l-4.66-6.325l-11.534,6.573C225.633-124.229,225.479-124.189,225.327-124.189z"/>
		</g>
		<g id="XMLID_312_">
			<path id="XMLID_313_" fill="#1D1D1B" d="M259.508-136.178c-0.5,0-0.905-0.405-0.905-0.905v-5.211h-5.211
				c-0.5,0-0.905-0.405-0.905-0.905c0-0.499,0.405-0.904,0.905-0.904h6.116c0.5,0,0.905,0.405,0.905,0.904v6.116
				C260.413-136.583,260.008-136.178,259.508-136.178z"/>
		</g>
		<g id="XMLID_301_">
			<g id="XMLID_310_">
				<path id="XMLID_311_" fill="#1D1D1B" d="M220.653-102.784h-5.427c-0.5,0-0.905-0.405-0.905-0.905
					c0-0.498,0.405-0.903,0.905-0.903h5.427c0.5,0,0.905,0.405,0.905,0.903C221.558-103.189,221.152-102.784,220.653-102.784z"/>
			</g>
			<g id="XMLID_308_">
				<path id="XMLID_309_" fill="#1D1D1B" d="M220.653-111.568h-5.427c-0.5,0-0.905-0.404-0.905-0.904s0.405-0.904,0.905-0.904h5.427
					c0.5,0,0.905,0.404,0.905,0.904C221.558-111.975,221.152-111.568,220.653-111.568z"/>
			</g>
			<g id="XMLID_306_">
				<path id="XMLID_307_" fill="#1D1D1B" d="M220.653-120.354h-5.427c-0.5,0-0.905-0.404-0.905-0.904
					c0-0.499,0.405-0.904,0.905-0.904h5.427c0.5,0,0.905,0.405,0.905,0.904C221.558-120.758,221.152-120.354,220.653-120.354z"/>
			</g>
			<g id="XMLID_304_">
				<path id="XMLID_305_" fill="#1D1D1B" d="M220.653-129.137h-5.427c-0.5,0-0.905-0.405-0.905-0.905
					c0-0.499,0.405-0.903,0.905-0.903h5.427c0.5,0,0.905,0.404,0.905,0.903C221.558-129.542,221.152-129.137,220.653-129.137z"/>
			</g>
			<g id="XMLID_302_">
				<path id="XMLID_303_" fill="#1D1D1B" d="M220.653-137.921h-5.427c-0.5,0-0.905-0.405-0.905-0.904c0-0.5,0.405-0.905,0.905-0.905
					h5.427c0.5,0,0.905,0.405,0.905,0.905C221.558-138.326,221.152-137.921,220.653-137.921z"/>
			</g>
		</g>
	</g>
	<g id="XMLID_298_">
		<path id="XMLID_299_" fill="#1D1D1B" d="M232.423-83.48H217.87c-0.5,0-0.905-0.405-0.905-0.905s0.405-0.904,0.905-0.904h14.553
			c0.5,0,0.905,0.404,0.905,0.904S232.923-83.48,232.423-83.48z"/>
	</g>
	<g id="XMLID_296_">
		<path id="XMLID_297_" fill="#F5F5F5" d="M284.287-78.594H244.05c-0.75,0-1.357-0.607-1.357-1.357c0-0.749,0.608-1.357,1.357-1.357
			h40.237c0.749,0,1.356,0.608,1.356,1.357C285.645-79.201,285.036-78.594,284.287-78.594z"/>
	</g>
</g>
<g id="XMLID_278_">
	<g id="XMLID_292_">
		<path id="XMLID_294_" fill="#B1B1B1" d="M252.673-190.769c0-4.079,3.306-7.385,7.385-7.385h13.868v36.652h-21.252L252.673-190.769
			L252.673-190.769z"/>
		<path id="XMLID_293_" fill="#1D1D1B" d="M273.926-160.598h-21.252c-0.5,0-0.905-0.403-0.905-0.903v-29.268
			c0-4.571,3.719-8.29,8.29-8.29h13.868c0.5,0,0.904,0.405,0.904,0.905v36.652C274.83-161.001,274.426-160.598,273.926-160.598z
			 M253.578-162.406h19.441v-34.843h-12.962c-3.573,0-6.479,2.907-6.479,6.48V-162.406L253.578-162.406z"/>
	</g>
	<g id="XMLID_289_">
		<path id="XMLID_291_" fill="#ECECEC" d="M274.253-113.574c-4.078,0-7.384-3.307-7.384-7.385l0.123-69.81
			c0-4.079-3.308-7.385-7.386-7.385h45.999c4.078,0,7.386,3.306,7.386,7.385v77.194L274.253-113.574L274.253-113.574z"/>
		<path id="XMLID_290_" fill="#1D1D1B" d="M312.991-112.67h-38.738c-4.57,0-8.289-3.719-8.289-8.289l0.123-69.812
			c0-3.571-2.907-6.479-6.48-6.479c-0.5,0-0.904-0.404-0.904-0.904s0.404-0.905,0.904-0.905h46c4.57,0,8.289,3.719,8.289,8.29
			v77.194C313.896-113.074,313.49-112.67,312.991-112.67z M264.771-197.249c1.903,1.521,3.125,3.86,3.125,6.48l-0.123,69.812
			c0,3.571,2.907,6.479,6.479,6.479h37.833v-76.291c0-3.573-2.906-6.48-6.479-6.48H264.771z"/>
	</g>
	<g id="XMLID_286_">
		<path id="XMLID_288_" fill="#B1B1B1" d="M302.449-113.574v-49.494h-13.867c-4.078,0-7.386,3.308-7.386,7.385v4.002v30.724
			c0,4.078-3.306,7.385-7.385,7.385L302.449-113.574L302.449-113.574z"/>
		<path id="XMLID_287_" fill="#1D1D1B" d="M302.449-112.67h-28.638c-0.499,0-0.903-0.404-0.903-0.904s0.404-0.904,0.903-0.904
			c3.573,0,6.48-2.906,6.48-6.479v-34.726c0-4.57,3.718-8.289,8.289-8.289h13.867c0.5,0,0.904,0.404,0.904,0.904v49.494
			C303.354-113.074,302.949-112.67,302.449-112.67z M278.978-114.479h22.567v-47.685h-12.963c-3.573,0-6.479,2.906-6.479,6.479
			v34.725C282.103-118.339,280.881-115.999,278.978-114.479z"/>
	</g>
	<g id="XMLID_279_">
		<g id="XMLID_283_">
			<path id="XMLID_285_" fill="#ECECEC" d="M288.019-163.068c4.078,0,7.385,3.308,7.385,7.385v72.67c0,4.08,3.307,7.386,7.386,7.386
				h38.613v-80.056c0-4.077-3.307-7.385-7.385-7.385H288.019z"/>
			<path id="XMLID_284_" fill="#1D1D1B" d="M341.402-74.725h-38.613c-4.571,0-8.29-3.719-8.29-8.289v-72.67
				c0-3.573-2.906-6.479-6.479-6.479c-0.5,0-0.905-0.405-0.905-0.905s0.405-0.904,0.905-0.904h45.999
				c4.57,0,8.289,3.719,8.289,8.289v80.056C342.307-75.129,341.901-74.725,341.402-74.725z M293.183-162.163
				c1.904,1.521,3.125,3.858,3.125,6.479v72.67c0,3.572,2.907,6.479,6.48,6.479h37.708v-79.149c0-3.573-2.905-6.479-6.479-6.479
				H293.183z"/>
		</g>
		<g id="XMLID_280_">
			<path id="XMLID_282_" fill="#B1B1B1" d="M355.832-87.016v4.002c0,4.078-3.306,7.385-7.385,7.385h-45.998
				c4.078,0,7.385-3.307,7.385-7.385v-4.002H355.832z"/>
			<path id="XMLID_281_" fill="#1D1D1B" d="M348.448-74.725h-45.998c-0.499,0-0.904-0.404-0.904-0.904s0.405-0.904,0.904-0.904
				c3.572,0,6.479-2.906,6.479-6.48v-4.002c0-0.5,0.405-0.904,0.904-0.904h45.998c0.5,0,0.905,0.404,0.905,0.904v4.002
				C356.738-78.441,353.02-74.725,348.448-74.725z M307.614-76.533h40.834c3.573,0,6.48-2.906,6.48-6.48v-3.098h-44.189v3.098
				C310.739-80.395,309.518-78.055,307.614-76.533z"/>
		</g>
	</g>
</g>
<g id="XMLID_250_">
	<g id="XMLID_275_">
		<g id="XMLID_276_">
			<path id="XMLID_277_" fill="#1D1D1B" d="M324.632-141.994h-23.738c-0.5,0-0.905-0.404-0.905-0.904s0.405-0.904,0.905-0.904
				h23.738c0.499,0,0.903,0.404,0.903,0.904S325.131-141.994,324.632-141.994z"/>
		</g>
	</g>
	<g id="XMLID_272_">
		<g id="XMLID_273_">
			<path id="XMLID_274_" fill="#1D1D1B" d="M324.632-126.863h-23.738c-0.5,0-0.905-0.404-0.905-0.904s0.405-0.904,0.905-0.904
				h23.738c0.499,0,0.903,0.404,0.903,0.904S325.131-126.863,324.632-126.863z"/>
		</g>
	</g>
	<g id="XMLID_269_">
		<g id="XMLID_270_">
			<path id="XMLID_271_" fill="#1D1D1B" d="M324.632-119.297h-23.738c-0.5,0-0.905-0.405-0.905-0.905s0.405-0.903,0.905-0.903
				h23.738c0.499,0,0.903,0.403,0.903,0.903S325.131-119.297,324.632-119.297z"/>
		</g>
	</g>
	<g id="XMLID_266_">
		<g id="XMLID_267_">
			<path id="XMLID_268_" fill="#1D1D1B" d="M324.632-134.43h-23.738c-0.5,0-0.905-0.404-0.905-0.903c0-0.5,0.405-0.905,0.905-0.905
				h23.738c0.499,0,0.903,0.405,0.903,0.905C325.535-134.834,325.131-134.43,324.632-134.43z"/>
		</g>
	</g>
	<g id="XMLID_263_">
		<g id="XMLID_264_">
			<path id="XMLID_265_" fill="#1D1D1B" d="M304.933-186.129h-23.738c-0.5,0-0.904-0.405-0.904-0.905
				c0-0.499,0.404-0.904,0.904-0.904h23.738c0.499,0,0.904,0.405,0.904,0.904C305.837-186.534,305.432-186.129,304.933-186.129z"/>
		</g>
	</g>
	<g id="XMLID_260_">
		<g id="XMLID_261_">
			<path id="XMLID_262_" fill="#1D1D1B" d="M304.933-170.997h-23.738c-0.5,0-0.904-0.405-0.904-0.905s0.404-0.904,0.904-0.904
				h23.738c0.499,0,0.904,0.404,0.904,0.904S305.432-170.997,304.933-170.997z"/>
		</g>
	</g>
	<g id="XMLID_257_">
		<g id="XMLID_258_">
			<path id="XMLID_259_" fill="#1D1D1B" d="M304.933-178.563h-23.738c-0.5,0-0.904-0.404-0.904-0.904s0.404-0.905,0.904-0.905
				h23.738c0.499,0,0.904,0.405,0.904,0.905S305.432-178.563,304.933-178.563z"/>
		</g>
	</g>
	<g id="XMLID_254_">
		<g id="XMLID_255_">
			<path id="XMLID_256_" fill="#1D1D1B" d="M324.632-111.73h-23.738c-0.5,0-0.905-0.405-0.905-0.904c0-0.5,0.405-0.905,0.905-0.905
				h23.738c0.499,0,0.903,0.405,0.903,0.905C325.535-112.137,325.131-111.73,324.632-111.73z"/>
		</g>
	</g>
	<g id="XMLID_251_">
		<g id="XMLID_252_">
			<path id="XMLID_253_" fill="#1D1D1B" d="M324.632-104.166h-23.738c-0.5,0-0.905-0.404-0.905-0.904s0.405-0.904,0.905-0.904
				h23.738c0.499,0,0.903,0.404,0.903,0.904S325.131-104.166,324.632-104.166z"/>
		</g>
	</g>
</g>
<g id="XMLID_241_">
	<g id="XMLID_247_">
		<circle id="XMLID_249_" fill="#FBC248" cx="329.961" cy="-152.665" r="5.011"/>
		<path id="XMLID_248_" fill="#1D1D1B" d="M329.961-146.749c-3.263,0-5.915-2.653-5.915-5.916c0-3.262,2.652-5.915,5.915-5.915
			c3.262,0,5.915,2.653,5.915,5.915C335.876-149.402,333.223-146.749,329.961-146.749z M329.961-156.771
			c-2.265,0-4.105,1.842-4.105,4.105c0,2.266,1.842,4.105,4.105,4.105c2.263,0,4.104-1.842,4.104-4.105
			S332.225-156.771,329.961-156.771z"/>
	</g>
	<g id="XMLID_242_">
		<g id="XMLID_245_">
			<path id="XMLID_246_" fill="#1D1D1B" d="M332.061-151.76h-4.199c-0.5,0-0.905-0.405-0.905-0.905c0-0.499,0.405-0.903,0.905-0.903
				h4.199c0.5,0,0.905,0.404,0.905,0.903C332.966-152.165,332.561-151.76,332.061-151.76z"/>
		</g>
		<g id="XMLID_243_">
			<path id="XMLID_244_" fill="#1D1D1B" d="M329.961-149.66c-0.5,0-0.905-0.404-0.905-0.904v-4.199c0-0.5,0.405-0.905,0.905-0.905
				s0.903,0.405,0.903,0.905v4.199C330.865-150.064,330.461-149.66,329.961-149.66z"/>
		</g>
	</g>
</g>
<g id="XMLID_234_">
	<g id="XMLID_238_">
		<circle id="XMLID_240_" fill="#F14D53" cx="307.033" cy="-94.718" r="5.01"/>
		<path id="XMLID_239_" fill="#1D1D1B" d="M307.032-88.803c-3.263,0-5.915-2.653-5.915-5.915c0-3.263,2.652-5.916,5.915-5.916
			c3.262,0,5.915,2.653,5.915,5.916C312.948-91.456,310.294-88.803,307.032-88.803z M307.032-98.824
			c-2.265,0-4.105,1.844-4.105,4.106s1.842,4.104,4.105,4.104c2.265,0,4.105-1.842,4.105-4.104S309.297-98.824,307.032-98.824z"/>
	</g>
	<g id="XMLID_235_">
		<g id="XMLID_236_">
			<path id="XMLID_237_" fill="#1D1D1B" d="M309.133-93.813h-4.2c-0.5,0-0.905-0.405-0.905-0.904c0-0.5,0.405-0.905,0.905-0.905h4.2
				c0.499,0,0.904,0.405,0.904,0.905C310.037-94.219,309.632-93.813,309.133-93.813z"/>
		</g>
	</g>
</g>
<g id="XMLID_191_">
	<g id="XMLID_231_">
		<path id="XMLID_233_" fill="#364558" d="M365.991-91.787h-34.979c-1.079,0-1.954-0.875-1.954-1.954v-47.604
			c0-1.079,0.875-1.954,1.954-1.954h34.979c1.079,0,1.954,0.875,1.954,1.954v47.604C367.946-92.662,367.071-91.787,365.991-91.787z"
			/>
		<path id="XMLID_232_" fill="#1D1D1B" d="M365.547-90.883h-34.088c-1.822,0-3.306-1.482-3.306-3.305V-140.9
			c0-1.822,1.482-3.305,3.306-3.305h34.088c1.821,0,3.305,1.482,3.305,3.305v46.713C368.852-92.365,367.368-90.883,365.547-90.883z
			 M331.459-142.396c-0.824,0-1.495,0.672-1.495,1.496v46.713c0,0.823,0.671,1.494,1.495,1.494h34.088
			c0.823,0,1.495-0.671,1.495-1.494V-140.9c0-0.824-0.672-1.494-1.495-1.494h-34.088V-142.396z"/>
	</g>
	<g id="XMLID_192_">
		<g id="XMLID_229_">
			<path id="XMLID_230_" fill="#ECECEC" d="M360.852-129.646h-24.697c-1.771,0-3.209-1.437-3.209-3.209v-3.176
				c0-1.771,1.438-3.209,3.209-3.209h24.697c1.771,0,3.209,1.438,3.209,3.209v3.176
				C364.061-131.083,362.622-129.646,360.852-129.646z"/>
		</g>
		<g id="XMLID_220_">
			<g id="XMLID_227_">
				<path id="XMLID_228_" fill="#F14D53" d="M336.95-120.117h-1.991c-1.112,0-2.015-0.9-2.015-2.014v-2.034
					c0-1.11,0.901-2.013,2.015-2.013h1.991c1.111,0,2.014,0.9,2.014,2.013v2.034C338.964-121.02,338.063-120.117,336.95-120.117z"/>
			</g>
			<g id="XMLID_225_">
				<path id="XMLID_226_" fill="#F14D53" d="M345.316-120.117h-1.992c-1.111,0-2.014-0.9-2.014-2.014v-2.034
					c0-1.11,0.901-2.013,2.014-2.013h1.992c1.111,0,2.013,0.9,2.013,2.013v2.034C347.328-121.02,346.428-120.117,345.316-120.117z"
					/>
			</g>
			<g id="XMLID_223_">
				<path id="XMLID_224_" fill="#F14D53" d="M353.682-120.117h-1.992c-1.112,0-2.013-0.9-2.013-2.014v-2.034
					c0-1.11,0.899-2.013,2.013-2.013h1.992c1.111,0,2.013,0.9,2.013,2.013v2.034C355.694-121.02,354.793-120.117,353.682-120.117z"
					/>
			</g>
			<g id="XMLID_221_">
				<path id="XMLID_222_" fill="#FBC248" d="M362.047-120.117h-1.992c-1.111,0-2.014-0.9-2.014-2.014v-2.034
					c0-1.11,0.901-2.013,2.014-2.013h1.992c1.111,0,2.014,0.9,2.014,2.013v2.034C364.061-121.02,363.158-120.117,362.047-120.117z"
					/>
			</g>
		</g>
		<g id="XMLID_211_">
			<g id="XMLID_218_">
				<path id="XMLID_219_" fill="#FFFFFF" d="M336.95-112.027h-1.991c-1.112,0-2.015-0.9-2.015-2.014v-2.034
					c0-1.11,0.901-2.013,2.015-2.013h1.991c1.111,0,2.014,0.9,2.014,2.013v2.034C338.964-112.93,338.063-112.027,336.95-112.027z"/>
			</g>
			<g id="XMLID_216_">
				<path id="XMLID_217_" fill="#FFFFFF" d="M345.316-112.027h-1.992c-1.111,0-2.014-0.9-2.014-2.014v-2.034
					c0-1.11,0.901-2.013,2.014-2.013h1.992c1.111,0,2.013,0.9,2.013,2.013v2.034C347.328-112.93,346.428-112.027,345.316-112.027z"
					/>
			</g>
			<g id="XMLID_214_">
				<path id="XMLID_215_" fill="#FFFFFF" d="M353.682-112.027h-1.992c-1.112,0-2.013-0.9-2.013-2.014v-2.034
					c0-1.11,0.899-2.013,2.013-2.013h1.992c1.111,0,2.013,0.9,2.013,2.013v2.034C355.694-112.93,354.793-112.027,353.682-112.027z"
					/>
			</g>
			<g id="XMLID_212_">
				<path id="XMLID_213_" fill="#F14D53" d="M362.047-112.027h-1.992c-1.111,0-2.014-0.9-2.014-2.014v-2.034
					c0-1.11,0.901-2.013,2.014-2.013h1.992c1.111,0,2.014,0.9,2.014,2.013v2.034C364.061-112.93,363.158-112.027,362.047-112.027z"
					/>
			</g>
		</g>
		<g id="XMLID_202_">
			<g id="XMLID_209_">
				<path id="XMLID_210_" fill="#FFFFFF" d="M336.95-103.938h-1.991c-1.112,0-2.015-0.9-2.015-2.014v-2.033
					c0-1.111,0.901-2.014,2.015-2.014h1.991c1.111,0,2.014,0.9,2.014,2.014v2.033C338.964-104.839,338.063-103.938,336.95-103.938z"
					/>
			</g>
			<g id="XMLID_207_">
				<path id="XMLID_208_" fill="#FFFFFF" d="M345.316-103.938h-1.992c-1.111,0-2.014-0.9-2.014-2.014v-2.033
					c0-1.111,0.901-2.014,2.014-2.014h1.992c1.111,0,2.013,0.9,2.013,2.014v2.033C347.328-104.839,346.428-103.938,345.316-103.938z
					"/>
			</g>
			<g id="XMLID_205_">
				<path id="XMLID_206_" fill="#FFFFFF" d="M353.682-103.938h-1.992c-1.112,0-2.013-0.9-2.013-2.014v-2.033
					c0-1.111,0.899-2.014,2.013-2.014h1.992c1.111,0,2.013,0.9,2.013,2.014v2.033C355.694-104.839,354.793-103.938,353.682-103.938z
					"/>
			</g>
			<g id="XMLID_203_">
				<path id="XMLID_204_" fill="#F14D53" d="M362.047-103.938h-1.992c-1.111,0-2.014-0.9-2.014-2.014v-2.033
					c0-1.111,0.901-2.014,2.014-2.014h1.992c1.111,0,2.014,0.9,2.014,2.014v2.033C364.061-104.839,363.158-103.938,362.047-103.938z
					"/>
			</g>
		</g>
		<g id="XMLID_193_">
			<g id="XMLID_200_">
				<path id="XMLID_201_" fill="#FFFFFF" d="M336.95-95.848h-1.991c-1.112,0-2.015-0.901-2.015-2.014v-2.035
					c0-1.11,0.901-2.013,2.015-2.013h1.991c1.111,0,2.014,0.901,2.014,2.013v2.035C338.964-96.749,338.063-95.848,336.95-95.848z"/>
			</g>
			<g id="XMLID_198_">
				<path id="XMLID_199_" fill="#FFFFFF" d="M345.316-95.848h-1.992c-1.111,0-2.014-0.901-2.014-2.014v-2.035
					c0-1.11,0.901-2.013,2.014-2.013h1.992c1.111,0,2.013,0.901,2.013,2.013v2.035C347.328-96.749,346.428-95.848,345.316-95.848z"
					/>
			</g>
			<g id="XMLID_196_">
				<path id="XMLID_197_" fill="#FFFFFF" d="M353.682-95.848h-1.992c-1.112,0-2.013-0.901-2.013-2.014v-2.035
					c0-1.11,0.899-2.013,2.013-2.013h1.992c1.111,0,2.013,0.901,2.013,2.013v2.035C355.694-96.749,354.793-95.848,353.682-95.848z"
					/>
			</g>
			<g id="XMLID_194_">
				<path id="XMLID_195_" fill="#F14D53" d="M362.047-95.848h-1.992c-1.111,0-2.014-0.901-2.014-2.014v-2.035
					c0-1.11,0.901-2.013,2.014-2.013h1.992c1.111,0,2.014,0.901,2.014,2.013v2.035C364.061-96.749,363.158-95.848,362.047-95.848z"
					/>
			</g>
		</g>
	</g>
</g>
<g id="XMLID_184_">
	<g id="XMLID_188_">
		<path id="XMLID_190_" fill="#12C48B" d="M404.073-130.684l5.36-9.125c-2.426-3.616-3.842-7.967-3.842-12.648
			c0-12.563,10.183-22.744,22.743-22.744c12.562,0,22.744,10.184,22.744,22.744s-10.183,22.743-22.744,22.743
			c-4.732,0-9.129-1.447-12.77-3.922l-9.736,4.837C404.634-128.204,403.396-129.53,404.073-130.684z"/>
		<path id="XMLID_189_" fill="#1D1D1B" d="M405.227-127.75c-0.606,0-1.201-0.248-1.64-0.719c-0.685-0.733-0.803-1.809-0.294-2.674
			l5.075-8.642c-2.411-3.789-3.682-8.157-3.682-12.675c0-13.039,10.608-23.648,23.647-23.648c13.04,0,23.649,10.609,23.649,23.648
			c0,13.04-10.609,23.648-23.649,23.648c-4.582,0-9.009-1.307-12.834-3.783l-9.27,4.604
			C405.909-127.828,405.566-127.75,405.227-127.75z M428.336-174.297c-12.042,0-21.84,9.797-21.84,21.839
			c0,4.349,1.275,8.548,3.688,12.146c0.193,0.289,0.205,0.662,0.029,0.963l-5.36,9.125l0,0c-0.149,0.255-0.01,0.449,0.058,0.521
			c0.067,0.072,0.252,0.228,0.518,0.095l9.735-4.836c0.293-0.146,0.642-0.123,0.911,0.062c3.624,2.464,7.864,3.766,12.262,3.766
			c12.042,0,21.84-9.797,21.84-21.84C450.176-164.5,440.378-174.297,428.336-174.297z"/>
	</g>
	<g id="XMLID_185_">
		<g id="XMLID_186_">
			<path id="XMLID_187_" fill="#F5F5F5" d="M426.846-136.693v-2.701c-2.251-0.354-4.375-1.187-6.372-2.496
				c-1.309-0.857-1.515-2.703-0.521-3.911l0,0c0.878-1.066,2.441-1.327,3.571-0.531c1.188,0.837,2.295,1.409,3.321,1.719v-5.516
				c-2.591-0.666-4.492-1.562-5.7-2.685c-1.21-1.123-1.814-2.74-1.814-4.851s0.69-3.851,2.073-5.22
				c1.382-1.37,3.195-2.189,5.441-2.463v-1.813h3.925v1.889c1.573,0.221,3.143,0.717,4.706,1.488
				c1.465,0.725,1.986,2.555,1.054,3.896l0,0c-0.752,1.082-2.205,1.464-3.361,0.834c-0.837-0.454-1.636-0.787-2.397-0.999v5.331
				c2.665,0.689,4.633,1.615,5.904,2.775c1.271,1.16,1.906,2.801,1.906,4.924s-0.71,3.875-2.129,5.256
				c-1.42,1.384-3.313,2.209-5.683,2.48v2.592H426.846L426.846-136.693z M426.846-160.2c-1.062,0.37-1.591,1.05-1.591,2.035
				c0,0.988,0.529,1.74,1.591,2.259V-160.2z M432.657-146.727c0-0.519-0.136-0.948-0.407-1.295
				c-0.271-0.346-0.766-0.666-1.479-0.963v4.555C432.029-144.824,432.657-145.589,432.657-146.727z"/>
		</g>
	</g>
</g>
<g id="XMLID_173_">
	<g id="XMLID_179_">
		<g id="XMLID_182_">
			<path id="XMLID_183_" fill="#1D1D1B" d="M43.93-161.525c-0.23,0-0.463-0.089-0.64-0.266c-0.354-0.354-0.354-0.926,0-1.279
				l4.325-4.325c0.169-0.169,0.399-0.265,0.64-0.265l0,0c0.24,0,0.47,0.096,0.64,0.265l4.325,4.325c0.354,0.354,0.354,0.928,0,1.279
				c-0.353,0.354-0.926,0.354-1.279,0l-3.685-3.686l-3.686,3.686C44.393-161.614,44.162-161.525,43.93-161.525z"/>
		</g>
		<g id="XMLID_180_">
			<path id="XMLID_181_" fill="#1D1D1B" d="M48.255-141.498c-0.5,0-0.905-0.404-0.905-0.904v-24.354
				c0-0.499,0.405-0.904,0.905-0.904s0.905,0.405,0.905,0.904v24.354C49.16-141.902,48.754-141.498,48.255-141.498z"/>
		</g>
	</g>
	<g id="XMLID_174_">
		<g id="XMLID_177_">
			<path id="XMLID_178_" fill="#1D1D1B" d="M58.016-142.799c-0.24,0-0.47-0.096-0.64-0.266l-4.325-4.324
				c-0.354-0.354-0.354-0.926,0-1.279c0.353-0.354,0.927-0.354,1.279,0l3.686,3.686l3.686-3.686c0.353-0.354,0.926-0.354,1.279,0
				c0.354,0.354,0.354,0.926,0,1.279l-4.325,4.324C58.485-142.895,58.255-142.799,58.016-142.799z"/>
		</g>
		<g id="XMLID_175_">
			<path id="XMLID_176_" fill="#1D1D1B" d="M58.016-142.799c-0.5,0-0.905-0.405-0.905-0.904v-24.353c0-0.5,0.405-0.905,0.905-0.905
				s0.905,0.405,0.905,0.905v24.353C58.92-143.204,58.515-142.799,58.016-142.799z"/>
		</g>
	</g>
</g>
<g id="XMLID_169_">
	<g id="XMLID_170_">
		<path id="XMLID_172_" fill="#FBC248" d="M112.44-230.013l1.782,1.782c0.721,0.722,1.815,0.873,2.731,0.423
			c0.46-0.226,0.932-0.422,1.41-0.586c0.967-0.332,1.633-1.21,1.633-2.231v-2.517c0-1.299,1.053-2.353,2.352-2.353l0,0
			c1.299,0,2.354,1.053,2.354,2.353v2.517c0,1.021,0.667,1.899,1.632,2.231c0.479,0.165,0.951,0.36,1.412,0.586
			c0.916,0.45,2.01,0.298,2.73-0.423l1.782-1.782c0.918-0.918,2.408-0.918,3.327,0l0,0c0.918,0.918,0.918,2.408,0,3.327
			l-1.782,1.782c-0.722,0.722-0.873,1.815-0.423,2.731c0.226,0.46,0.421,0.932,0.586,1.411c0.332,0.966,1.21,1.632,2.23,1.632h2.518
			c1.299,0,2.352,1.053,2.352,2.352l0,0c0,1.299-1.053,2.353-2.352,2.353h-2.518c-1.021,0-1.898,0.667-2.23,1.632
			c-0.165,0.479-0.36,0.951-0.586,1.411c-0.45,0.916-0.298,2.01,0.423,2.731l1.782,1.781c0.918,0.919,0.918,2.408,0,3.327l0,0
			c-0.919,0.919-2.408,0.919-3.327,0l-1.782-1.782c-0.722-0.721-1.814-0.873-2.73-0.423c-0.46,0.226-0.933,0.422-1.411,0.587
			c-0.966,0.332-1.632,1.21-1.632,2.231v2.517c0,1.299-1.054,2.353-2.353,2.353l0,0c-1.299,0-2.352-1.054-2.352-2.353v-2.517
			c0-1.021-0.667-1.899-1.632-2.231c-0.479-0.165-0.951-0.36-1.411-0.587c-0.916-0.45-2.011-0.298-2.731,0.423l-1.782,1.782
			c-0.918,0.919-2.407,0.919-3.327,0l0,0c-0.918-0.919-0.918-2.408,0-3.327l1.782-1.781c0.723-0.722,0.873-1.815,0.423-2.731
			c-0.226-0.46-0.422-0.932-0.587-1.411c-0.332-0.965-1.21-1.632-2.23-1.632h-2.518c-1.299,0-2.353-1.053-2.353-2.352l0,0
			c0-1.299,1.053-2.352,2.353-2.352h2.518c1.021,0,1.898-0.667,2.23-1.632c0.165-0.479,0.36-0.951,0.586-1.411
			c0.45-0.916,0.299-2.01-0.423-2.731l-1.782-1.782c-0.918-0.918-0.918-2.408,0-3.327l0,0
			C110.032-230.932,111.522-230.932,112.44-230.013z M117.083-211.511c2.909,2.908,7.624,2.908,10.533,0
			c2.908-2.909,2.908-7.625,0-10.533c-2.909-2.909-7.624-2.909-10.533,0C114.174-219.136,114.174-214.42,117.083-211.511z"/>
		<path id="XMLID_171_" fill="#1D1D1B" d="M122.35-197.155c-1.796,0-3.257-1.461-3.257-3.257v-2.517
			c0-0.623-0.401-1.163-1.022-1.376c-0.517-0.178-1.025-0.39-1.516-0.63c-0.579-0.284-1.259-0.184-1.693,0.25l-1.781,1.782
			c-1.271,1.27-3.336,1.271-4.606,0c-0.615-0.615-0.954-1.434-0.954-2.303c0-0.87,0.339-1.688,0.954-2.304l1.782-1.781
			c0.434-0.434,0.535-1.114,0.25-1.693c-0.24-0.489-0.453-0.999-0.63-1.515c-0.213-0.621-0.753-1.022-1.376-1.022h-2.518
			c-1.796,0-3.257-1.461-3.257-3.257c0-1.796,1.461-3.257,3.257-3.257h2.518c0.623,0,1.163-0.401,1.376-1.021
			c0.177-0.515,0.389-1.025,0.63-1.516c0.284-0.579,0.184-1.259-0.25-1.693l-1.782-1.782c-1.27-1.27-1.27-3.336,0-4.606
			c1.271-1.27,3.337-1.27,4.606,0l0,0l1.781,1.782c0.436,0.434,1.115,0.535,1.693,0.25c0.491-0.241,1-0.453,1.516-0.63
			c0.621-0.213,1.022-0.753,1.022-1.375v-2.517c0-1.796,1.461-3.257,3.257-3.257s3.257,1.461,3.257,3.257v2.517
			c0,0.623,0.401,1.163,1.021,1.376c0.515,0.177,1.024,0.389,1.516,0.629c0.579,0.284,1.259,0.183,1.693-0.25l1.782-1.782
			c1.27-1.27,3.336-1.27,4.605,0c0.615,0.615,0.954,1.433,0.954,2.303s-0.339,1.688-0.954,2.303l-1.782,1.782
			c-0.434,0.434-0.534,1.114-0.251,1.693c0.241,0.491,0.453,1.001,0.63,1.516c0.214,0.621,0.754,1.022,1.377,1.022h2.517
			c1.796,0,3.257,1.461,3.257,3.257c0,1.796-1.461,3.257-3.257,3.257h-2.517c-0.623,0-1.163,0.401-1.377,1.021
			c-0.178,0.518-0.39,1.027-0.63,1.517c-0.283,0.578-0.183,1.259,0.251,1.692l1.782,1.782c0.615,0.614,0.954,1.433,0.954,2.303
			c0,0.869-0.339,1.688-0.954,2.303c-1.27,1.27-3.336,1.271-4.605,0l-1.782-1.782c-0.435-0.434-1.114-0.534-1.693-0.25
			c-0.491,0.24-1.001,0.452-1.516,0.63c-0.621,0.213-1.022,0.753-1.022,1.376v2.517C125.606-198.616,124.146-197.155,122.35-197.155
			z M115.874-206.904c0.5,0,1.006,0.113,1.479,0.345c0.422,0.208,0.862,0.391,1.308,0.544c1.341,0.461,2.242,1.701,2.242,3.087
			v2.517c0,0.798,0.649,1.447,1.447,1.447s1.448-0.649,1.448-1.447v-2.517c0-1.386,0.901-2.626,2.243-3.087
			c0.442-0.153,0.883-0.336,1.307-0.544c1.273-0.625,2.788-0.386,3.771,0.596l1.781,1.782c0.564,0.564,1.482,0.564,2.047,0
			c0.273-0.273,0.425-0.637,0.425-1.023c0-0.386-0.15-0.75-0.425-1.023l-1.781-1.782c-0.981-0.981-1.222-2.496-0.596-3.77
			c0.207-0.422,0.391-0.861,0.543-1.307c0.462-1.341,1.702-2.243,3.088-2.243h2.517c0.798,0,1.447-0.649,1.447-1.447
			c0-0.798-0.649-1.448-1.447-1.448H136.2c-1.386,0-2.626-0.901-3.088-2.243c-0.152-0.443-0.335-0.883-0.543-1.307
			c-0.625-1.273-0.386-2.788,0.597-3.77l1.781-1.782c0.273-0.273,0.425-0.637,0.425-1.023c0-0.387-0.15-0.75-0.425-1.024
			c-0.563-0.564-1.482-0.564-2.047,0l-1.781,1.782c-0.981,0.981-2.497,1.221-3.771,0.595c-0.423-0.208-0.863-0.39-1.307-0.542
			c-1.341-0.462-2.243-1.702-2.243-3.087v-2.517c0-0.798-0.649-1.448-1.447-1.448s-1.448,0.649-1.448,1.448v2.517
			c0,1.385-0.9,2.626-2.242,3.087c-0.443,0.153-0.884,0.335-1.308,0.543c-1.272,0.625-2.789,0.386-3.77-0.596l-1.782-1.781
			c-0.564-0.565-1.483-0.565-2.047,0c-0.564,0.564-0.564,1.482,0,2.047l1.781,1.782c0.981,0.982,1.221,2.497,0.596,3.77
			c-0.208,0.424-0.391,0.863-0.543,1.307c-0.461,1.342-1.702,2.243-3.087,2.243h-2.518c-0.798,0-1.447,0.649-1.447,1.447
			c0,0.798,0.648,1.448,1.447,1.448h2.516c1.386,0,2.626,0.901,3.087,2.243c0.153,0.444,0.336,0.884,0.543,1.307
			c0.625,1.273,0.386,2.788-0.596,3.77l-1.781,1.782c-0.274,0.273-0.424,0.637-0.424,1.023c0,0.386,0.149,0.75,0.424,1.023
			c0.563,0.564,1.481,0.564,2.047,0l1.782-1.782C114.2-206.58,115.027-206.904,115.874-206.904z M122.35-208.429
			c-2.139,0-4.278-0.814-5.906-2.442c-3.257-3.257-3.257-8.556,0-11.813c3.257-3.257,8.557-3.257,11.813,0
			c3.257,3.257,3.257,8.556,0,11.813C126.627-209.243,124.488-208.429,122.35-208.429z M122.35-223.318
			c-1.676,0-3.351,0.638-4.627,1.914c-2.551,2.551-2.551,6.702,0,9.253c2.551,2.551,6.702,2.551,9.253,0
			c2.551-2.551,2.551-6.703,0-9.253C125.7-222.68,124.025-223.318,122.35-223.318z"/>
	</g>
</g>
<g id="XMLID_165_">
	<g id="XMLID_166_">
		<path id="XMLID_168_" fill="#12C48B" d="M140.041-208.179l0.819,1.744c0.332,0.706,1.08,1.099,1.855,1.013
			c0.39-0.043,0.78-0.062,1.167-0.056c0.781,0.012,1.488-0.447,1.753-1.183l0.653-1.811c0.337-0.935,1.368-1.419,2.302-1.082l0,0
			c0.934,0.337,1.419,1.368,1.082,2.303l-0.653,1.811c-0.265,0.734-0.013,1.539,0.597,2.028c0.302,0.243,0.59,0.506,0.862,0.788
			c0.542,0.562,1.368,0.735,2.074,0.404l1.744-0.82c0.898-0.423,1.97-0.036,2.393,0.862l0,0c0.422,0.899,0.036,1.971-0.862,2.394
			l-1.744,0.819c-0.706,0.332-1.1,1.08-1.014,1.855c0.043,0.39,0.063,0.779,0.057,1.167c-0.012,0.781,0.447,1.488,1.182,1.753
			l1.812,0.653c0.935,0.337,1.419,1.367,1.082,2.302l0,0c-0.337,0.935-1.368,1.419-2.303,1.082l-1.811-0.652
			c-0.734-0.265-1.539-0.013-2.028,0.596c-0.243,0.302-0.506,0.591-0.788,0.863c-0.561,0.542-0.735,1.368-0.403,2.074l0.819,1.744
			c0.422,0.898,0.036,1.97-0.862,2.393l0,0c-0.899,0.423-1.972,0.036-2.394-0.862l-0.82-1.744c-0.332-0.706-1.079-1.099-1.854-1.013
			c-0.39,0.043-0.78,0.062-1.167,0.056c-0.781-0.012-1.488,0.448-1.753,1.183l-0.653,1.811c-0.337,0.935-1.367,1.419-2.302,1.082
			l0,0c-0.936-0.337-1.419-1.367-1.083-2.302l0.653-1.812c0.265-0.734,0.013-1.539-0.596-2.028
			c-0.303-0.243-0.591-0.506-0.862-0.788c-0.542-0.561-1.369-0.735-2.075-0.403l-1.744,0.819c-0.899,0.423-1.971,0.036-2.393-0.862
			l0,0c-0.424-0.899-0.037-1.971,0.861-2.394l1.744-0.819c0.706-0.332,1.099-1.08,1.013-1.855c-0.043-0.39-0.062-0.779-0.056-1.167
			c0.012-0.781-0.448-1.488-1.182-1.753l-1.812-0.652c-0.935-0.337-1.419-1.368-1.082-2.303l0,0
			c0.337-0.935,1.368-1.419,2.302-1.082l1.812,0.652c0.734,0.265,1.54,0.014,2.028-0.596c0.242-0.302,0.506-0.59,0.788-0.862
			c0.561-0.543,0.735-1.369,0.403-2.075l-0.819-1.743c-0.423-0.899-0.036-1.971,0.862-2.394l0,0
			C138.546-209.464,139.618-209.077,140.041-208.179z M138.583-193.664c1.338,2.847,4.729,4.069,7.577,2.731
			c2.846-1.339,4.068-4.73,2.73-7.577c-1.338-2.847-4.73-4.07-7.577-2.731C138.467-199.903,137.244-196.511,138.583-193.664z"/>
		<path id="XMLID_167_" fill="#1D1D1B" d="M139.49-181.61c-0.305,0-0.613-0.052-0.915-0.161c-0.68-0.244-1.224-0.739-1.53-1.393
			c-0.308-0.654-0.342-1.388-0.098-2.067l0.653-1.811c0.13-0.36,0.008-0.76-0.312-1.017c-0.332-0.267-0.65-0.558-0.947-0.864
			c-0.284-0.294-0.692-0.377-1.039-0.214l-1.744,0.82c-0.654,0.308-1.388,0.342-2.066,0.096c-0.681-0.244-1.224-0.739-1.53-1.393
			c-0.634-1.35-0.053-2.963,1.296-3.597l1.744-0.82c0.348-0.163,0.543-0.53,0.499-0.937c-0.047-0.424-0.068-0.854-0.063-1.28
			c0.006-0.409-0.223-0.758-0.584-0.889l-1.811-0.652c-0.679-0.245-1.224-0.739-1.529-1.394c-0.308-0.653-0.342-1.388-0.097-2.066
			c0.245-0.679,0.739-1.223,1.393-1.53c0.653-0.307,1.388-0.342,2.067-0.097l1.811,0.653c0.361,0.129,0.761,0.008,1.018-0.312
			c0.269-0.334,0.559-0.652,0.864-0.947c0.293-0.283,0.377-0.691,0.214-1.039l-0.819-1.743c-0.308-0.653-0.342-1.388-0.097-2.067
			c0.244-0.68,0.738-1.223,1.393-1.529c1.35-0.635,2.962-0.053,3.597,1.296l0.82,1.744c0.164,0.348,0.529,0.543,0.937,0.498
			c0.425-0.047,0.854-0.066,1.281-0.062c0.412,0.021,0.758-0.223,0.889-0.584l0.652-1.811c0.245-0.679,0.739-1.223,1.394-1.529
			c0.652-0.308,1.388-0.342,2.066-0.097c1.402,0.505,2.132,2.058,1.626,3.46l-0.652,1.811c-0.13,0.361-0.009,0.76,0.312,1.017
			c0.332,0.267,0.65,0.558,0.947,0.864c0.284,0.293,0.69,0.377,1.039,0.214l1.745-0.819c0.653-0.308,1.388-0.342,2.065-0.097
			c0.681,0.244,1.224,0.739,1.53,1.393c0.634,1.349,0.052,2.963-1.296,3.598l-1.745,0.819c-0.342,0.161-0.542,0.537-0.498,0.937
			c0.047,0.423,0.068,0.854,0.063,1.28c-0.007,0.409,0.223,0.758,0.584,0.889l1.811,0.652c1.402,0.506,2.132,2.058,1.627,3.46
			c-0.506,1.403-2.058,2.134-3.46,1.627l-1.811-0.653c-0.361-0.13-0.761-0.008-1.018,0.312c-0.268,0.333-0.558,0.651-0.865,0.947
			c-0.293,0.283-0.377,0.691-0.213,1.039l0.82,1.743c0.634,1.35,0.052,2.963-1.296,3.598c-1.351,0.633-2.963,0.052-3.598-1.297
			l-0.819-1.744c-0.163-0.348-0.529-0.542-0.938-0.498c-0.424,0.047-0.854,0.067-1.279,0.062c-0.407-0.017-0.76,0.223-0.89,0.584
			l-0.651,1.811C141.639-182.297,140.598-181.61,139.49-181.61z M135.667-191.026c0.726,0,1.443,0.294,1.979,0.846
			c0.244,0.253,0.506,0.492,0.78,0.712c0.916,0.737,1.27,1.959,0.88,3.041l-0.653,1.811c-0.081,0.225-0.068,0.467,0.032,0.683
			c0.103,0.217,0.281,0.38,0.506,0.461c0.463,0.167,0.978-0.073,1.145-0.537l0.652-1.812c0.391-1.081,1.458-1.783,2.618-1.779
			c0.352,0.006,0.705-0.012,1.055-0.051c1.168-0.13,2.283,0.484,2.772,1.527l0.82,1.743c0.102,0.217,0.281,0.38,0.506,0.461
			s0.467,0.069,0.684-0.031c0.217-0.103,0.379-0.281,0.46-0.507c0.081-0.225,0.07-0.467-0.031-0.683l-0.82-1.744
			c-0.49-1.043-0.252-2.293,0.594-3.11c0.252-0.243,0.491-0.505,0.712-0.779c0.736-0.916,1.958-1.27,3.041-0.88l1.812,0.653
			c0.464,0.168,0.977-0.074,1.144-0.538s-0.074-0.978-0.538-1.145l-1.811-0.652c-1.082-0.39-1.797-1.441-1.78-2.617
			c0.005-0.352-0.012-0.706-0.05-1.055c-0.13-1.169,0.483-2.283,1.527-2.773l1.743-0.82c0.446-0.209,0.639-0.743,0.43-1.189
			c-0.103-0.216-0.281-0.379-0.506-0.46c-0.226-0.081-0.468-0.069-0.685,0.031l-1.744,0.82c-1.042,0.49-2.292,0.252-3.109-0.594
			c-0.244-0.253-0.506-0.492-0.779-0.712c-0.917-0.736-1.271-1.958-0.88-3.04l0.652-1.811c0.168-0.464-0.074-0.978-0.537-1.145
			c-0.226-0.081-0.468-0.069-0.684,0.032c-0.216,0.102-0.38,0.281-0.461,0.506l-0.653,1.811c-0.39,1.082-1.453,1.782-2.616,1.779
			c-0.351-0.005-0.705,0.012-1.055,0.051c-1.167,0.129-2.282-0.483-2.773-1.526l-0.82-1.745l0,0
			c-0.102-0.216-0.281-0.379-0.506-0.46s-0.467-0.069-0.684,0.032c-0.217,0.102-0.38,0.281-0.46,0.506
			c-0.081,0.224-0.07,0.467,0.031,0.683l0.82,1.744c0.49,1.043,0.251,2.293-0.594,3.11c-0.251,0.243-0.491,0.505-0.712,0.779
			c-0.736,0.916-1.959,1.27-3.04,0.88l-1.812-0.653c-0.464-0.167-0.977,0.075-1.144,0.538c-0.081,0.225-0.069,0.468,0.031,0.684
			c0.103,0.217,0.281,0.38,0.507,0.461l1.811,0.652c1.082,0.391,1.797,1.442,1.78,2.617c-0.005,0.351,0.012,0.705,0.051,1.055
			c0.129,1.169-0.484,2.283-1.527,2.773l-1.743,0.82c-0.217,0.102-0.381,0.281-0.462,0.506c-0.08,0.225-0.068,0.467,0.032,0.684
			c0.103,0.216,0.281,0.379,0.506,0.46c0.226,0.081,0.468,0.069,0.685-0.031l1.743-0.82
			C134.896-190.944,135.282-191.026,135.667-191.026z M143.741-189.483c-0.756,0-1.513-0.131-2.242-0.395
			c-1.659-0.598-2.985-1.807-3.735-3.401c-0.75-1.596-0.834-3.388-0.236-5.046c0.599-1.659,1.807-2.985,3.401-3.735
			s3.387-0.834,5.045-0.236c1.659,0.599,2.985,1.807,3.735,3.402s0.834,3.387,0.235,5.045c-0.598,1.659-1.806,2.985-3.4,3.735
			C145.652-189.694,144.698-189.483,143.741-189.483z M143.733-200.881c-0.694,0-1.387,0.153-2.035,0.458
			c-1.157,0.544-2.034,1.507-2.469,2.711c-0.434,1.204-0.373,2.505,0.171,3.662v0.001c0.544,1.157,1.508,2.034,2.71,2.469
			c1.204,0.434,2.506,0.373,3.663-0.172c1.158-0.544,2.035-1.507,2.47-2.711c0.434-1.203,0.372-2.504-0.173-3.662
			c-0.544-1.158-1.507-2.035-2.71-2.469C144.831-200.785,144.281-200.881,143.733-200.881z"/>
	</g>
</g>
<g id="XMLID_163_">
	<path id="XMLID_164_" fill="#1D1D1B" d="M433.513-74.755H42.154c-0.5,0-0.904-0.405-0.904-0.905c0-0.499,0.404-0.904,0.904-0.904
		h391.358c0.5,0,0.904,0.405,0.904,0.904C434.418-75.16,434.013-74.755,433.513-74.755z"/>
</g>
<g id="XMLID_160_">
	<circle id="XMLID_162_" fill="#ECECEC" cx="237.833" cy="-175.373" r="3.352"/>
	<path id="XMLID_161_" fill="#1D1D1B" d="M237.833-171.117c-2.348,0-4.256-1.909-4.256-4.256c0-2.348,1.909-4.257,4.256-4.257
		c2.346,0,4.256,1.909,4.256,4.257C242.09-173.026,240.18-171.117,237.833-171.117z M237.833-177.82
		c-1.35,0-2.447,1.098-2.447,2.447s1.098,2.446,2.447,2.446c1.349,0,2.446-1.098,2.446-2.446
		C240.28-176.723,239.183-177.82,237.833-177.82z"/>
</g>
<g id="XMLID_157_">
	<circle id="XMLID_159_" fill="#ECECEC" cx="59.261" cy="-109.687" r="3.352"/>
	<path id="XMLID_158_" fill="#1D1D1B" d="M59.262-105.432c-2.347,0-4.257-1.909-4.257-4.256c0-2.348,1.91-4.256,4.257-4.256
		s4.256,1.908,4.256,4.256C63.518-107.341,61.608-105.432,59.262-105.432z M59.262-112.134c-1.35,0-2.447,1.098-2.447,2.446
		c0,1.348,1.099,2.446,2.447,2.446s2.446-1.099,2.446-2.446C61.708-111.036,60.61-112.134,59.262-112.134z"/>
</g>
<g id="XMLID_154_">
	<circle id="XMLID_156_" fill="#ECECEC" cx="184.959" cy="-208.659" r="3.352"/>
	<path id="XMLID_155_" fill="#1D1D1B" d="M184.959-204.403c-2.348,0-4.256-1.909-4.256-4.256c0-2.348,1.908-4.257,4.256-4.257
		c2.347,0,4.256,1.909,4.256,4.257C189.216-206.312,187.306-204.403,184.959-204.403z M184.959-211.106
		c-1.35,0-2.447,1.098-2.447,2.447c0,1.349,1.098,2.446,2.447,2.446c1.349,0,2.446-1.098,2.446-2.446
		C187.406-210.009,186.309-211.106,184.959-211.106z"/>
</g>
<g id="XMLID_151_">
	<circle id="XMLID_153_" fill="#ECECEC" cx="395.734" cy="-195.087" r="3.352"/>
	<path id="XMLID_152_" fill="#1D1D1B" d="M395.734-190.831c-2.348,0-4.257-1.909-4.257-4.256c0-2.348,1.909-4.257,4.257-4.257
		c2.347,0,4.256,1.909,4.256,4.257C399.99-192.74,398.08-190.831,395.734-190.831z M395.734-197.534
		c-1.35,0-2.447,1.098-2.447,2.447s1.099,2.446,2.447,2.446s2.446-1.098,2.446-2.446
		C398.181-196.437,397.082-197.534,395.734-197.534z"/>
</g>
<g id="XMLID_148_">
	<circle id="XMLID_150_" fill="#ECECEC" cx="366.808" cy="-236.4" r="3.352"/>
	<path id="XMLID_149_" fill="#1D1D1B" d="M366.808-232.144c-2.348,0-4.257-1.91-4.257-4.257c0-2.347,1.909-4.256,4.257-4.256
		c2.347,0,4.256,1.91,4.256,4.256C371.063-234.053,369.154-232.144,366.808-232.144z M366.808-238.847
		c-1.351,0-2.447,1.098-2.447,2.447s1.099,2.447,2.447,2.447s2.446-1.098,2.446-2.447S368.156-238.847,366.808-238.847z"/>
</g>
<g id="XMLID_145_">
	<circle id="XMLID_147_" fill="#ECECEC" cx="288.429" cy="-258.12" r="3.352"/>
	<path id="XMLID_146_" fill="#1D1D1B" d="M288.429-253.864c-2.347,0-4.256-1.909-4.256-4.256c0-2.347,1.909-4.256,4.256-4.256
		s4.257,1.91,4.257,4.256C292.686-255.773,290.775-253.864,288.429-253.864z M288.429-260.567c-1.349,0-2.446,1.098-2.446,2.447
		c0,1.349,1.099,2.447,2.446,2.447c1.35,0,2.447-1.098,2.447-2.447C290.876-259.469,289.778-260.567,288.429-260.567z"/>
</g>
<g id="XMLID_142_">
	<circle id="XMLID_144_" fill="#ECECEC" cx="486.732" cy="-139.24" r="3.352"/>
	<path id="XMLID_143_" fill="#1D1D1B" d="M486.732-134.982c-2.347,0-4.257-1.91-4.257-4.258c0-2.347,1.91-4.256,4.257-4.256
		s4.256,1.909,4.256,4.256C490.988-136.893,489.078-134.982,486.732-134.982z M486.732-141.688c-1.35,0-2.447,1.099-2.447,2.446
		c0,1.351,1.099,2.447,2.447,2.447s2.446-1.099,2.446-2.447C489.179-140.589,488.08-141.688,486.732-141.688z"/>
</g>
<g id="XMLID_137_">
	<g id="XMLID_140_">
		<path id="XMLID_141_" fill="#1D1D1B" d="M315.996-217.687h-4.2c-0.5,0-0.905-0.405-0.905-0.905s0.405-0.905,0.905-0.905h4.2
			c0.499,0,0.903,0.405,0.903,0.905S316.495-217.687,315.996-217.687z"/>
	</g>
	<g id="XMLID_138_">
		<path id="XMLID_139_" fill="#1D1D1B" d="M313.896-215.586c-0.499,0-0.903-0.405-0.903-0.905v-4.2c0-0.5,0.404-0.905,0.903-0.905
			c0.5,0,0.905,0.405,0.905,0.905v4.2C314.801-215.992,314.396-215.586,313.896-215.586z"/>
	</g>
</g>
<g id="XMLID_132_">
	<g id="XMLID_135_">
		<path id="XMLID_136_" fill="#1D1D1B" d="M420.932-213.034h-4.2c-0.5,0-0.905-0.405-0.905-0.905s0.405-0.905,0.905-0.905h4.2
			c0.5,0,0.904,0.405,0.904,0.905S421.432-213.034,420.932-213.034z"/>
	</g>
	<g id="XMLID_133_">
		<path id="XMLID_134_" fill="#1D1D1B" d="M418.83-210.935c-0.499,0-0.903-0.404-0.903-0.904v-4.2c0-0.5,0.404-0.905,0.903-0.905
			c0.5,0,0.905,0.405,0.905,0.905v4.2C419.736-211.339,419.33-210.935,418.83-210.935z"/>
	</g>
</g>
<g id="XMLID_127_">
	<g id="XMLID_130_">
		<path id="XMLID_131_" fill="#1D1D1B" d="M479.938-178.923h-4.2c-0.5,0-0.905-0.404-0.905-0.904s0.405-0.905,0.905-0.905h4.2
			c0.5,0,0.904,0.405,0.904,0.905S480.438-178.923,479.938-178.923z"/>
	</g>
	<g id="XMLID_128_">
		<path id="XMLID_129_" fill="#1D1D1B" d="M477.838-176.822c-0.5,0-0.905-0.405-0.905-0.905v-4.2c0-0.499,0.405-0.904,0.905-0.904
			c0.499,0,0.903,0.405,0.903,0.904v4.2C478.741-177.228,478.337-176.822,477.838-176.822z"/>
	</g>
</g>
<g id="XMLID_122_">
	<g id="XMLID_125_">
		<path id="XMLID_126_" fill="#1D1D1B" d="M236.582-206.802h-4.2c-0.5,0-0.905-0.405-0.905-0.904c0-0.5,0.405-0.905,0.905-0.905h4.2
			c0.5,0,0.904,0.405,0.904,0.905C237.487-207.207,237.082-206.802,236.582-206.802z"/>
	</g>
	<g id="XMLID_123_">
		<path id="XMLID_124_" fill="#1D1D1B" d="M234.482-204.701c-0.5,0-0.904-0.405-0.904-0.905v-4.2c0-0.5,0.404-0.904,0.904-0.904
			s0.905,0.404,0.905,0.904v4.2C235.387-205.106,234.981-204.701,234.482-204.701z"/>
	</g>
</g>
<g id="XMLID_117_">
	<g id="XMLID_120_">
		<path id="XMLID_121_" fill="#1D1D1B" d="M425.746-119.953h-4.199c-0.5,0-0.905-0.404-0.905-0.904s0.405-0.904,0.905-0.904h4.199
			c0.5,0,0.904,0.404,0.904,0.904S426.246-119.953,425.746-119.953z"/>
	</g>
	<g id="XMLID_118_">
		<path id="XMLID_119_" fill="#1D1D1B" d="M423.646-117.854c-0.499,0-0.904-0.404-0.904-0.904v-4.2c0-0.5,0.405-0.905,0.904-0.905
			c0.5,0,0.905,0.405,0.905,0.905v4.2C424.552-118.258,424.146-117.854,423.646-117.854z"/>
	</g>
</g>
<g id="XMLID_112_">
	<g id="XMLID_115_">
		<path id="XMLID_116_" fill="#1D1D1B" d="M198.852-176.308h-4.2c-0.5,0-0.904-0.405-0.904-0.905c0-0.499,0.404-0.904,0.904-0.904
			h4.2c0.5,0,0.905,0.405,0.905,0.904C199.757-176.713,199.352-176.308,198.852-176.308z"/>
	</g>
	<g id="XMLID_113_">
		<path id="XMLID_114_" fill="#1D1D1B" d="M196.752-174.208c-0.5,0-0.905-0.405-0.905-0.904v-4.2c0-0.5,0.405-0.905,0.905-0.905
			s0.905,0.405,0.905,0.905v4.2C197.657-174.613,197.251-174.208,196.752-174.208z"/>
	</g>
</g>
<g id="XMLID_107_">
	<g id="XMLID_110_">
		<path id="XMLID_111_" fill="#1D1D1B" d="M44.254-99.839h-4.2c-0.5,0-0.905-0.404-0.905-0.904s0.405-0.905,0.905-0.905h4.2
			c0.5,0,0.905,0.405,0.905,0.905S44.754-99.839,44.254-99.839z"/>
	</g>
	<g id="XMLID_108_">
		<path id="XMLID_109_" fill="#1D1D1B" d="M42.154-97.738c-0.5,0-0.904-0.404-0.904-0.904v-4.2c0-0.499,0.404-0.904,0.904-0.904
			s0.905,0.405,0.905,0.904v4.2C43.059-98.145,42.654-97.738,42.154-97.738z"/>
	</g>
</g>
<g id="XMLID_102_">
	<g id="XMLID_105_">
		<path id="XMLID_106_" fill="#1D1D1B" d="M156.223-216.782h-4.2c-0.5,0-0.904-0.405-0.904-0.905s0.404-0.905,0.904-0.905h4.2
			c0.5,0,0.905,0.405,0.905,0.905C157.127-217.187,156.722-216.782,156.223-216.782z"/>
	</g>
	<g id="XMLID_103_">
		<path id="XMLID_104_" fill="#1D1D1B" d="M154.123-214.682c-0.5,0-0.905-0.405-0.905-0.905v-4.2c0-0.5,0.405-0.905,0.905-0.905
			s0.904,0.405,0.904,0.905v4.2C155.027-215.087,154.622-214.682,154.123-214.682z"/>
	</g>
</g>
<g id="XMLID_97_">
	<g id="XMLID_100_">
		<path id="XMLID_101_" fill="#1D1D1B" d="M75.344-126.863h-4.2c-0.5,0-0.905-0.404-0.905-0.904s0.405-0.904,0.905-0.904h4.2
			c0.5,0,0.905,0.404,0.905,0.904S75.844-126.863,75.344-126.863z"/>
	</g>
	<g id="XMLID_98_">
		<path id="XMLID_99_" fill="#1D1D1B" d="M73.244-124.764c-0.5,0-0.905-0.404-0.905-0.904v-4.2c0-0.499,0.405-0.903,0.905-0.903
			s0.904,0.404,0.904,0.903v4.2C74.149-125.168,73.744-124.764,73.244-124.764z"/>
	</g>
</g>
<g id="XMLID_95_">
	<path id="XMLID_96_" fill="#1D1D1B" d="M37.66-74.721h-9.049c-0.5,0-0.904-0.404-0.904-0.904s0.404-0.905,0.904-0.905h9.049
		c0.5,0,0.904,0.405,0.904,0.905S38.16-74.721,37.66-74.721z"/>
</g>
<g id="XMLID_93_">
	<path id="XMLID_94_" fill="#1D1D1B" d="M460.579-74.755H438.58c-0.499,0-0.903-0.405-0.903-0.905c0-0.499,0.404-0.904,0.903-0.904
		h21.999c0.5,0,0.905,0.405,0.905,0.904C461.485-75.16,461.079-74.755,460.579-74.755z"/>
</g>
<g id="XMLID_91_">
	<path id="XMLID_92_" fill="#1D1D1B" d="M477.164-74.725h-9.048c-0.5,0-0.904-0.404-0.904-0.904s0.404-0.904,0.904-0.904h9.048
		c0.499,0,0.904,0.404,0.904,0.904S477.663-74.725,477.164-74.725z"/>
</g>
<g id="XMLID_89_">
	<path id="XMLID_90_" fill="#1D1D1B" d="M489.688-74.755h-5.911c-0.499,0-0.904-0.405-0.904-0.905c0-0.499,0.405-0.904,0.904-0.904
		h5.911c0.5,0,0.905,0.405,0.905,0.904C490.593-75.16,490.188-74.755,489.688-74.755z"/>
</g>
<g id="XMLID_86_">
	<line id="XMLID_88_" fill="none" x1="430.379" y1="-99.462" x2="435.926" y2="-99.462"/>
	<path id="XMLID_87_" fill="#1D1D1B" d="M435.926-98.557h-5.547c-0.5,0-0.905-0.405-0.905-0.905c0-0.499,0.405-0.904,0.905-0.904
		h5.547c0.499,0,0.903,0.405,0.903,0.904C436.829-98.962,436.425-98.557,435.926-98.557z"/>
</g>
<g id="XMLID_83_">
	<line id="XMLID_85_" fill="none" x1="444.709" y1="-84.932" x2="444.709" y2="-88.182"/>
	<path id="XMLID_84_" fill="#1D1D1B" d="M444.709-84.025c-0.499,0-0.904-0.406-0.904-0.906v-3.248c0-0.5,0.405-0.905,0.904-0.905
		c0.5,0,0.904,0.405,0.904,0.905v3.248C445.614-84.432,445.209-84.025,444.709-84.025z"/>
</g>
<path id="XMLID_82_" fill="#F14D53" d="M489.688-104.104c0-12.223-13.425-22.131-29.985-22.131c-3.977,0-7.771,0.571-11.245,1.609
	l0,0l-7.304-6.734c-0.966-0.892-2.528-0.192-2.509,1.121c0.063,4.077,0.129,10.288-0.063,10.426l0,0
	c-4.057,2.971-6.968,6.791-8.203,11.068h-4.857c-1.429,0-2.588,1.159-2.588,2.588v4.105c0,1.43,1.159,2.588,2.588,2.588h4.857
	c1.794,6.205,7.108,11.447,14.33,14.529v5.886c0,1.888,1.529,3.418,3.418,3.418h0.66c1.889,0,3.418-1.53,3.418-3.418v-3.62
	c2.396,0.455,4.907,0.697,7.496,0.697c2.59,0,5.102-0.242,7.496-0.697v3.62c0,1.888,1.53,3.418,3.418,3.418h0.661
	c1.888,0,3.418-1.53,3.418-3.418v-5.886C483.656-88.758,489.688-95.91,489.688-104.104z"/>
<path id="XMLID_81_" fill="#1D1D1B" d="M471.277-74.725h-0.661c-2.384,0-4.321-1.938-4.321-4.322v-2.543
	c-4.312,0.697-8.874,0.697-13.185,0v2.543c0,2.384-1.938,4.322-4.322,4.322h-0.66c-2.385,0-4.322-1.938-4.322-4.322v-5.293
	c-7.049-3.155-12.132-8.287-14.093-14.217h-4.19c-1.926,0-3.492-1.566-3.492-3.493v-4.104c0-1.927,1.566-3.492,3.492-3.492h4.19
	c1.332-4.037,4.096-7.709,8.039-10.674c0.044-0.656,0.1-2.815-0.013-9.902c-0.015-0.977,0.529-1.829,1.419-2.229
	c0.893-0.398,1.892-0.234,2.608,0.428l6.929,6.389c3.514-0.998,7.213-1.504,11.007-1.504c17.033,0,30.892,10.335,30.892,23.037
	c0,8.086-5.729,15.613-14.993,19.763v5.293C475.6-76.663,473.66-74.725,471.277-74.725z M467.198-83.572
	c0.209,0,0.414,0.072,0.577,0.208c0.208,0.173,0.328,0.429,0.328,0.697v3.62c0,1.386,1.127,2.514,2.513,2.514h0.661
	c1.386,0,2.513-1.128,2.513-2.514v-5.885c0-0.362,0.218-0.689,0.551-0.832c8.908-3.805,14.442-10.83,14.442-18.34
	c0-11.705-13.046-21.228-29.081-21.228c-3.798,0-7.492,0.529-10.984,1.573c-0.308,0.091-0.639,0.015-0.873-0.202l-7.305-6.735
	c-0.258-0.238-0.534-0.152-0.643-0.104c-0.105,0.047-0.354,0.195-0.349,0.548c0.168,10.735,0.063,10.812-0.438,11.173
	c-3.983,2.918-6.705,6.58-7.863,10.587c-0.111,0.388-0.467,0.653-0.868,0.653h-4.857c-0.928,0-1.683,0.755-1.683,1.683v4.105
	c0,0.929,0.755,1.684,1.683,1.684h4.857c0.401,0,0.757,0.267,0.868,0.653c1.688,5.836,6.724,10.921,13.816,13.949
	c0.333,0.143,0.55,0.47,0.55,0.832v5.885c0,1.386,1.127,2.514,2.514,2.514h0.66c1.387,0,2.514-1.128,2.514-2.514v-3.62
	c0-0.271,0.12-0.524,0.328-0.697c0.208-0.172,0.479-0.241,0.746-0.19c4.759,0.904,9.895,0.904,14.653,0
	C467.086-83.566,467.143-83.572,467.198-83.572z"/>
<g id="XMLID_79_">
	<path id="XMLID_80_" fill="#1D1D1B" d="M474.025-117.773c-0.12,0-0.243-0.023-0.36-0.074c-4.479-1.952-9.617-2.983-14.857-2.983
		c-0.5,0-0.905-0.405-0.905-0.905c0-0.498,0.405-0.904,0.905-0.904c5.486,0,10.874,1.084,15.581,3.135
		c0.458,0.199,0.667,0.732,0.468,1.189C474.706-117.977,474.375-117.773,474.025-117.773z"/>
</g>
<g id="XMLID_77_">
	<path id="XMLID_78_" fill="#1D1D1B" d="M448.297-110.825c-2.621,0-4.754-2.134-4.754-4.755c0-0.5,0.403-0.904,0.903-0.904
		s0.905,0.404,0.905,0.904c0,1.624,1.32,2.945,2.944,2.945s2.944-1.321,2.944-2.945c0-0.5,0.405-0.904,0.905-0.904
		c0.499,0,0.904,0.404,0.904,0.904C453.052-112.959,450.919-110.825,448.297-110.825z"/>
</g>
<g id="XMLID_75_">
	<path id="XMLID_76_" fill="#1D1D1B" d="M493.537-99.839c-2.622,0-4.755-2.134-4.755-4.754c0-0.5,0.405-0.905,0.904-0.905
		c0.5,0,0.905,0.405,0.905,0.905c0,1.624,1.32,2.944,2.944,2.944s2.945-1.32,2.945-2.944c0-0.5,0.405-0.905,0.904-0.905
		c0.5,0,0.904,0.405,0.904,0.905C498.293-101.973,496.159-99.839,493.537-99.839z"/>
</g>
<g id="XMLID_70_">
	<g id="XMLID_73_">
		<path id="XMLID_74_" fill="#F5F5F5" d="M473.722-87.951c-0.527,0-1.028-0.309-1.249-0.824c-0.294-0.688,0.025-1.486,0.716-1.781
			c6.784-2.896,10.998-8.211,10.998-13.868c0-0.749,0.607-1.356,1.357-1.356c0.749,0,1.356,0.607,1.356,1.356
			c0,6.764-4.847,13.034-12.646,16.364C474.079-87.986,473.899-87.951,473.722-87.951z"/>
	</g>
	<g id="XMLID_71_">
		<path id="XMLID_72_" fill="#F5F5F5" d="M433.513-102.163h-6.032c-0.749,0-1.357-0.606-1.357-1.356s0.608-1.357,1.357-1.357h6.032
			c0.75,0,1.356,0.607,1.356,1.357C434.869-102.771,434.263-102.163,433.513-102.163z"/>
	</g>
</g>
<g id="XMLID_65_">
	<g id="XMLID_68_">
		<path id="XMLID_69_" fill="#1D1D1B" d="M469.827-146.697c-0.23,0-0.463-0.088-0.64-0.265l-4.324-4.325
			c-0.354-0.354-0.354-0.926,0-1.279s0.926-0.354,1.279,0l3.685,3.686l3.687-3.686c0.353-0.354,0.927-0.354,1.279,0
			c0.354,0.354,0.354,0.928,0,1.279l-4.325,4.325C470.291-146.785,470.06-146.697,469.827-146.697z"/>
	</g>
	<g id="XMLID_66_">
		<path id="XMLID_67_" fill="#1D1D1B" d="M469.827-146.697c-0.499,0-0.903-0.404-0.903-0.904v-24.353c0-0.5,0.404-0.905,0.903-0.905
			c0.5,0,0.905,0.405,0.905,0.905v24.353C470.733-147.104,470.327-146.697,469.827-146.697z"/>
	</g>
</g>
<g id="XMLID_56_">
	<g id="XMLID_62_">
		<circle id="XMLID_64_" fill="#FBC248" cx="468.116" cy="-132.974" r="9.721"/>
		<path id="XMLID_63_" fill="#1D1D1B" d="M468.116-122.348c-5.858,0-10.626-4.768-10.626-10.627c0-5.857,4.768-10.625,10.626-10.625
			s10.625,4.768,10.625,10.625C478.741-127.114,473.976-122.348,468.116-122.348z M468.116-141.789c-4.86,0-8.815,3.954-8.815,8.814
			c0,4.861,3.955,8.815,8.815,8.815s8.815-3.954,8.815-8.815C476.932-137.835,472.978-141.789,468.116-141.789z"/>
	</g>
	<g id="XMLID_60_">
		<path id="XMLID_61_" fill="#F2D496" d="M468.116-125.211c-4.279,0-7.763-3.482-7.763-7.764c0-4.28,3.482-7.762,7.763-7.762
			c4.279,0,7.763,3.481,7.763,7.762C475.879-128.693,472.396-125.211,468.116-125.211z M468.116-140.283
			c-4.03,0-7.311,3.279-7.311,7.311s3.279,7.311,7.311,7.311c4.03,0,7.311-3.279,7.311-7.311S472.147-140.283,468.116-140.283z"/>
	</g>
	<g id="XMLID_57_">
		<g id="XMLID_58_">
			<path id="XMLID_59_" fill="#F2AD02" d="M467.462-128.246v-0.839c-0.698-0.108-1.357-0.368-1.978-0.774
				c-0.406-0.267-0.471-0.839-0.162-1.214l0,0c0.272-0.331,0.758-0.411,1.108-0.165c0.368,0.26,0.712,0.438,1.03,0.533v-1.711
				c-0.805-0.207-1.395-0.484-1.77-0.833c-0.376-0.349-0.563-0.851-0.563-1.505c0-0.655,0.215-1.195,0.644-1.62
				s0.992-0.68,1.688-0.765v-0.562h1.218v0.586c0.488,0.068,0.976,0.222,1.461,0.462c0.454,0.226,0.616,0.793,0.327,1.209l0,0
				c-0.233,0.336-0.686,0.454-1.044,0.26c-0.26-0.142-0.507-0.244-0.744-0.312v1.654c0.827,0.215,1.438,0.502,1.833,0.86
				c0.394,0.36,0.591,0.869,0.591,1.528s-0.22,1.202-0.66,1.632c-0.439,0.43-1.028,0.686-1.764,0.77v0.805H467.462z
				 M467.462-135.541c-0.329,0.115-0.493,0.326-0.493,0.632c0,0.308,0.164,0.54,0.493,0.701V-135.541z M469.266-131.359
				c0-0.16-0.042-0.295-0.126-0.401c-0.085-0.106-0.237-0.206-0.46-0.3v1.414C469.07-130.77,469.266-131.007,469.266-131.359z"/>
		</g>
	</g>
</g>
<g id="XMLID_54_">
	<path id="XMLID_55_" fill="#F5F5F5" d="M120.358-112.344c-0.75,0-1.356-0.607-1.356-1.357c0-7.777,6.328-14.105,14.105-14.105
		c0.75,0,1.357,0.607,1.357,1.357c0,0.749-0.607,1.356-1.357,1.356c-6.281,0-11.392,5.11-11.392,11.392
		C121.716-112.951,121.108-112.344,120.358-112.344z"/>
</g>
<g id="XMLID_41_">
	<g id="XMLID_51_">
		<path id="XMLID_53_" fill="#12C48B" d="M413.419-75.629h-1.864c-5.648,0-10.229-4.579-10.229-10.229l0,0
			c0-5.647,4.579-10.228,10.229-10.228h1.864c5.648,0,10.229,4.579,10.229,10.228l0,0C423.647-80.208,419.068-75.629,413.419-75.629
			z"/>
		<path id="XMLID_52_" fill="#1D1D1B" d="M416.522-74.725h-8.071c-4.427,0-8.028-3.603-8.028-8.028v-6.207
			c0-4.427,3.603-8.029,8.028-8.029h8.071c4.428,0,8.029,3.604,8.029,8.029v6.207C424.552-78.326,420.949-74.725,416.522-74.725z
			 M408.45-95.18c-3.43,0-6.22,2.789-6.22,6.22v6.207c0,3.43,2.79,6.22,6.22,6.22h8.071c3.43,0,6.22-2.79,6.22-6.22v-6.207
			c0-3.431-2.79-6.22-6.22-6.22H408.45z"/>
	</g>
	<g id="XMLID_47_">
		<g id="XMLID_48_">
			<path id="XMLID_50_" fill="#12C48B" d="M419.817-96.084h-3.079v-5.473c0-2.389-1.94-4.329-4.329-4.329
				c-2.387,0-4.329,1.94-4.329,4.329v5.473H405v-5.473c0-4.086,3.323-7.408,7.408-7.408s7.408,3.322,7.408,7.408V-96.084
				L419.817-96.084z"/>
			<path id="XMLID_49_" fill="#1D1D1B" d="M419.817-95.18h-3.079c-0.499,0-0.903-0.405-0.903-0.904v-5.473
				c0-1.89-1.536-3.426-3.426-3.426c-1.888,0-3.425,1.536-3.425,3.426v5.473c0,0.499-0.404,0.904-0.904,0.904h-3.078
				c-0.499,0-0.904-0.405-0.904-0.904v-5.473c0-4.584,3.729-8.313,8.313-8.313s8.313,3.729,8.313,8.313v5.473
				C420.723-95.585,420.317-95.18,419.817-95.18z M417.644-96.989h1.269v-4.567c0-3.586-2.917-6.502-6.503-6.502
				s-6.503,2.916-6.503,6.502v4.567h1.27v-4.567c0-2.885,2.349-5.233,5.233-5.233c2.886,0,5.234,2.349,5.234,5.233V-96.989
				L417.644-96.989z"/>
		</g>
	</g>
	<g id="XMLID_44_">
		<path id="XMLID_46_" fill="#FBC248" d="M415.314-88.213c0-1.563-1.266-2.827-2.827-2.827c-1.561,0-2.828,1.267-2.828,2.827
			c0,0.855,0.381,1.622,0.981,2.141l-0.379,5.399h4.451l-0.381-5.399C414.934-86.591,415.314-87.357,415.314-88.213z"/>
		<path id="XMLID_45_" fill="#1D1D1B" d="M414.713-79.77h-4.451c-0.251,0-0.491-0.104-0.662-0.287
			c-0.171-0.183-0.259-0.43-0.24-0.68l0.351-4.986c-0.611-0.68-0.954-1.564-0.954-2.49c0-2.059,1.674-3.73,3.731-3.73
			c2.059,0,3.731,1.674,3.731,3.73c0,0.926-0.343,1.811-0.954,2.49l0.351,4.986c0.019,0.25-0.069,0.496-0.24,0.68
			C415.203-79.872,414.963-79.77,414.713-79.77z M411.232-81.578h2.51l-0.312-4.431c-0.021-0.285,0.096-0.563,0.312-0.749
			c0.425-0.366,0.667-0.896,0.667-1.455c0-1.061-0.861-1.922-1.922-1.922s-1.923,0.861-1.923,1.922c0,0.559,0.243,1.089,0.667,1.455
			c0.216,0.188,0.332,0.464,0.313,0.749L411.232-81.578z"/>
	</g>
	<g id="XMLID_42_">
		<path id="XMLID_43_" fill="#F5F5F5" d="M417.214-78.063c-0.749,0-1.357-0.607-1.357-1.356c0-0.75,0.608-1.356,1.357-1.356
			c1.034,0,1.878-0.844,1.878-1.879v-4.361c0-0.75,0.606-1.356,1.356-1.356c0.749,0,1.357,0.606,1.357,1.356v4.361
			C421.807-80.122,419.745-78.063,417.214-78.063z"/>
	</g>
</g>
<g id="XMLID_32_">
	<g id="XMLID_37_">
		<g id="XMLID_38_">
			<path id="XMLID_40_" fill="#FBC248" d="M479.904-218.782L479.904-218.782c0.77,0.769,0.77,2.015,0,2.784l-1.49,1.491
				c-0.604,0.604-0.73,1.519-0.354,2.286c0.188,0.385,0.353,0.779,0.491,1.181c0.276,0.809,1.013,1.366,1.867,1.366h2.104
				c1.088,0,1.969,0.881,1.969,1.969l0,0c0,1.087-0.881,1.968-1.969,1.968h-2.104c-0.854,0-1.591,0.559-1.867,1.366
				c-0.14,0.401-0.303,0.796-0.491,1.181c-0.377,0.767-0.25,1.682,0.354,2.286l1.49,1.49c0.77,0.77,0.77,2.016,0,2.784l0,0
				c-0.769,0.769-2.015,0.769-2.783,0l-1.49-1.491c-0.604-0.604-1.521-0.73-2.285-0.354c-0.386,0.188-0.78,0.353-1.183,0.49
				c-0.808,0.278-1.364,1.014-1.364,1.867v2.106c0,1.087-0.882,1.969-1.97,1.969l0,0c-1.087,0-1.969-0.882-1.969-1.969v-2.106
				c0-0.854-0.558-1.589-1.366-1.867c-0.4-0.138-0.795-0.302-1.181-0.49c-0.767-0.377-1.682-0.25-2.285,0.354l-1.491,1.491
				c-0.769,0.769-2.015,0.769-2.783,0l0,0c-0.77-0.769-0.77-2.015,0-2.784l1.49-1.49c0.604-0.604,0.73-1.52,0.354-2.286
				c-0.189-0.385-0.354-0.779-0.491-1.181c-0.277-0.809-1.013-1.366-1.867-1.366h-2.105c-1.087,0-1.968-0.881-1.968-1.968l0,0
				c0-1.088,0.881-1.969,1.968-1.969h2.105c0.854,0,1.59-0.558,1.867-1.366c0.138-0.401,0.302-0.796,0.491-1.181
				c0.376-0.767,0.249-1.682-0.354-2.286l-1.49-1.491c-0.77-0.769-0.77-2.015,0-2.784l0,0c0.77-0.769,2.016-0.769,2.783,0
				l1.491,1.491c0.604,0.604,1.52,0.73,2.285,0.354c0.386-0.189,0.78-0.353,1.182-0.491c0.809-0.278,1.365-1.013,1.365-1.867v-2.106
				c0-1.087,0.882-1.968,1.969-1.968l0,0c1.088,0,1.97,0.881,1.969,1.968v2.106c0,0.854,0.559,1.59,1.365,1.868
				c0.401,0.138,0.797,0.302,1.183,0.491c0.766,0.376,1.682,0.25,2.285-0.354l1.49-1.491
				C477.89-219.551,479.136-219.551,479.904-218.782z M473.236-212.114c-2.435-2.434-6.381-2.434-8.813,0
				c-2.435,2.434-2.435,6.38,0,8.814c2.434,2.435,6.38,2.435,8.813,0C475.67-205.733,475.67-209.68,473.236-212.114z"/>
			<path id="XMLID_39_" fill="#1D1D1B" d="M468.828-191.139c-1.585,0-2.873-1.288-2.873-2.873v-2.106
				c0-0.456-0.297-0.854-0.756-1.011c-0.438-0.151-0.87-0.331-1.285-0.535c-0.428-0.21-0.929-0.137-1.246,0.182l-1.491,1.491
				c-0.543,0.543-1.266,0.842-2.031,0.842c-0.768,0-1.489-0.299-2.032-0.842c-0.542-0.542-0.842-1.264-0.842-2.031
				s0.299-1.489,0.842-2.032l1.491-1.49c0.318-0.319,0.392-0.82,0.182-1.247c-0.204-0.416-0.384-0.849-0.533-1.286
				c-0.158-0.459-0.556-0.755-1.013-0.755h-2.105c-1.584,0-2.873-1.289-2.873-2.873c0-1.585,1.289-2.874,2.873-2.874h2.105
				c0.457,0,0.854-0.296,1.013-0.755c0.149-0.438,0.329-0.871,0.533-1.286c0.21-0.427,0.138-0.928-0.182-1.247l-1.491-1.491
				c-1.12-1.121-1.12-2.943,0-4.063c1.12-1.121,2.943-1.121,4.063,0l1.491,1.491c0.318,0.318,0.819,0.391,1.246,0.182
				c0.415-0.204,0.849-0.384,1.285-0.534c0.459-0.158,0.756-0.555,0.756-1.012v-2.106c0-1.584,1.288-2.873,2.873-2.873
				c1.584,0,2.873,1.289,2.873,2.873v2.106c0,0.457,0.297,0.854,0.755,1.012c0.437,0.149,0.868,0.329,1.286,0.534
				c0.429,0.21,0.929,0.136,1.247-0.182l1.491-1.491c1.12-1.121,2.943-1.121,4.063,0c1.12,1.12,1.12,2.943,0,4.063l-1.49,1.491
				c-0.319,0.319-0.393,0.82-0.184,1.247c0.205,0.416,0.386,0.848,0.535,1.286c0.157,0.459,0.556,0.755,1.013,0.755h2.104
				c1.585,0,2.874,1.289,2.874,2.874c0,1.584-1.289,2.873-2.874,2.873h-2.104c-0.457,0-0.854,0.296-1.013,0.755
				c-0.149,0.436-0.33,0.868-0.534,1.286c-0.21,0.427-0.138,0.928,0.183,1.247l1.49,1.49c0.543,0.543,0.842,1.265,0.842,2.032
				s-0.299,1.488-0.842,2.031c-1.119,1.12-2.942,1.12-4.063,0l-1.491-1.49c-0.318-0.319-0.818-0.393-1.247-0.183
				c-0.416,0.204-0.849,0.384-1.286,0.534c-0.458,0.158-0.755,0.556-0.755,1.012v2.106
				C471.701-192.427,470.412-191.139,468.828-191.139z M463.409-199.592c0.44,0,0.887,0.099,1.304,0.304
				c0.348,0.171,0.71,0.321,1.075,0.447c1.183,0.406,1.978,1.501,1.978,2.723v2.106c0,0.587,0.477,1.063,1.063,1.063
				s1.063-0.477,1.063-1.063v-2.106c0-1.222,0.794-2.315,1.977-2.723c0.366-0.126,0.729-0.276,1.076-0.447
				c1.122-0.551,2.458-0.34,3.324,0.526l1.491,1.491c0.415,0.414,1.089,0.414,1.504,0c0.201-0.201,0.312-0.468,0.312-0.752
				c0-0.284-0.109-0.552-0.312-0.752l-1.491-1.491c-0.866-0.866-1.077-2.202-0.526-3.324c0.172-0.35,0.322-0.712,0.447-1.076
				c0.407-1.183,1.501-1.977,2.724-1.977h2.105c0.587,0,1.064-0.478,1.064-1.063c0-0.587-0.479-1.064-1.064-1.064h-2.105
				c-1.223,0-2.315-0.794-2.724-1.976c-0.126-0.366-0.276-0.729-0.447-1.077c-0.551-1.122-0.34-2.458,0.526-3.324l1.491-1.491
				c0.415-0.415,0.415-1.089,0-1.504c-0.415-0.414-1.089-0.414-1.504,0l-1.491,1.491c-0.866,0.867-2.201,1.078-3.324,0.526
				c-0.35-0.171-0.711-0.322-1.076-0.447c-1.183-0.407-1.977-1.501-1.977-2.724v-2.106c0-0.586-0.479-1.063-1.063-1.063
				c-0.587,0-1.063,0.477-1.063,1.063v2.106c0,1.222-0.795,2.316-1.978,2.723c-0.365,0.126-0.729,0.276-1.076,0.448
				c-1.122,0.551-2.457,0.339-3.323-0.527l-1.491-1.491c-0.415-0.414-1.09-0.414-1.505,0c-0.414,0.415-0.414,1.09,0,1.504
				l1.491,1.491c0.866,0.866,1.078,2.202,0.526,3.324c-0.171,0.349-0.321,0.71-0.447,1.077c-0.406,1.182-1.5,1.976-2.724,1.976
				h-2.105c-0.586,0-1.063,0.478-1.063,1.064s0.479,1.063,1.063,1.063h2.105c1.223,0,2.316,0.794,2.724,1.977
				c0.126,0.365,0.275,0.728,0.446,1.076c0.553,1.122,0.341,2.458-0.525,3.324l-1.491,1.491c-0.2,0.2-0.313,0.468-0.313,0.752
				c0,0.284,0.111,0.551,0.313,0.752s0.469,0.312,0.753,0.312l0,0c0.284,0,0.551-0.11,0.752-0.312l1.491-1.491
				C461.933-199.307,462.663-199.592,463.409-199.592z M468.828-200.572c-1.827,0-3.654-0.696-5.047-2.088
				c-1.349-1.348-2.091-3.14-2.091-5.046c0-1.907,0.742-3.699,2.091-5.047c2.782-2.783,7.312-2.783,10.095,0l0,0l0,0
				c1.348,1.348,2.09,3.14,2.09,5.047c0,1.906-0.742,3.698-2.09,5.046C472.484-201.269,470.656-200.572,468.828-200.572z
				 M468.828-213.032c-1.363,0-2.729,0.52-3.768,1.558c-1.006,1.006-1.561,2.344-1.561,3.768c0,1.423,0.555,2.761,1.561,3.767
				c2.077,2.077,5.457,2.077,7.534,0c1.007-1.006,1.561-2.344,1.561-3.767c0-1.424-0.554-2.762-1.561-3.768l0,0
				C471.558-212.512,470.193-213.032,468.828-213.032z"/>
		</g>
	</g>
	<g id="XMLID_33_">
		<g id="XMLID_34_">
			<path id="XMLID_36_" fill="#12C48B" d="M456.864-200.396L456.864-200.396c0.752,0.354,1.075,1.25,0.723,2.003l-0.687,1.459
				c-0.278,0.591-0.132,1.282,0.338,1.736c0.235,0.228,0.456,0.469,0.659,0.722c0.409,0.51,1.083,0.72,1.697,0.499l1.516-0.547
				c0.781-0.281,1.646,0.124,1.926,0.905v0.001c0.282,0.781-0.123,1.645-0.904,1.926l-1.517,0.547
				c-0.614,0.221-0.998,0.813-0.987,1.467c0.005,0.324-0.012,0.65-0.048,0.977c-0.071,0.648,0.257,1.274,0.848,1.553l1.46,0.686
				c0.752,0.354,1.075,1.25,0.722,2.003l0,0c-0.354,0.752-1.25,1.075-2.003,0.722l-1.459-0.687
				c-0.591-0.277-1.282-0.131-1.736,0.338c-0.228,0.236-0.469,0.456-0.722,0.66c-0.51,0.409-0.72,1.083-0.499,1.697l0.547,1.515
				c0.281,0.782-0.124,1.646-0.906,1.927l0,0c-0.78,0.282-1.645-0.123-1.926-0.905l-0.547-1.516
				c-0.222-0.614-0.813-0.998-1.467-0.989c-0.324,0.005-0.65-0.01-0.978-0.046c-0.648-0.072-1.273,0.256-1.553,0.847l-0.686,1.46
				c-0.354,0.752-1.25,1.075-2.003,0.722l0,0c-0.752-0.354-1.075-1.251-0.723-2.003l0.687-1.459
				c0.277-0.591,0.132-1.282-0.338-1.736c-0.235-0.228-0.456-0.469-0.659-0.722c-0.409-0.51-1.083-0.721-1.697-0.499l-1.516,0.547
				c-0.781,0.281-1.646-0.124-1.926-0.906l0,0c-0.282-0.782,0.122-1.645,0.904-1.926l1.517-0.547
				c0.613-0.222,0.998-0.813,0.987-1.467c-0.004-0.324,0.012-0.65,0.047-0.977c0.072-0.649-0.256-1.274-0.847-1.553l-1.46-0.686
				c-0.752-0.354-1.075-1.25-0.722-2.003l0,0c0.354-0.752,1.25-1.075,2.003-0.722l1.459,0.686c0.591,0.278,1.282,0.132,1.736-0.338
				c0.228-0.235,0.469-0.456,0.722-0.659c0.51-0.409,0.721-1.083,0.499-1.697l-0.547-1.516c-0.281-0.782,0.124-1.645,0.905-1.926
				l0,0c0.782-0.282,1.646,0.123,1.927,0.905l0.547,1.515c0.221,0.615,0.813,0.999,1.467,0.989c0.324-0.005,0.65,0.011,0.977,0.047
				c0.649,0.072,1.274-0.256,1.554-0.847l0.686-1.46C455.215-200.426,456.111-200.749,456.864-200.396z M453.796-193.869
				c-2.383-1.119-5.222-0.097-6.342,2.286c-1.118,2.382-0.096,5.221,2.286,6.341c2.382,1.119,5.222,0.096,6.341-2.286
				C457.2-189.91,456.178-192.749,453.796-193.869z"/>
			<path id="XMLID_35_" fill="#1D1D1B" d="M455.322-177.294c-0.986,0-1.916-0.611-2.27-1.593l-0.546-1.516
				c-0.088-0.241-0.331-0.402-0.604-0.391c-0.363,0.005-0.729-0.013-1.09-0.053c-0.276-0.031-0.524,0.101-0.634,0.333l-0.687,1.46
				c-0.273,0.582-0.759,1.023-1.363,1.242c-0.605,0.218-1.261,0.188-1.844-0.087c-0.582-0.273-1.022-0.758-1.24-1.363
				c-0.22-0.605-0.188-1.261,0.085-1.843l0.687-1.459c0.109-0.233,0.052-0.508-0.147-0.701c-0.263-0.253-0.511-0.524-0.735-0.806
				c-0.175-0.217-0.443-0.301-0.687-0.214l-1.515,0.546c-1.252,0.45-2.635-0.2-3.085-1.449c-0.218-0.606-0.188-1.261,0.086-1.843
				c0.274-0.583,0.759-1.023,1.364-1.242l1.515-0.546c0.242-0.088,0.396-0.324,0.393-0.603c-0.005-0.363,0.013-0.73,0.053-1.091
				c0.03-0.274-0.101-0.523-0.334-0.633l-1.459-0.687c-0.582-0.273-1.023-0.758-1.242-1.363c-0.218-0.605-0.188-1.26,0.087-1.843
				c0.564-1.202,2.004-1.722,3.206-1.156l1.459,0.687c0.232,0.109,0.508,0.051,0.7-0.148c0.254-0.262,0.525-0.51,0.807-0.735
				c0.218-0.175,0.302-0.443,0.214-0.686l-0.546-1.515c-0.45-1.25,0.199-2.634,1.449-3.085c0.606-0.219,1.261-0.188,1.843,0.086
				c0.583,0.274,1.023,0.759,1.242,1.364l0.546,1.515c0.088,0.242,0.313,0.409,0.604,0.392c0.36-0.005,0.729,0.012,1.09,0.052
				c0.279,0.03,0.523-0.1,0.634-0.333l0.688-1.459c0.272-0.583,0.758-1.023,1.362-1.242c0.605-0.218,1.261-0.188,1.844,0.086
				c1.201,0.565,1.721,2.004,1.155,3.207l-0.687,1.459c-0.109,0.232-0.052,0.508,0.147,0.7c0.262,0.253,0.509,0.524,0.735,0.806
				c0.175,0.218,0.444,0.302,0.686,0.215l1.516-0.546c0.604-0.219,1.261-0.188,1.843,0.086c0.583,0.273,1.023,0.758,1.242,1.363
				c0.218,0.606,0.188,1.261-0.086,1.843c-0.274,0.583-0.759,1.023-1.364,1.242l-1.515,0.546c-0.242,0.088-0.396,0.323-0.393,0.603
				c0.005,0.363-0.013,0.729-0.053,1.09c-0.03,0.275,0.101,0.524,0.334,0.634l1.459,0.686c1.202,0.565,1.721,2.004,1.156,3.206
				c-0.274,0.583-0.759,1.024-1.364,1.242c-0.605,0.219-1.261,0.188-1.843-0.086l-1.459-0.686c-0.233-0.11-0.508-0.052-0.7,0.147
				c-0.254,0.263-0.525,0.51-0.807,0.736c-0.218,0.175-0.302,0.443-0.215,0.686l0.547,1.515c0.219,0.605,0.188,1.26-0.086,1.843
				s-0.759,1.023-1.363,1.242C455.867-177.34,455.593-177.294,455.322-177.294z M451.914-182.603c1.031,0,1.95,0.634,2.295,1.587
				l0.546,1.516c0.111,0.312,0.457,0.473,0.769,0.361c0.151-0.055,0.271-0.165,0.34-0.31c0.068-0.146,0.076-0.309,0.021-0.459
				l-0.546-1.516c-0.349-0.965-0.033-2.054,0.781-2.709c0.224-0.18,0.438-0.375,0.641-0.584c0.727-0.752,1.84-0.965,2.771-0.527
				l1.459,0.686c0.301,0.141,0.658,0.012,0.8-0.288c0.141-0.299,0.012-0.657-0.287-0.799l-1.46-0.686
				c-0.931-0.438-1.479-1.431-1.361-2.471c0.031-0.286,0.046-0.577,0.041-0.864c-0.016-1.046,0.622-1.983,1.587-2.331l1.516-0.546
				c0.313-0.112,0.475-0.457,0.361-0.769c-0.055-0.151-0.164-0.271-0.31-0.34c-0.146-0.068-0.31-0.076-0.459-0.021l-1.517,0.546
				c-0.965,0.349-2.054,0.033-2.709-0.782c-0.18-0.224-0.376-0.438-0.584-0.64c-0.752-0.728-0.965-1.841-0.526-2.771l0.687-1.46
				c0.141-0.299,0.011-0.657-0.288-0.799h-0.001c-0.145-0.067-0.307-0.075-0.459-0.021c-0.15,0.054-0.271,0.164-0.339,0.309
				l-0.688,1.459c-0.438,0.931-1.429,1.477-2.471,1.362c-0.286-0.032-0.58-0.048-0.864-0.041c-0.013,0-0.024,0-0.037,0
				c-1.03,0-1.949-0.634-2.294-1.587l-0.546-1.516c-0.055-0.15-0.165-0.271-0.31-0.34c-0.146-0.069-0.31-0.076-0.459-0.021
				c-0.313,0.112-0.475,0.457-0.361,0.769l0.546,1.516c0.349,0.965,0.033,2.054-0.782,2.709c-0.223,0.179-0.438,0.375-0.639,0.584
				c-0.729,0.752-1.842,0.964-2.771,0.527l-1.46-0.687c-0.301-0.14-0.657-0.012-0.799,0.288c-0.142,0.3-0.012,0.658,0.287,0.799
				l1.46,0.687c0.931,0.438,1.479,1.431,1.361,2.471c-0.031,0.286-0.045,0.576-0.041,0.864c0.016,1.046-0.622,1.983-1.587,2.331
				l-1.516,0.546c-0.313,0.112-0.475,0.457-0.361,0.769c0.055,0.151,0.165,0.271,0.31,0.34c0.146,0.067,0.309,0.075,0.459,0.021
				l1.517-0.546c0.965-0.349,2.053-0.033,2.709,0.782c0.18,0.223,0.375,0.438,0.584,0.639c0.752,0.728,0.965,1.842,0.527,2.771
				l-0.687,1.459c-0.142,0.3-0.012,0.658,0.287,0.799c0.299,0.141,0.658,0.012,0.799-0.287l0.688-1.46
				c0.437-0.93,1.43-1.478,2.471-1.361c0.286,0.031,0.576,0.047,0.864,0.041C451.891-182.603,451.903-182.603,451.914-182.603z
				 M451.765-183.882c-0.822,0-1.643-0.182-2.408-0.542c-2.83-1.33-4.05-4.715-2.72-7.544c0.645-1.371,1.783-2.409,3.209-2.923
				c1.425-0.514,2.965-0.441,4.335,0.203c1.371,0.644,2.409,1.783,2.923,3.209c0.514,1.425,0.441,2.964-0.203,4.335
				c-0.644,1.371-1.784,2.409-3.209,2.923C453.063-183.995,452.412-183.882,451.765-183.882z M451.771-193.419
				c-0.442,0-0.885,0.076-1.313,0.23c-0.97,0.351-1.745,1.057-2.185,1.99c-0.906,1.927-0.075,4.23,1.853,5.137
				c0.934,0.438,1.98,0.488,2.951,0.138c0.971-0.35,1.746-1.056,2.186-1.989c0.438-0.933,0.486-1.982,0.138-2.952
				c-0.349-0.97-1.056-1.746-1.989-2.185C452.89-193.296,452.33-193.419,451.771-193.419z"/>
		</g>
	</g>
</g>
<g id="XMLID_30_">
	<path id="XMLID_31_" fill="#1D1D1B" d="M344.32-61.719H217.87c-0.5,0-0.905-0.405-0.905-0.905c0-0.499,0.405-0.903,0.905-0.903
		H344.32c0.499,0,0.904,0.404,0.904,0.903C345.225-62.124,344.819-61.719,344.32-61.719z"/>
</g>
<g id="XMLID_28_">
	<path id="XMLID_29_" fill="#1D1D1B" d="M375.439-61.719h-24.063c-0.5,0-0.905-0.405-0.905-0.905c0-0.499,0.405-0.903,0.905-0.903
		h24.063c0.499,0,0.904,0.404,0.904,0.903C376.344-62.124,375.938-61.719,375.439-61.719z"/>
</g>
<g id="XMLID_26_">
	<path id="XMLID_27_" fill="#1D1D1B" d="M401.978-61.719h-18.028c-0.5,0-0.904-0.405-0.904-0.905c0-0.499,0.404-0.903,0.904-0.903
		h18.028c0.499,0,0.904,0.404,0.904,0.903C402.882-62.124,402.477-61.719,401.978-61.719z"/>
</g>
<g id="XMLID_24_">
	<path id="XMLID_25_" fill="#1D1D1B" d="M414.824-61.719h-4.67c-0.5,0-0.904-0.405-0.904-0.905c0-0.499,0.404-0.903,0.904-0.903
		h4.67c0.5,0,0.905,0.404,0.905,0.903C415.73-62.124,415.324-61.719,414.824-61.719z"/>
</g>
<g id="XMLID_22_">
	<path id="XMLID_23_" fill="#1D1D1B" d="M234.482-68.505h-69.326c-0.5,0-0.904-0.405-0.904-0.904c0-0.5,0.404-0.905,0.904-0.905
		h69.326c0.5,0,0.905,0.405,0.905,0.905C235.387-68.91,234.981-68.505,234.482-68.505z"/>
</g>
<g id="XMLID_20_">
	<path id="XMLID_21_" fill="#1D1D1B" d="M116.314-61.719H80.238c-0.5,0-0.904-0.405-0.904-0.905c0-0.499,0.404-0.903,0.904-0.903
		h36.076c0.5,0,0.905,0.404,0.905,0.903C117.219-62.124,116.813-61.719,116.314-61.719z"/>
</g>
<g id="XMLID_18_">
	<path id="XMLID_19_" fill="#1D1D1B" d="M145.399-61.719h-15.602c-0.5,0-0.905-0.405-0.905-0.905c0-0.499,0.405-0.903,0.905-0.903
		h15.602c0.5,0,0.905,0.404,0.905,0.903C146.304-62.124,145.899-61.719,145.399-61.719z"/>
</g>
<g id="XMLID_16_">
	<path id="XMLID_17_" fill="#1D1D1B" d="M435.926-68.505H375.44c-0.5,0-0.905-0.405-0.905-0.904c0-0.5,0.405-0.905,0.905-0.905
		h60.486c0.499,0,0.903,0.405,0.903,0.905C436.829-68.91,436.425-68.505,435.926-68.505z"/>
</g>
<g id="XMLID_14_">
	<path id="XMLID_15_" fill="#1D1D1B" d="M467.462-68.505h-9.065c-0.5,0-0.905-0.405-0.905-0.904c0-0.5,0.405-0.905,0.905-0.905
		h9.065c0.5,0,0.904,0.405,0.904,0.905C468.366-68.91,467.962-68.505,467.462-68.505z"/>
</g>
<g id="XMLID_12_">
	<path id="XMLID_13_" fill="#1D1D1B" d="M100.735-68.505H64.673c-0.5,0-0.905-0.405-0.905-0.904c0-0.5,0.405-0.905,0.905-0.905
		h36.062c0.5,0,0.905,0.405,0.905,0.905C101.64-68.91,101.234-68.505,100.735-68.505z"/>
</g>
<g id="XMLID_1_">
	<g id="XMLID_7_">
		<g id="XMLID_10_">
			<path id="XMLID_11_" fill="#1D1D1B" d="M353.097-190.72c0-0.231,0.089-0.464,0.265-0.64c0.354-0.354,0.927-0.354,1.28,0
				l4.324,4.324c0.17,0.17,0.266,0.4,0.266,0.64l0,0c0,0.24-0.096,0.471-0.266,0.64l-4.324,4.325c-0.354,0.354-0.927,0.354-1.28,0
				c-0.353-0.353-0.353-0.927,0-1.279l3.687-3.686l-3.687-3.685C353.186-190.257,353.097-190.488,353.097-190.72z"/>
		</g>
		<g id="XMLID_8_">
			<path id="XMLID_9_" fill="#1D1D1B" d="M333.069-186.396c0-0.499,0.405-0.904,0.904-0.904h24.353c0.5,0,0.905,0.405,0.905,0.904
				c0,0.5-0.405,0.905-0.905,0.905h-24.353C333.475-185.49,333.069-185.896,333.069-186.396z"/>
		</g>
	</g>
	<g id="XMLID_2_">
		<g id="XMLID_5_">
			<path id="XMLID_6_" fill="#1D1D1B" d="M334.369-176.635c0-0.24,0.096-0.47,0.266-0.64l4.325-4.325
				c0.354-0.353,0.926-0.353,1.278,0c0.354,0.354,0.354,0.927,0,1.28l-3.685,3.685l3.685,3.686c0.354,0.353,0.354,0.926,0,1.279
				c-0.354,0.353-0.926,0.354-1.278,0l-4.325-4.325C334.465-176.165,334.369-176.395,334.369-176.635z"/>
		</g>
		<g id="XMLID_3_">
			<path id="XMLID_4_" fill="#1D1D1B" d="M334.369-176.635c0-0.5,0.405-0.904,0.904-0.904h24.354c0.5,0,0.904,0.404,0.904,0.904
				s-0.404,0.905-0.904,0.905h-24.354C334.775-175.729,334.369-176.135,334.369-176.635z"/>
		</g>
	</g>
</g>
</svg>
