<?xml version="1.0" encoding="utf-8"?>
<!-- Generator: Adobe Illustrator 16.0.0, SVG Export Plug-In . SVG Version: 6.00 Build 0)  -->
<!DOCTYPE svg PUBLIC "-//W3C//DTD SVG 1.1//EN" "http://www.w3.org/Graphics/SVG/1.1/DTD/svg11.dtd">
<svg version="1.1" id="Layer_1" xmlns="http://www.w3.org/2000/svg" xmlns:xlink="http://www.w3.org/1999/xlink" x="0px" y="0px"
	 width="500px" height="225px" viewBox="0 0 500 225" enable-background="new 0 0 500 225" xml:space="preserve">
<g id="XMLID_4685_">
	<g id="XMLID_4687_">
		<path id="XMLID_5000_" fill="#1D1D1B" d="M45.016,136.201c-0.24,0-0.47-0.096-0.64-0.266l-4.325-4.324
			c-0.354-0.354-0.354-0.926,0-1.279c0.353-0.354,0.927-0.354,1.279,0l3.686,3.686l3.687-3.686c0.353-0.354,0.926-0.354,1.278,0
			c0.354,0.354,0.354,0.926,0,1.279l-4.325,4.324C45.485,136.105,45.255,136.201,45.016,136.201z"/>
	</g>
	<g id="XMLID_4686_">
		<path id="XMLID_4999_" fill="#1D1D1B" d="M45.016,136.201c-0.5,0-0.905-0.405-0.905-0.904v-24.353c0-0.5,0.405-0.905,0.905-0.905
			s0.905,0.405,0.905,0.905v24.353C45.92,135.796,45.515,136.201,45.016,136.201z"/>
	</g>
</g>
<g id="XMLID_4665_">
	<g id="XMLID_4667_">
		<g id="XMLID_4672_">
			<g id="XMLID_4681_">
				<g id="XMLID_4684_">
					<path id="XMLID_5669_" fill="#39546A" d="M77.092,160.548l-1.261-8.233c-0.14-0.898,0.558-1.711,1.468-1.711h6.369
						c0.91,0,1.604,0.813,1.468,1.711l-1.261,8.233H77.092z"/>
				</g>
				<g id="XMLID_4683_">
					<path id="XMLID_5667_" fill="#FBC248" d="M84.076,159.432h-7.155l-0.434-3.015l0,0c2.635-0.556,5.354-0.558,7.987-0.006
						l0.031,0.006L84.076,159.432z"/>
				</g>
				<g id="XMLID_4682_">
					<path id="XMLID_5665_" fill="#39546A" d="M101.184,199.109v-19.483c0-11.433-9.268-20.701-20.701-20.701l0,0
						c-11.433,0-20.699,9.269-20.699,20.701v17.353c0,1.179-0.954,2.131-2.133,2.131h-1.015c-1.177,0-2.131,0.955-2.131,2.133l0,0
						c0,1.177,0.954,2.131,2.131,2.131h47.694c1.177,0,2.131-0.954,2.131-2.131l0,0c0-1.178-0.954-2.133-2.131-2.133H101.184
						L101.184,199.109z"/>
				</g>
			</g>
			<g id="XMLID_4673_">
				<g id="XMLID_4680_">
					<circle id="XMLID_5662_" fill="#FBC248" cx="80.482" cy="179.115" r="7.935"/>
				</g>
				<g id="XMLID_4679_">
					<path id="XMLID_4996_" fill="#FBC248" d="M80.483,189.598c-5.777,0-10.479-4.703-10.479-10.48
						c0-5.779,4.702-10.481,10.479-10.481c5.779,0,10.481,4.702,10.481,10.481C90.964,184.895,86.262,189.598,80.483,189.598z
						 M80.483,169.991c-5.029,0-9.125,4.093-9.125,9.124s4.095,9.124,9.125,9.124c5.032,0,9.124-4.093,9.124-9.124
						S85.514,169.991,80.483,169.991z"/>
				</g>
				<g id="XMLID_4674_">
					<g id="XMLID_4675_">
						<path id="XMLID_5653_" fill="#F5F5F5" d="M79.941,184.482v-0.951c-0.794-0.125-1.542-0.418-2.246-0.879
							c-0.461-0.303-0.532-0.953-0.184-1.379l0,0c0.309-0.377,0.86-0.469,1.258-0.188c0.418,0.295,0.811,0.497,1.171,0.606v-1.944
							c-0.914-0.233-1.583-0.55-2.009-0.945c-0.426-0.395-0.639-0.966-0.639-1.709s0.243-1.356,0.729-1.84
							c0.487-0.481,1.126-0.771,1.918-0.867v-0.64h1.384v0.666c0.555,0.077,1.106,0.252,1.657,0.523
							c0.518,0.256,0.7,0.899,0.372,1.373l0,0c-0.265,0.381-0.775,0.517-1.185,0.295c-0.294-0.16-0.576-0.277-0.846-0.354v1.879
							c0.938,0.243,1.633,0.569,2.08,0.979c0.448,0.408,0.674,0.985,0.674,1.733s-0.25,1.366-0.75,1.854
							c-0.5,0.486-1.167,0.777-2.003,0.873v0.914H79.941L79.941,184.482z M79.941,176.2c-0.375,0.13-0.561,0.368-0.561,0.717
							s0.187,0.613,0.561,0.796V176.2z M81.989,180.948c0-0.183-0.048-0.334-0.144-0.456s-0.27-0.235-0.521-0.34v1.604
							C81.767,181.618,81.989,181.35,81.989,180.948z"/>
					</g>
				</g>
			</g>
		</g>
		<g id="XMLID_4671_">
			<path id="XMLID_4995_" fill="#F5F5F5" d="M65.164,185.841c-0.749,0-1.357-0.606-1.357-1.356v-6.055
				c0-8.586,6.986-15.572,15.573-15.572c0.75,0,1.355,0.608,1.355,1.357c0,0.75-0.605,1.357-1.355,1.357
				c-7.09,0-12.858,5.768-12.858,12.855v6.055C66.521,185.232,65.914,185.841,65.164,185.841z"/>
		</g>
		<g id="XMLID_4670_">
			<path id="XMLID_4994_" fill="#F5F5F5" d="M65.164,193.709c-0.749,0-1.357-0.607-1.357-1.357v-3.434
				c0-0.749,0.608-1.355,1.357-1.355c0.75,0,1.355,0.606,1.355,1.355v3.434C66.521,193.102,65.914,193.709,65.164,193.709z"/>
		</g>
		<g id="XMLID_4669_">
			<path id="XMLID_4993_" fill="#F5F5F5" d="M86.011,200.406h-1.716c-0.75,0-1.357-0.607-1.357-1.357
				c0-0.749,0.608-1.357,1.357-1.357h1.716c0.75,0,1.357,0.608,1.357,1.357C87.368,199.799,86.76,200.406,86.011,200.406z"/>
		</g>
		<g id="XMLID_4668_">
			<path id="XMLID_4992_" fill="#F5F5F5" d="M97.891,200.406h-8.22c-0.75,0-1.357-0.607-1.357-1.357
				c0-0.749,0.608-1.357,1.357-1.357h8.22c0.75,0,1.357,0.608,1.357,1.357C99.248,199.799,98.64,200.406,97.891,200.406z"/>
		</g>
	</g>
	<g id="XMLID_4666_">
		<path id="XMLID_4989_" fill="#1D1D1B" d="M104.345,204.245H56.651c-1.674,0-3.034-1.362-3.034-3.036s1.36-3.035,3.034-3.035h1.017
			c0.676,0,1.226-0.551,1.226-1.227v-17.354c0-10.22,7.093-18.958,16.989-21.104l-0.93-6.07c-0.105-0.688,0.094-1.392,0.549-1.919
			s1.116-0.833,1.813-0.833h6.369c0.698,0,1.359,0.306,1.813,0.833s0.653,1.229,0.549,1.919l-0.905,6.075
			c9.882,2.156,16.964,10.894,16.964,21.1v18.579h2.241c1.674,0,3.036,1.361,3.036,3.035S106.019,204.245,104.345,204.245z
			 M56.651,199.982c-0.676,0-1.226,0.551-1.226,1.227c0,0.677,0.55,1.227,1.226,1.227h47.694c0.676,0,1.226-0.55,1.226-1.227
			c0-0.676-0.55-1.227-1.226-1.227h-3.146c-0.5,0-0.905-0.404-0.905-0.904v-19.483c0-9.622-6.87-17.817-16.334-19.487
			c-0.482-0.086-0.812-0.539-0.738-1.023l1.033-6.934c0.036-0.232-0.068-0.395-0.133-0.471c-0.065-0.074-0.208-0.201-0.44-0.201
			h-6.369c-0.23,0-0.375,0.127-0.438,0.201c-0.065,0.076-0.168,0.236-0.135,0.467l1.063,6.929c0.074,0.485-0.254,0.942-0.739,1.026
			c-9.479,1.659-16.359,9.857-16.359,19.493v17.354c0,1.674-1.362,3.035-3.036,3.035h-1.016L56.651,199.982L56.651,199.982z"/>
	</g>
</g>
<g id="XMLID_4637_">
	<g id="XMLID_4661_">
		<g id="XMLID_4664_">
			<rect id="XMLID_4984_" x="333.801" y="119.223" fill="#ECECEC" width="64.653" height="84.148"/>
			<path id="XMLID_4985_" fill="#1D1D1B" d="M398.454,204.275h-64.653c-0.5,0-0.905-0.404-0.905-0.904v-84.148
				c0-0.5,0.405-0.904,0.905-0.904h64.653c0.499,0,0.904,0.404,0.904,0.904v84.148C399.36,203.871,398.953,204.275,398.454,204.275z
				 M334.703,202.467h62.848v-82.34h-62.848V202.467L334.703,202.467z"/>
		</g>
		<g id="XMLID_4663_">
			<path id="XMLID_4980_" fill="#FBC248" d="M372.949,112.399v-1.462c0-4.038-3.271-7.311-7.311-7.311l0,0
				c-4.037,0-7.313,3.272-7.313,7.311v1.462h-10.232c-4.037,0-7.312,3.272-7.312,7.31v4.063h49.709v-4.063
				c0-4.037-3.271-7.31-7.31-7.31H372.949z"/>
			<path id="XMLID_4981_" fill="#1D1D1B" d="M390.493,124.676h-49.709c-0.5,0-0.903-0.404-0.903-0.904v-4.063
				c0-4.529,3.686-8.215,8.215-8.215h9.33v-0.557c0-4.53,3.686-8.216,8.215-8.216c4.53,0,8.215,3.686,8.215,8.216v0.557h9.33
				c4.529,0,8.215,3.686,8.215,8.215v4.063C391.4,124.271,390.993,124.676,390.493,124.676z M341.69,122.865h47.9v-3.156
				c0-3.531-2.874-6.404-6.405-6.404h-10.235c-0.5,0-0.903-0.406-0.903-0.905v-1.462c0-3.532-2.873-6.406-6.405-6.406
				s-6.405,2.874-6.405,6.406v1.462c0,0.499-0.405,0.905-0.905,0.905h-10.232c-3.531,0-6.405,2.873-6.405,6.404v3.156H341.69z"/>
		</g>
		<g id="XMLID_4662_">
			<circle id="XMLID_5624_" fill="#1D1D1B" cx="365.641" cy="110.504" r="2.491"/>
		</g>
	</g>
	<g id="XMLID_4639_">
		<g id="XMLID_4654_">
			<g id="XMLID_4660_">
				<rect id="XMLID_4963_" x="382.118" y="139.365" fill="#EE7D6D" width="6.281" height="6.281"/>
				<path id="XMLID_4977_" fill="#1D1D1B" d="M388.401,146.552h-6.281c-0.5,0-0.903-0.405-0.903-0.905v-6.279
					c0-0.5,0.403-0.904,0.903-0.904h6.281c0.5,0,0.905,0.404,0.905,0.904v6.279C389.307,146.146,388.901,146.552,388.401,146.552z
					 M383.024,144.742h4.472v-4.473h-4.472V144.742z"/>
			</g>
			<g id="XMLID_4655_">
				<g id="XMLID_4658_">
					<g id="XMLID_4659_">
						<path id="XMLID_4976_" fill="#1D1D1B" d="M374.073,140.805h-30.218c-0.5,0-0.905-0.406-0.905-0.906
							c0-0.498,0.405-0.902,0.905-0.902h30.218c0.5,0,0.905,0.404,0.905,0.902C374.979,140.398,374.573,140.805,374.073,140.805z"/>
					</g>
				</g>
				<g id="XMLID_4656_">
					<g id="XMLID_4657_">
						<path id="XMLID_4975_" fill="#1D1D1B" d="M374.073,146.02h-30.218c-0.5,0-0.905-0.404-0.905-0.904
							c0-0.499,0.405-0.904,0.905-0.904h30.218c0.5,0,0.905,0.405,0.905,0.904C374.979,145.613,374.573,146.02,374.073,146.02z"/>
					</g>
				</g>
			</g>
		</g>
		<g id="XMLID_4647_">
			<g id="XMLID_4653_">
				<path id="XMLID_4972_" fill="#1D1D1B" d="M388.978,164.795h-6.282c-0.499,0-0.904-0.404-0.904-0.904v-6.281
					c0-0.5,0.405-0.904,0.904-0.904h6.282c0.499,0,0.904,0.404,0.904,0.904v6.281C389.882,164.391,389.477,164.795,388.978,164.795z
					 M383.601,162.984h4.472v-4.471h-4.472V162.984z"/>
			</g>
			<g id="XMLID_4648_">
				<g id="XMLID_4651_">
					<g id="XMLID_4652_">
						<path id="XMLID_4971_" fill="#1D1D1B" d="M373.496,159.047h-30.219c-0.5,0-0.905-0.404-0.905-0.904s0.405-0.903,0.905-0.903
							h30.219c0.499,0,0.904,0.403,0.904,0.903S373.995,159.047,373.496,159.047z"/>
					</g>
				</g>
				<g id="XMLID_4649_">
					<g id="XMLID_4650_">
						<path id="XMLID_4970_" fill="#1D1D1B" d="M373.496,164.262h-30.219c-0.5,0-0.905-0.404-0.905-0.904s0.405-0.903,0.905-0.903
							h30.219c0.499,0,0.904,0.403,0.904,0.903S373.995,164.262,373.496,164.262z"/>
					</g>
				</g>
			</g>
		</g>
		<g id="XMLID_4640_">
			<g id="XMLID_4646_">
				<path id="XMLID_4967_" fill="#1D1D1B" d="M388.978,183.038h-6.282c-0.499,0-0.904-0.405-0.904-0.905v-6.281
					c0-0.5,0.405-0.902,0.904-0.902h6.282c0.499,0,0.904,0.402,0.904,0.902v6.281C389.882,182.633,389.477,183.038,388.978,183.038z
					 M383.601,181.229h4.472v-4.472h-4.472V181.229z"/>
			</g>
			<g id="XMLID_4641_">
				<g id="XMLID_4644_">
					<g id="XMLID_4645_">
						<path id="XMLID_4966_" fill="#1D1D1B" d="M373.496,177.29h-30.219c-0.5,0-0.905-0.405-0.905-0.905
							c0-0.499,0.405-0.904,0.905-0.904h30.219c0.499,0,0.904,0.405,0.904,0.904C374.402,176.885,373.995,177.29,373.496,177.29z"/>
					</g>
				</g>
				<g id="XMLID_4642_">
					<g id="XMLID_4643_">
						<path id="XMLID_4965_" fill="#1D1D1B" d="M373.496,182.505h-30.219c-0.5,0-0.905-0.405-0.905-0.905s0.405-0.904,0.905-0.904
							h30.219c0.499,0,0.904,0.404,0.904,0.904S373.995,182.505,373.496,182.505z"/>
					</g>
				</g>
			</g>
		</g>
	</g>
	<g id="XMLID_4638_">
		<path id="XMLID_4964_" fill="#F5F5F5" d="M362.439,120.579h-17.265c-0.749,0-1.356-0.606-1.356-1.356s0.607-1.355,1.356-1.355
			h17.265c0.749,0,1.357,0.605,1.357,1.355C363.797,119.973,363.188,120.579,362.439,120.579z"/>
	</g>
</g>
<path id="XMLID_4957_" fill="#12C48B" d="M172.085,193.313H98.782c-4.119,0-7.458-3.34-7.458-7.457v-73.304
	c0-4.119,3.339-7.458,7.458-7.458h73.303c4.119,0,7.458,3.339,7.458,7.458v73.304C179.542,189.973,176.204,193.313,172.085,193.313z
	"/>
<path id="XMLID_4958_" fill="#1D1D1B" d="M171.852,194.217H99.015c-4.74,0-8.596-3.855-8.596-8.596v-72.837
	c0-4.739,3.854-8.596,8.596-8.596h72.837c4.739,0,8.596,3.856,8.596,8.596v72.837C180.448,190.359,176.591,194.217,171.852,194.217z
	 M99.015,105.998c-3.742,0-6.786,3.045-6.786,6.786v72.837c0,3.742,3.044,6.786,6.786,6.786h72.837c3.742,0,6.786-3.044,6.786-6.786
	v-72.837c0-3.741-3.044-6.786-6.786-6.786H99.015z"/>
<g id="XMLID_4635_">
	<path id="XMLID_4953_" fill="#364558" d="M168.115,141.484h-19.221c-1.563,0-2.832-1.271-2.832-2.832l0,0
		c0-1.563,1.27-2.832,2.832-2.832h19.221c1.563,0,2.83,1.269,2.83,2.832l0,0C170.947,140.216,169.679,141.484,168.115,141.484z"/>
	<path id="XMLID_4954_" fill="#1D1D1B" d="M168.115,142.389h-19.221c-2.06,0-3.734-1.676-3.734-3.736
		c0-2.06,1.676-3.734,3.734-3.734h19.219c2.063,0,3.737,1.676,3.737,3.734C171.852,140.713,170.176,142.389,168.115,142.389z
		 M148.896,136.727c-1.063,0-1.927,0.863-1.927,1.926c0,1.063,0.864,1.929,1.927,1.929h19.219c1.063,0,1.929-0.864,1.929-1.929
		c0-1.063-0.865-1.926-1.929-1.926H148.896z"/>
</g>
<g id="XMLID_4634_">
	<path id="XMLID_4949_" fill="#364558" d="M168.115,152.034h-19.221c-1.563,0-2.832-1.269-2.832-2.831l0,0
		c0-1.564,1.27-2.832,2.832-2.832h19.221c1.563,0,2.83,1.268,2.83,2.832l0,0C170.947,150.768,169.679,152.034,168.115,152.034z"/>
	<path id="XMLID_4950_" fill="#1D1D1B" d="M168.115,152.939h-19.221c-2.06,0-3.734-1.676-3.734-3.736s1.676-3.737,3.734-3.737
		h19.219c2.063,0,3.737,1.677,3.737,3.737S170.176,152.939,168.115,152.939z M148.896,147.275c-1.063,0-1.927,0.865-1.927,1.928
		s0.864,1.927,1.927,1.927h19.219c1.063,0,1.929-0.864,1.929-1.927s-0.865-1.928-1.929-1.928H148.896z"/>
</g>
<g id="XMLID_4633_">
	<path id="XMLID_4945_" fill="#364558" d="M168.115,162.585h-19.221c-1.563,0-2.832-1.269-2.832-2.832l0,0
		c0-1.563,1.27-2.831,2.832-2.831h19.221c1.563,0,2.83,1.268,2.83,2.831l0,0C170.947,161.316,169.679,162.585,168.115,162.585z"/>
	<path id="XMLID_4946_" fill="#1D1D1B" d="M168.115,163.49h-19.221c-2.06,0-3.734-1.678-3.734-3.737s1.676-3.735,3.734-3.735h19.219
		c2.063,0,3.737,1.676,3.737,3.735S170.176,163.49,168.115,163.49z M148.896,157.826c-1.063,0-1.927,0.863-1.927,1.927
		s0.864,1.929,1.927,1.929h19.219c1.063,0,1.929-0.865,1.929-1.929s-0.865-1.927-1.929-1.927H148.896z"/>
</g>
<g id="XMLID_4632_">
	<circle id="XMLID_4937_" fill="#FBC248" cx="119.374" cy="165.263" r="16.06"/>
	<path id="XMLID_4942_" fill="#1D1D1B" d="M119.374,182.229c-9.354,0-16.964-7.609-16.964-16.965
		c0-9.354,7.608-16.966,16.964-16.966c9.354,0,16.965,7.61,16.965,16.966C136.339,174.618,128.728,182.229,119.374,182.229z
		 M119.374,150.107c-8.356,0-15.155,6.799-15.155,15.153c0,8.356,6.798,15.155,15.155,15.155c8.355,0,15.153-6.799,15.153-15.155
		C134.529,156.906,127.73,150.107,119.374,150.107z"/>
</g>
<g id="XMLID_4631_">
	<path id="XMLID_4939_" fill="#1D1D1B" d="M119.374,174.077c-4.86,0-8.814-3.954-8.814-8.813c0-4.861,3.954-8.813,8.814-8.813
		c4.858,0,8.813,3.952,8.813,8.813C128.188,170.123,124.234,174.077,119.374,174.077z M119.374,158.258
		c-3.862,0-7.005,3.143-7.005,7.006c0,3.861,3.143,7.004,7.005,7.004c3.861,0,7.005-3.143,7.005-7.004
		C126.379,161.4,123.236,158.258,119.374,158.258z"/>
</g>
<g id="XMLID_4630_">
	<path id="XMLID_4938_" fill="#1D1D1B" d="M91.324,148.717c-0.5,0-0.905-0.404-0.905-0.904s0.405-0.903,0.905-0.903
		c3.241,0,5.881-2.64,5.881-5.882v-17.084c0-3.24-2.64-5.881-5.881-5.881c-0.5,0-0.905-0.403-0.905-0.903
		c0-0.499,0.405-0.904,0.905-0.904c4.239,0,7.689,3.45,7.689,7.688v17.084C99.015,145.268,95.565,148.717,91.324,148.717z"/>
</g>
<g id="XMLID_4626_">
	<g id="XMLID_4628_">
		<path id="XMLID_4933_" fill="#364558" d="M107.837,200.551L107.837,200.551c-2.25,0-4.075-1.824-4.075-4.074v-3.164h8.15v3.164
			C111.913,198.727,110.088,200.551,107.837,200.551z"/>
		<path id="XMLID_4934_" fill="#1D1D1B" d="M107.837,201.455c-2.746,0-4.98-2.232-4.98-4.979v-3.164c0-0.5,0.405-0.904,0.905-0.904
			h8.15c0.5,0,0.903,0.404,0.903,0.904v3.164C112.817,199.223,110.583,201.455,107.837,201.455z M104.667,194.217v2.26
			c0,1.748,1.422,3.17,3.17,3.17s3.17-1.422,3.17-3.17v-2.26H104.667z"/>
	</g>
	<g id="XMLID_4627_">
		<path id="XMLID_4894_" fill="#364558" d="M163.029,200.551L163.029,200.551c-2.25,0-4.073-1.824-4.073-4.074v-3.164h8.148v3.164
			C167.104,198.727,165.28,200.551,163.029,200.551z"/>
		<path id="XMLID_4930_" fill="#1D1D1B" d="M163.029,201.455c-2.744,0-4.979-2.232-4.979-4.979v-3.164
			c0-0.5,0.405-0.904,0.905-0.904h8.148c0.5,0,0.905,0.404,0.905,0.904v3.164C168.009,199.223,165.775,201.455,163.029,201.455z
			 M159.859,194.217v2.26c0,1.748,1.422,3.17,3.17,3.17s3.172-1.422,3.172-3.17v-2.26H159.859z"/>
	</g>
</g>
<g id="XMLID_4625_">
	<path id="XMLID_4929_" fill="#F5F5F5" d="M137.005,116.035h-29.28c-0.75,0-1.355-0.607-1.355-1.355c0-0.75,0.606-1.356,1.355-1.356
		h29.28c0.75,0,1.355,0.606,1.355,1.356C138.362,115.428,137.754,116.035,137.005,116.035z"/>
</g>
<g id="XMLID_4624_">
	<path id="XMLID_4928_" fill="#F5F5F5" d="M128.006,125.674h-17.264c-0.75,0-1.357-0.607-1.357-1.357
		c0-0.748,0.608-1.355,1.357-1.355h17.264c0.75,0,1.355,0.607,1.355,1.355C129.363,125.066,128.755,125.674,128.006,125.674z"/>
</g>
<g id="XMLID_4623_">
	<path id="XMLID_4927_" fill="#F5F5F5" d="M122.365,189.172H105.1c-0.75,0-1.355-0.607-1.355-1.357c0-0.748,0.605-1.355,1.355-1.355
		h17.266c0.75,0,1.355,0.607,1.355,1.355C123.722,188.564,123.114,189.172,122.365,189.172z"/>
</g>
<g id="XMLID_4560_">
	<g id="XMLID_4590_">
		<g id="XMLID_4616_">
			<g id="XMLID_4621_">
				<rect id="XMLID_5530_" x="51.673" y="192.518" fill="#FBC248" width="11.913" height="2.715"/>
			</g>
			<g id="XMLID_4620_">
				<rect id="XMLID_5528_" x="54.84" y="192.518" fill="#F2AD02" width="7.087" height="2.715"/>
			</g>
			<g id="XMLID_4619_">
				<path id="XMLID_4926_" fill="#F2D496" d="M57.63,195.458c-0.125,0-0.228-0.103-0.228-0.228v-2.713
					c0-0.125,0.103-0.229,0.228-0.229s0.226,0.104,0.226,0.229v2.713C57.856,195.355,57.755,195.458,57.63,195.458z"/>
			</g>
			<g id="XMLID_4618_">
				<path id="XMLID_4925_" fill="#F2D496" d="M58.384,195.458c-0.125,0-0.226-0.103-0.226-0.228v-2.713
					c0-0.125,0.101-0.229,0.226-0.229s0.227,0.104,0.227,0.229v2.713C58.61,195.355,58.509,195.458,58.384,195.458z"/>
			</g>
			<g id="XMLID_4617_">
				<path id="XMLID_4924_" fill="#F2D496" d="M59.477,195.458c-0.125,0-0.226-0.103-0.226-0.228v-2.713
					c0-0.125,0.101-0.229,0.226-0.229s0.229,0.104,0.229,0.229v2.713C59.704,195.355,59.603,195.458,59.477,195.458z"/>
			</g>
		</g>
		<g id="XMLID_4609_">
			<g id="XMLID_4615_">
				<rect id="XMLID_5519_" x="52.258" y="200.66" fill="#FBC248" width="11.913" height="2.715"/>
			</g>
			<g id="XMLID_4614_">
				<rect id="XMLID_5517_" x="56.819" y="200.66" fill="#F2AD02" width="5.693" height="2.715"/>
			</g>
			<g id="XMLID_4613_">
				<path id="XMLID_4923_" fill="#F2D496" d="M58.214,203.602c-0.125,0-0.228-0.102-0.228-0.227v-2.715
					c0-0.125,0.103-0.227,0.228-0.227s0.226,0.102,0.226,0.227v2.715C58.44,203.5,58.339,203.602,58.214,203.602z"/>
			</g>
			<g id="XMLID_4612_">
				<path id="XMLID_4922_" fill="#F2D496" d="M58.968,203.602c-0.125,0-0.226-0.102-0.226-0.227v-2.715
					c0-0.125,0.101-0.227,0.226-0.227s0.226,0.102,0.226,0.227v2.715C59.194,203.5,59.093,203.602,58.968,203.602z"/>
			</g>
			<g id="XMLID_4611_">
				<path id="XMLID_4921_" fill="#F2D496" d="M60.062,203.602c-0.125,0-0.226-0.102-0.226-0.227v-2.715
					c0-0.125,0.101-0.227,0.226-0.227s0.228,0.102,0.228,0.227v2.715C60.288,203.5,60.187,203.602,60.062,203.602z"/>
			</g>
			<g id="XMLID_4610_">
				<path id="XMLID_4920_" fill="#F2D496" d="M61.343,203.602c-0.125,0-0.226-0.102-0.226-0.227v-2.715
					c0-0.125,0.101-0.227,0.226-0.227s0.227,0.102,0.227,0.227v2.715C61.57,203.5,61.468,203.602,61.343,203.602z"/>
			</g>
		</g>
		<g id="XMLID_4604_">
			<g id="XMLID_4608_">
				<rect id="XMLID_5506_" x="52.409" y="195.23" fill="#FBC248" width="11.911" height="2.715"/>
			</g>
			<g id="XMLID_4607_">
				<rect id="XMLID_5504_" x="57.121" y="195.23" fill="#F2AD02" width="5.542" height="2.715"/>
			</g>
			<g id="XMLID_4606_">
				<path id="XMLID_4919_" fill="#F2D496" d="M59.271,198.172c-0.125,0-0.226-0.102-0.226-0.227v-2.715
					c0-0.125,0.101-0.227,0.226-0.227s0.228,0.102,0.228,0.227v2.715C59.497,198.07,59.396,198.172,59.271,198.172z"/>
			</g>
			<g id="XMLID_4605_">
				<path id="XMLID_4918_" fill="#F2D496" d="M60.024,198.172c-0.125,0-0.226-0.102-0.226-0.227v-2.715
					c0-0.125,0.101-0.227,0.226-0.227s0.229,0.102,0.229,0.227v2.715C60.251,198.07,60.15,198.172,60.024,198.172z"/>
			</g>
		</g>
		<g id="XMLID_4600_">
			<g id="XMLID_4603_">
				<rect id="XMLID_5497_" x="51.673" y="197.945" fill="#FBC248" width="11.913" height="2.715"/>
			</g>
			<g id="XMLID_4602_">
				<rect id="XMLID_5495_" x="56.386" y="197.945" fill="#F2AD02" width="3.657" height="2.715"/>
			</g>
			<g id="XMLID_4601_">
				<path id="XMLID_4917_" fill="#F2D496" d="M58.535,200.887c-0.125,0-0.228-0.102-0.228-0.227v-2.715
					c0-0.125,0.103-0.228,0.228-0.228s0.227,0.103,0.227,0.228v2.715C58.762,200.785,58.66,200.887,58.535,200.887z"/>
			</g>
		</g>
		<g id="XMLID_4595_">
			<g id="XMLID_4599_">
				<rect id="XMLID_5490_" x="51.306" y="189.803" fill="#FBC248" width="11.914" height="2.715"/>
			</g>
			<g id="XMLID_4598_">
				<rect id="XMLID_5488_" x="52.964" y="189.803" fill="#F2AD02" width="5.542" height="2.715"/>
			</g>
			<g id="XMLID_4597_">
				<path id="XMLID_4916_" fill="#F2D496" d="M56.357,192.743c-0.125,0-0.226-0.101-0.226-0.226v-2.717
					c0-0.125,0.101-0.227,0.226-0.227s0.228,0.102,0.228,0.227v2.717C56.583,192.643,56.482,192.743,56.357,192.743z"/>
			</g>
			<g id="XMLID_4596_">
				<path id="XMLID_4915_" fill="#F2D496" d="M55.603,192.743c-0.125,0-0.227-0.101-0.227-0.226v-2.717
					c0-0.125,0.102-0.227,0.227-0.227s0.228,0.102,0.228,0.227v2.717C55.829,192.643,55.728,192.743,55.603,192.743z"/>
			</g>
		</g>
		<g id="XMLID_4591_">
			<g id="XMLID_4594_">
				<rect id="XMLID_5481_" x="52.409" y="187.089" fill="#FBC248" width="11.911" height="2.714"/>
			</g>
			<g id="XMLID_4593_">
				<rect id="XMLID_5479_" x="55.952" y="187.089" fill="#F2AD02" width="3.655" height="2.714"/>
			</g>
			<g id="XMLID_4592_">
				<path id="XMLID_4914_" fill="#F2D496" d="M57.46,190.029c-0.125,0-0.229-0.104-0.229-0.229v-2.715
					c0-0.125,0.103-0.227,0.229-0.227c0.125,0,0.226,0.102,0.226,0.227v2.715C57.686,189.928,57.585,190.029,57.46,190.029z"/>
			</g>
		</g>
	</g>
	<g id="XMLID_4573_">
		<g id="XMLID_4583_">
			<g id="XMLID_4589_">
				<rect id="XMLID_5473_" x="38.476" y="195.23" fill="#FBC248" width="11.914" height="2.715"/>
			</g>
			<g id="XMLID_4588_">
				<rect id="XMLID_5471_" x="40.135" y="195.23" fill="#F2AD02" width="5.692" height="2.715"/>
			</g>
			<g id="XMLID_4587_">
				<path id="XMLID_4913_" fill="#F2D496" d="M44.433,198.172c-0.125,0-0.226-0.102-0.226-0.227v-2.715
					c0-0.125,0.101-0.227,0.226-0.227s0.229,0.102,0.229,0.227v2.715C44.659,198.07,44.558,198.172,44.433,198.172z"/>
			</g>
			<g id="XMLID_4586_">
				<path id="XMLID_4912_" fill="#F2D496" d="M43.679,198.172c-0.125,0-0.226-0.102-0.226-0.227v-2.715
					c0-0.125,0.101-0.227,0.226-0.227s0.227,0.102,0.227,0.227v2.715C43.905,198.07,43.804,198.172,43.679,198.172z"/>
			</g>
			<g id="XMLID_4585_">
				<path id="XMLID_4911_" fill="#F2D496" d="M42.586,198.172c-0.125,0-0.229-0.102-0.229-0.227v-2.715
					c0-0.125,0.103-0.227,0.229-0.227c0.125,0,0.226,0.102,0.226,0.227v2.715C42.812,198.07,42.711,198.172,42.586,198.172z"/>
			</g>
			<g id="XMLID_4584_">
				<path id="XMLID_4910_" fill="#F2D496" d="M41.304,198.172c-0.125,0-0.226-0.102-0.226-0.227v-2.715
					c0-0.125,0.101-0.227,0.226-0.227s0.226,0.102,0.226,0.227v2.715C41.53,198.07,41.429,198.172,41.304,198.172z"/>
			</g>
		</g>
		<g id="XMLID_4578_">
			<g id="XMLID_4582_">
				<rect id="XMLID_5460_" x="38.325" y="200.66" fill="#FBC248" width="11.912" height="2.715"/>
			</g>
			<g id="XMLID_4581_">
				<rect id="XMLID_5458_" x="39.984" y="200.66" fill="#F2AD02" width="5.542" height="2.715"/>
			</g>
			<g id="XMLID_4580_">
				<path id="XMLID_4909_" fill="#F2D496" d="M43.376,203.602c-0.125,0-0.228-0.102-0.228-0.227v-2.715
					c0-0.125,0.103-0.227,0.228-0.227s0.227,0.102,0.227,0.227v2.715C43.603,203.5,43.501,203.602,43.376,203.602z"/>
			</g>
			<g id="XMLID_4579_">
				<path id="XMLID_4908_" fill="#F2D496" d="M42.623,203.602c-0.125,0-0.228-0.102-0.228-0.227v-2.715
					c0-0.125,0.103-0.227,0.228-0.227s0.227,0.102,0.227,0.227v2.715C42.849,203.5,42.748,203.602,42.623,203.602z"/>
			</g>
		</g>
		<g id="XMLID_4574_">
			<g id="XMLID_4577_">
				<rect id="XMLID_5451_" x="39.061" y="197.945" fill="#FBC248" width="11.914" height="2.715"/>
			</g>
			<g id="XMLID_4576_">
				<rect id="XMLID_5449_" x="42.604" y="197.945" fill="#F2AD02" width="3.657" height="2.715"/>
			</g>
			<g id="XMLID_4575_">
				<path id="XMLID_4907_" fill="#F2D496" d="M44.112,200.887c-0.125,0-0.226-0.102-0.226-0.227v-2.715
					c0-0.125,0.101-0.228,0.226-0.228s0.228,0.103,0.228,0.228v2.715C44.338,200.785,44.237,200.887,44.112,200.887z"/>
			</g>
		</g>
	</g>
	<g id="XMLID_4565_">
		<g id="XMLID_4572_">
			<circle id="XMLID_5443_" fill="#FBC248" cx="60.244" cy="181.897" r="5.894"/>
		</g>
		<g id="XMLID_4571_">
			<path id="XMLID_4904_" fill="#F2D496" d="M60.244,186.693c-2.646,0-4.798-2.152-4.798-4.797c0-2.646,2.151-4.795,4.798-4.795
				c2.644,0,4.796,2.149,4.796,4.795C65.04,184.541,62.888,186.693,60.244,186.693z M60.244,177.555
				c-2.396,0-4.346,1.947-4.346,4.344c0,2.396,1.949,4.344,4.346,4.344c2.395,0,4.343-1.948,4.343-4.344
				C64.587,179.502,62.639,177.555,60.244,177.555z"/>
		</g>
		<g id="XMLID_4566_">
			<g id="XMLID_4567_">
				<path id="XMLID_5434_" fill="#F2AD02" d="M59.847,184.764v-0.509c-0.424-0.065-0.823-0.223-1.199-0.47
					c-0.246-0.161-0.285-0.51-0.098-0.736l0,0c0.165-0.199,0.459-0.249,0.672-0.1c0.224,0.156,0.432,0.266,0.625,0.322v-1.037
					c-0.488-0.125-0.845-0.293-1.073-0.506c-0.228-0.211-0.341-0.517-0.341-0.912c0-0.396,0.13-0.726,0.392-0.981
					c0.26-0.258,0.601-0.412,1.022-0.463v-0.342h0.738v0.354c0.296,0.042,0.591,0.136,0.886,0.28
					c0.275,0.136,0.374,0.479,0.198,0.732l0,0c-0.144,0.203-0.415,0.274-0.633,0.156c-0.157-0.086-0.31-0.146-0.451-0.188v1.003
					c0.501,0.13,0.872,0.305,1.109,0.522c0.239,0.219,0.358,0.525,0.358,0.926c0,0.399-0.133,0.729-0.4,0.99
					c-0.267,0.26-0.624,0.414-1.067,0.465v0.487h-0.738V184.764z M59.847,180.34c-0.2,0.07-0.3,0.197-0.3,0.385
					c0,0.187,0.1,0.326,0.3,0.424V180.34z M60.941,182.876c0-0.099-0.024-0.179-0.077-0.244c-0.051-0.063-0.144-0.125-0.277-0.181
					v0.855C60.822,183.232,60.941,183.09,60.941,182.876z"/>
			</g>
		</g>
	</g>
	<g id="XMLID_4561_">
		<g id="XMLID_4564_">
			<path id="XMLID_4901_" fill="#1D1D1B" d="M64.171,204.279H52.258c-0.5,0-0.905-0.404-0.905-0.904v-1.868
				c-0.342-0.129-0.584-0.46-0.584-0.847v-2.715c0-0.441,0.316-0.811,0.735-0.889v-0.938c-0.418-0.08-0.735-0.447-0.735-0.891
				v-1.985c-0.223-0.164-0.368-0.431-0.368-0.729v-2.715c0-0.5,0.405-0.904,0.905-0.904h0.198v-1.811
				c0-0.499,0.405-0.904,0.905-0.904h11.912c0.5,0,0.905,0.405,0.905,0.904v2.715c0,0.5-0.405,0.905-0.905,0.905h-0.196v1.081
				c0.223,0.165,0.367,0.43,0.367,0.729v1.825c0.419,0.079,0.733,0.447,0.733,0.89v2.715c0,0.44-0.314,0.811-0.733,0.89v0.979
				c0.342,0.129,0.584,0.459,0.584,0.847v2.715C65.076,203.875,64.67,204.279,64.171,204.279z M53.163,202.47h10.104v-0.963
				c-0.341-0.129-0.584-0.46-0.584-0.847v-2.715c0-0.441,0.317-0.811,0.735-0.889v-0.938c-0.418-0.08-0.735-0.447-0.735-0.891
				v-1.985c-0.223-0.164-0.368-0.431-0.368-0.729v-2.715c0-0.5,0.405-0.904,0.905-0.904h0.198v-0.903H53.313v1.81
				c0,0.5-0.403,0.905-0.903,0.905H52.21v1.081c0.223,0.165,0.368,0.43,0.368,0.729v1.824c0.418,0.079,0.733,0.447,0.733,0.889
				v2.715c0,0.441-0.314,0.812-0.733,0.891v0.979c0.341,0.129,0.584,0.459,0.584,0.847L53.163,202.47L53.163,202.47z"/>
		</g>
		<g id="XMLID_4563_">
			<path id="XMLID_4898_" fill="#1D1D1B" d="M50.239,204.279H38.325c-0.5,0-0.905-0.404-0.905-0.904v-2.715
				c0-0.441,0.315-0.811,0.733-0.889v-0.979c-0.342-0.13-0.584-0.46-0.584-0.847v-2.715c0-0.5,0.405-0.904,0.905-0.904H50.39
				c0.5,0,0.905,0.404,0.905,0.904v1.867c0.341,0.131,0.584,0.461,0.584,0.848v2.714c0,0.442-0.317,0.81-0.735,0.89v1.825
				C51.144,203.875,50.738,204.279,50.239,204.279z M39.23,202.47h10.104v-1.81c0-0.441,0.314-0.811,0.733-0.889v-0.979
				c-0.342-0.13-0.584-0.46-0.584-0.847v-1.812H39.381v0.964c0.342,0.131,0.584,0.461,0.584,0.848v2.714
				c0,0.442-0.316,0.81-0.735,0.89V202.47z"/>
		</g>
		<g id="XMLID_4562_">
			<path id="XMLID_4895_" fill="#1D1D1B" d="M60.641,187.902c-3.749,0-6.799-3.049-6.799-6.799c0-3.748,3.05-6.799,6.799-6.799
				s6.799,3.051,6.799,6.799C67.44,184.854,64.39,187.902,60.641,187.902z M60.641,176.115c-2.751,0-4.989,2.238-4.989,4.988
				c0,2.752,2.238,4.988,4.989,4.988s4.99-2.236,4.99-4.988C65.63,178.354,63.392,176.115,60.641,176.115z"/>
		</g>
	</g>
</g>
<g id="XMLID_4534_">
	<g id="XMLID_4559_">
		<path id="XMLID_4890_" fill="#364558" d="M275.595,203.371H148.699c-6.156,0-9.733-6.962-6.148-11.967l0,0h139.193l0,0
			C285.327,196.409,281.75,203.371,275.595,203.371z"/>
		<path id="XMLID_4891_" fill="#1D1D1B" d="M275.595,204.275H148.699c-3.189,0-6.075-1.762-7.532-4.6
			c-1.457-2.836-1.209-6.208,0.646-8.8c0.17-0.235,0.444-0.378,0.735-0.378h139.193c0.291,0,0.563,0.143,0.733,0.378
			c1.856,2.592,2.104,5.964,0.647,8.8C281.668,202.514,278.783,204.275,275.595,204.275z M143.033,192.311
			c-1.247,2-1.352,4.414-0.259,6.541c1.163,2.266,3.377,3.615,5.922,3.615h126.896c2.545,0,4.759-1.352,5.922-3.615
			c1.094-2.127,0.99-4.541-0.257-6.541H143.033z"/>
	</g>
	<g id="XMLID_4558_">
		<path id="XMLID_4886_" fill="#B1B1B1" d="M266.541,191.404H157.752V127.79c0-5.685,4.605-10.291,10.291-10.291h88.207
			c5.684,0,10.291,4.606,10.291,10.291V191.404L266.541,191.404z"/>
		<path id="XMLID_4887_" fill="#1D1D1B" d="M266.541,192.311H157.752c-0.5,0-0.905-0.404-0.905-0.904v-63.411
			c0-6.285,5.114-11.399,11.399-11.399h87.8c6.285,0,11.397,5.114,11.397,11.399v63.411
			C267.446,191.904,267.041,192.311,266.541,192.311z M158.657,190.5h106.979v-62.507c0-5.287-4.303-9.591-9.59-9.591h-87.8
			c-5.288,0-9.591,4.304-9.591,9.591V190.5H158.657z"/>
	</g>
	<g id="XMLID_4557_">
		<path id="XMLID_4882_" fill="#ECECEC" d="M161.824,187.333V128.04c0-3.573,2.896-6.47,6.47-6.47H256c3.571,0,6.47,2.896,6.47,6.47
			v59.293H161.824z"/>
		<path id="XMLID_4883_" fill="#1D1D1B" d="M262.47,188.236H161.824c-0.5,0-0.905-0.404-0.905-0.903v-59.34
			c0-4.04,3.287-7.327,7.328-7.327h87.8c4.04,0,7.327,3.287,7.327,7.327v59.34C263.374,187.832,262.969,188.236,262.47,188.236z
			 M162.729,186.428h98.836v-58.435c0-3.043-2.476-5.519-5.518-5.519h-87.8c-3.042,0-5.52,2.476-5.52,5.519L162.729,186.428
			L162.729,186.428z"/>
	</g>
	<g id="XMLID_4554_">
		<g id="XMLID_4556_">
			<path id="XMLID_4878_" fill="#F14D53" d="M180.603,161.456l2.079-10.381c-0.672-0.134-1.367-0.207-2.079-0.207
				c-5.847,0-10.587,4.739-10.587,10.588s4.74,10.588,10.587,10.588c5.85,0,10.587-4.74,10.587-10.588
				c0-0.712-0.071-1.406-0.207-2.079L180.603,161.456z"/>
			<path id="XMLID_4879_" fill="#1D1D1B" d="M180.603,172.948c-6.337,0-11.492-5.155-11.492-11.492s5.155-11.492,11.492-11.492
				c0.75,0,1.509,0.075,2.256,0.226c0.235,0.045,0.443,0.186,0.576,0.386c0.134,0.198,0.184,0.442,0.135,0.68l-1.812,9.049
				l9.049-1.812c0.234-0.049,0.48,0.001,0.68,0.134c0.2,0.133,0.34,0.341,0.387,0.576c0.147,0.746,0.224,1.505,0.224,2.256
				C192.095,167.793,186.94,172.948,180.603,172.948z M180.603,151.773c-5.339,0-9.683,4.344-9.683,9.683s4.343,9.683,9.683,9.683
				s9.685-4.344,9.685-9.683c0-0.334-0.02-0.67-0.055-1.006l-9.452,1.893c-0.296,0.063-0.604-0.032-0.815-0.247
				c-0.214-0.214-0.307-0.521-0.248-0.815l1.893-9.452C181.273,151.791,180.937,151.773,180.603,151.773z"/>
		</g>
		<g id="XMLID_4555_">
			<path id="XMLID_4871_" fill="#12C48B" d="M194.133,156.229c-0.833-4.18-4.123-7.47-8.302-8.302l-2.079,10.382L194.133,156.229z"
				/>
			<path id="XMLID_4875_" fill="#1D1D1B" d="M183.752,159.212c-0.238,0-0.468-0.094-0.642-0.265
				c-0.214-0.215-0.307-0.521-0.248-0.817l2.079-10.381c0.1-0.49,0.573-0.808,1.064-0.71c4.563,0.909,8.103,4.445,9.013,9.013
				c0.1,0.489-0.22,0.966-0.71,1.063l-10.381,2.078C183.871,159.206,183.811,159.212,183.752,159.212z M186.533,149.031
				l-1.626,8.121l8.12-1.627C192.098,152.396,189.662,149.962,186.533,149.031z"/>
		</g>
	</g>
	<g id="XMLID_4551_">
		<g id="XMLID_4553_">
			<path id="XMLID_4874_" fill="#1D1D1B" d="M189.247,132.63h-17.288c-0.5,0-0.905-0.405-0.905-0.905s0.405-0.904,0.905-0.904
				h17.288c0.5,0,0.903,0.404,0.903,0.904S189.747,132.63,189.247,132.63z"/>
		</g>
		<g id="XMLID_4552_">
			<path id="XMLID_4873_" fill="#1D1D1B" d="M190.964,140.782h-20.722c-0.5,0-0.905-0.405-0.905-0.905
				c0-0.499,0.405-0.904,0.905-0.904h20.722c0.5,0,0.905,0.405,0.905,0.904C191.869,140.377,191.464,140.782,190.964,140.782z"/>
		</g>
	</g>
	<g id="XMLID_4537_">
		<g id="XMLID_4550_">
			<path id="XMLID_4872_" fill="#1D1D1B" d="M256.936,182.667h-49.283c-0.5,0-0.903-0.405-0.903-0.905v-45.961
				c0-0.499,0.403-0.904,0.903-0.904s0.905,0.405,0.905,0.904v45.057h48.378c0.5,0,0.904,0.404,0.904,0.904
				S257.436,182.667,256.936,182.667z"/>
		</g>
		<g id="XMLID_4546_">
			<g id="XMLID_4549_">
				<rect id="XMLID_4867_" x="213.42" y="156.596" fill="#F14D53" width="9.087" height="25.166"/>
				<path id="XMLID_4868_" fill="#1D1D1B" d="M222.508,182.667h-9.088c-0.5,0-0.905-0.405-0.905-0.905v-25.164
					c0-0.5,0.405-0.906,0.905-0.906h9.088c0.5,0,0.905,0.406,0.905,0.906v25.164C223.413,182.262,223.007,182.667,222.508,182.667z
					 M214.325,180.857h7.276v-23.356h-7.276V180.857z"/>
			</g>
			<g id="XMLID_4548_">
				<rect id="XMLID_4863_" x="227.75" y="163.587" fill="#FBC248" width="9.087" height="18.175"/>
				<path id="XMLID_4864_" fill="#1D1D1B" d="M236.838,182.667h-9.087c-0.5,0-0.905-0.405-0.905-0.905v-18.175
					c0-0.5,0.405-0.905,0.905-0.905h9.087c0.5,0,0.905,0.405,0.905,0.905v18.175C237.743,182.262,237.338,182.667,236.838,182.667z
					 M228.655,180.857h7.278v-16.366h-7.278V180.857z"/>
			</g>
			<g id="XMLID_4547_">
				<rect id="XMLID_4850_" x="242.081" y="147.927" fill="#12C48B" width="9.087" height="33.835"/>
				<path id="XMLID_4860_" fill="#1D1D1B" d="M251.169,182.667h-9.088c-0.5,0-0.905-0.405-0.905-0.905v-33.835
					c0-0.5,0.405-0.905,0.905-0.905h9.088c0.499,0,0.904,0.405,0.904,0.905v33.835C252.073,182.262,251.668,182.667,251.169,182.667
					z M242.986,180.857h7.278v-32.026h-7.278V180.857z"/>
			</g>
		</g>
		<g id="XMLID_4545_">
			<path id="XMLID_4859_" fill="#1D1D1B" d="M212.327,154.811c-0.315,0-0.62-0.164-0.787-0.457
				c-0.248-0.435-0.098-0.984,0.338-1.232l12.23-6.975c0.399-0.228,0.905-0.119,1.179,0.25l4.488,6.095l16.068-17.306
				c0.34-0.365,0.913-0.388,1.279-0.047c0.365,0.34,0.388,0.912,0.047,1.278l-16.813,18.104c-0.184,0.195-0.442,0.304-0.714,0.287
				c-0.269-0.017-0.517-0.148-0.677-0.365l-4.66-6.325l-11.534,6.573C212.633,154.771,212.479,154.811,212.327,154.811z"/>
		</g>
		<g id="XMLID_4544_">
			<path id="XMLID_4858_" fill="#1D1D1B" d="M246.508,142.822c-0.5,0-0.905-0.405-0.905-0.905v-5.211h-5.211
				c-0.5,0-0.905-0.405-0.905-0.905c0-0.499,0.405-0.904,0.905-0.904h6.116c0.5,0,0.905,0.405,0.905,0.904v6.116
				C247.413,142.417,247.008,142.822,246.508,142.822z"/>
		</g>
		<g id="XMLID_4538_">
			<g id="XMLID_4543_">
				<path id="XMLID_4857_" fill="#1D1D1B" d="M207.653,176.216h-5.427c-0.5,0-0.905-0.405-0.905-0.905
					c0-0.498,0.405-0.902,0.905-0.902h5.427c0.5,0,0.905,0.404,0.905,0.902C208.558,175.811,208.152,176.216,207.653,176.216z"/>
			</g>
			<g id="XMLID_4542_">
				<path id="XMLID_4856_" fill="#1D1D1B" d="M207.653,167.432h-5.427c-0.5,0-0.905-0.404-0.905-0.904s0.405-0.903,0.905-0.903
					h5.427c0.5,0,0.905,0.403,0.905,0.903C208.558,167.025,208.152,167.432,207.653,167.432z"/>
			</g>
			<g id="XMLID_4541_">
				<path id="XMLID_4855_" fill="#1D1D1B" d="M207.653,158.646h-5.427c-0.5,0-0.905-0.404-0.905-0.904
					c0-0.499,0.405-0.904,0.905-0.904h5.427c0.5,0,0.905,0.405,0.905,0.904C208.558,158.242,208.152,158.646,207.653,158.646z"/>
			</g>
			<g id="XMLID_4540_">
				<path id="XMLID_4854_" fill="#1D1D1B" d="M207.653,149.863h-5.427c-0.5,0-0.905-0.405-0.905-0.905
					c0-0.499,0.405-0.903,0.905-0.903h5.427c0.5,0,0.905,0.404,0.905,0.903C208.558,149.458,208.152,149.863,207.653,149.863z"/>
			</g>
			<g id="XMLID_4539_">
				<path id="XMLID_4853_" fill="#1D1D1B" d="M207.653,141.079h-5.427c-0.5,0-0.905-0.405-0.905-0.904
					c0-0.5,0.405-0.905,0.905-0.905h5.427c0.5,0,0.905,0.405,0.905,0.905C208.558,140.674,208.152,141.079,207.653,141.079z"/>
			</g>
		</g>
	</g>
	<g id="XMLID_4536_">
		<path id="XMLID_4852_" fill="#1D1D1B" d="M219.423,195.52H204.87c-0.5,0-0.905-0.404-0.905-0.904s0.405-0.904,0.905-0.904h14.553
			c0.5,0,0.905,0.404,0.905,0.904S219.923,195.52,219.423,195.52z"/>
	</g>
	<g id="XMLID_4535_">
		<path id="XMLID_4851_" fill="#F5F5F5" d="M271.287,200.406H231.05c-0.75,0-1.357-0.607-1.357-1.357
			c0-0.749,0.608-1.357,1.357-1.357h40.237c0.749,0,1.355,0.608,1.355,1.357C272.645,199.799,272.036,200.406,271.287,200.406z"/>
	</g>
</g>
<g id="XMLID_4527_">
	<g id="XMLID_4533_">
		<path id="XMLID_4846_" fill="#B1B1B1" d="M239.673,88.231c0-4.079,3.306-7.385,7.385-7.385h13.868v36.652h-21.252L239.673,88.231
			L239.673,88.231z"/>
		<path id="XMLID_4847_" fill="#1D1D1B" d="M260.926,118.402h-21.252c-0.5,0-0.905-0.403-0.905-0.903V88.231
			c0-4.571,3.719-8.29,8.29-8.29h13.868c0.5,0,0.904,0.405,0.904,0.905v36.652C261.83,117.999,261.426,118.402,260.926,118.402z
			 M240.578,116.594h19.44V81.751h-12.962c-3.573,0-6.479,2.907-6.479,6.48V116.594L240.578,116.594z"/>
	</g>
	<g id="XMLID_4532_">
		<path id="XMLID_4842_" fill="#ECECEC" d="M261.253,165.426c-4.078,0-7.384-3.307-7.384-7.385l0.123-69.81
			c0-4.079-3.309-7.385-7.387-7.385h45.999c4.078,0,7.386,3.306,7.386,7.385v77.194L261.253,165.426L261.253,165.426z"/>
		<path id="XMLID_4843_" fill="#1D1D1B" d="M299.991,166.33h-38.738c-4.57,0-8.289-3.719-8.289-8.289l0.123-69.812
			c0-3.571-2.907-6.479-6.48-6.479c-0.5,0-0.903-0.404-0.903-0.904s0.403-0.905,0.903-0.905h46c4.57,0,8.289,3.719,8.289,8.29
			v77.194C300.896,165.926,300.49,166.33,299.991,166.33z M251.771,81.751c1.903,1.521,3.125,3.86,3.125,6.48l-0.123,69.812
			c0,3.571,2.907,6.479,6.479,6.479h37.833V88.231c0-3.573-2.906-6.48-6.479-6.48H251.771z"/>
	</g>
	<g id="XMLID_4531_">
		<path id="XMLID_4838_" fill="#B1B1B1" d="M289.449,165.426v-49.494h-13.867c-4.078,0-7.387,3.309-7.387,7.385v4.002v30.725
			c0,4.078-3.306,7.385-7.385,7.385L289.449,165.426L289.449,165.426z"/>
		<path id="XMLID_4839_" fill="#1D1D1B" d="M289.449,166.33h-28.639c-0.499,0-0.902-0.404-0.902-0.904s0.403-0.904,0.902-0.904
			c3.573,0,6.48-2.905,6.48-6.479v-34.727c0-4.569,3.718-8.289,8.289-8.289h13.866c0.5,0,0.904,0.404,0.904,0.904v49.494
			C290.354,165.926,289.949,166.33,289.449,166.33z M265.978,164.521h22.567v-47.686h-12.963c-3.573,0-6.479,2.906-6.479,6.479
			v34.726C269.103,160.661,267.881,163.001,265.978,164.521z"/>
	</g>
	<g id="XMLID_4528_">
		<g id="XMLID_4530_">
			<path id="XMLID_4834_" fill="#ECECEC" d="M275.019,115.932c4.078,0,7.385,3.309,7.385,7.385v72.67
				c0,4.08,3.308,7.387,7.387,7.387h38.612v-80.057c0-4.076-3.307-7.385-7.385-7.385H275.019z"/>
			<path id="XMLID_4835_" fill="#1D1D1B" d="M328.402,204.275h-38.612c-4.571,0-8.29-3.719-8.29-8.289v-72.67
				c0-3.573-2.906-6.479-6.479-6.479c-0.5,0-0.905-0.405-0.905-0.905s0.405-0.904,0.905-0.904h45.999c4.57,0,8.289,3.72,8.289,8.289
				v80.057C329.307,203.871,328.901,204.275,328.402,204.275z M280.183,116.837c1.904,1.521,3.125,3.858,3.125,6.479v72.67
				c0,3.572,2.907,6.479,6.48,6.479h37.707v-79.148c0-3.573-2.904-6.479-6.479-6.479H280.183z"/>
		</g>
		<g id="XMLID_4529_">
			<path id="XMLID_4821_" fill="#B1B1B1" d="M342.831,191.984v4.002c0,4.078-3.306,7.385-7.385,7.385h-45.998
				c4.078,0,7.386-3.307,7.386-7.385v-4.002H342.831z"/>
			<path id="XMLID_4831_" fill="#1D1D1B" d="M335.448,204.275H289.45c-0.499,0-0.904-0.404-0.904-0.904s0.405-0.904,0.904-0.904
				c3.571,0,6.479-2.906,6.479-6.48v-4.002c0-0.5,0.405-0.903,0.904-0.903h45.997c0.5,0,0.905,0.403,0.905,0.903v4.002
				C343.738,200.559,340.02,204.275,335.448,204.275z M294.614,202.467h40.834c3.573,0,6.48-2.906,6.48-6.48v-3.098h-44.189v3.098
				C297.739,198.605,296.518,200.945,294.614,202.467z"/>
		</g>
	</g>
</g>
<g id="XMLID_4508_">
	<g id="XMLID_4525_">
		<g id="XMLID_4526_">
			<path id="XMLID_4830_" fill="#1D1D1B" d="M311.632,137.006h-23.738c-0.5,0-0.905-0.404-0.905-0.904s0.405-0.903,0.905-0.903
				h23.738c0.499,0,0.902,0.403,0.902,0.903S312.131,137.006,311.632,137.006z"/>
		</g>
	</g>
	<g id="XMLID_4523_">
		<g id="XMLID_4524_">
			<path id="XMLID_4829_" fill="#1D1D1B" d="M311.632,152.137h-23.738c-0.5,0-0.905-0.404-0.905-0.904s0.405-0.903,0.905-0.903
				h23.738c0.499,0,0.902,0.403,0.902,0.903S312.131,152.137,311.632,152.137z"/>
		</g>
	</g>
	<g id="XMLID_4521_">
		<g id="XMLID_4522_">
			<path id="XMLID_4828_" fill="#1D1D1B" d="M311.632,159.703h-23.738c-0.5,0-0.905-0.405-0.905-0.905s0.405-0.903,0.905-0.903
				h23.738c0.499,0,0.902,0.403,0.902,0.903S312.131,159.703,311.632,159.703z"/>
		</g>
	</g>
	<g id="XMLID_4519_">
		<g id="XMLID_4520_">
			<path id="XMLID_4827_" fill="#1D1D1B" d="M311.632,144.57h-23.738c-0.5,0-0.905-0.404-0.905-0.903c0-0.5,0.405-0.905,0.905-0.905
				h23.738c0.499,0,0.902,0.405,0.902,0.905C312.534,144.166,312.131,144.57,311.632,144.57z"/>
		</g>
	</g>
	<g id="XMLID_4517_">
		<g id="XMLID_4518_">
			<path id="XMLID_4826_" fill="#1D1D1B" d="M291.933,92.871h-23.738c-0.5,0-0.903-0.405-0.903-0.905
				c0-0.499,0.403-0.904,0.903-0.904h23.738c0.499,0,0.904,0.405,0.904,0.904C292.837,92.466,292.432,92.871,291.933,92.871z"/>
		</g>
	</g>
	<g id="XMLID_4515_">
		<g id="XMLID_4516_">
			<path id="XMLID_4825_" fill="#1D1D1B" d="M291.933,108.003h-23.738c-0.5,0-0.903-0.405-0.903-0.905s0.403-0.904,0.903-0.904
				h23.738c0.499,0,0.904,0.404,0.904,0.904S292.432,108.003,291.933,108.003z"/>
		</g>
	</g>
	<g id="XMLID_4513_">
		<g id="XMLID_4514_">
			<path id="XMLID_4824_" fill="#1D1D1B" d="M291.933,100.437h-23.738c-0.5,0-0.903-0.404-0.903-0.904s0.403-0.905,0.903-0.905
				h23.738c0.499,0,0.904,0.405,0.904,0.905S292.432,100.437,291.933,100.437z"/>
		</g>
	</g>
	<g id="XMLID_4511_">
		<g id="XMLID_4512_">
			<path id="XMLID_4823_" fill="#1D1D1B" d="M311.632,167.27h-23.738c-0.5,0-0.905-0.404-0.905-0.903c0-0.5,0.405-0.905,0.905-0.905
				h23.738c0.499,0,0.902,0.405,0.902,0.905C312.534,166.863,312.131,167.27,311.632,167.27z"/>
		</g>
	</g>
	<g id="XMLID_4509_">
		<g id="XMLID_4510_">
			<path id="XMLID_4822_" fill="#1D1D1B" d="M311.632,174.834h-23.738c-0.5,0-0.905-0.404-0.905-0.904s0.405-0.904,0.905-0.904
				h23.738c0.499,0,0.902,0.404,0.902,0.904S312.131,174.834,311.632,174.834z"/>
		</g>
	</g>
</g>
<g id="XMLID_4503_">
	<g id="XMLID_4507_">
		<circle id="XMLID_4815_" fill="#FBC248" cx="316.961" cy="126.335" r="5.011"/>
		<path id="XMLID_4818_" fill="#1D1D1B" d="M316.961,132.251c-3.264,0-5.915-2.653-5.915-5.916c0-3.262,2.651-5.915,5.915-5.915
			c3.262,0,5.915,2.653,5.915,5.915C322.876,129.598,320.223,132.251,316.961,132.251z M316.961,122.229
			c-2.266,0-4.105,1.842-4.105,4.105c0,2.266,1.842,4.105,4.105,4.105c2.263,0,4.104-1.842,4.104-4.105
			S319.225,122.229,316.961,122.229z"/>
	</g>
	<g id="XMLID_4504_">
		<g id="XMLID_4506_">
			<path id="XMLID_4817_" fill="#1D1D1B" d="M319.061,127.24h-4.199c-0.5,0-0.905-0.405-0.905-0.905
				c0-0.499,0.405-0.903,0.905-0.903h4.199c0.5,0,0.905,0.404,0.905,0.903C319.966,126.835,319.561,127.24,319.061,127.24z"/>
		</g>
		<g id="XMLID_4505_">
			<path id="XMLID_4816_" fill="#1D1D1B" d="M316.961,129.34c-0.5,0-0.905-0.404-0.905-0.904v-4.199c0-0.5,0.405-0.904,0.905-0.904
				s0.902,0.404,0.902,0.904v4.199C317.865,128.936,317.461,129.34,316.961,129.34z"/>
		</g>
	</g>
</g>
<g id="XMLID_4499_">
	<g id="XMLID_4502_">
		<circle id="XMLID_4810_" fill="#F14D53" cx="294.033" cy="184.282" r="5.01"/>
		<path id="XMLID_4812_" fill="#1D1D1B" d="M294.032,190.197c-3.264,0-5.915-2.653-5.915-5.915c0-3.263,2.651-5.916,5.915-5.916
			c3.262,0,5.914,2.653,5.914,5.916C299.948,187.544,297.294,190.197,294.032,190.197z M294.032,180.176
			c-2.266,0-4.105,1.844-4.105,4.106c0,2.262,1.842,4.104,4.105,4.104c2.265,0,4.104-1.842,4.104-4.104
			C298.137,182.02,296.297,180.176,294.032,180.176z"/>
	</g>
	<g id="XMLID_4500_">
		<g id="XMLID_4501_">
			<path id="XMLID_4811_" fill="#1D1D1B" d="M296.133,185.188h-4.2c-0.5,0-0.905-0.404-0.905-0.903c0-0.5,0.405-0.905,0.905-0.905
				h4.2c0.499,0,0.904,0.405,0.904,0.905C297.037,184.781,296.632,185.188,296.133,185.188z"/>
		</g>
	</g>
</g>
<g id="XMLID_4475_">
	<g id="XMLID_4498_">
		<path id="XMLID_4806_" fill="#364558" d="M352.99,187.213h-34.979c-1.079,0-1.954-0.875-1.954-1.954v-47.604
			c0-1.079,0.875-1.954,1.954-1.954h34.979c1.079,0,1.954,0.875,1.954,1.954v47.604C354.946,186.338,354.071,187.213,352.99,187.213
			z"/>
		<path id="XMLID_4807_" fill="#1D1D1B" d="M352.547,188.117h-34.088c-1.822,0-3.307-1.482-3.307-3.305V138.1
			c0-1.822,1.482-3.305,3.307-3.305h34.088c1.82,0,3.305,1.482,3.305,3.305v46.713C355.852,186.635,354.367,188.117,352.547,188.117
			z M318.459,136.604c-0.824,0-1.495,0.672-1.495,1.496v46.713c0,0.823,0.671,1.494,1.495,1.494h34.088
			c0.822,0,1.495-0.671,1.495-1.494V138.1c0-0.824-0.673-1.494-1.495-1.494h-34.088V136.604z"/>
	</g>
	<g id="XMLID_4476_">
		<g id="XMLID_4497_">
			<path id="XMLID_5266_" fill="#ECECEC" d="M347.852,149.354h-24.697c-1.771,0-3.209-1.437-3.209-3.209v-3.176
				c0-1.771,1.438-3.209,3.209-3.209h24.697c1.771,0,3.209,1.438,3.209,3.209v3.176
				C351.061,147.917,349.621,149.354,347.852,149.354z"/>
		</g>
		<g id="XMLID_4492_">
			<g id="XMLID_4496_">
				<path id="XMLID_5264_" fill="#F14D53" d="M323.949,158.883h-1.99c-1.112,0-2.016-0.9-2.016-2.014v-2.034
					c0-1.11,0.901-2.013,2.016-2.013h1.99c1.111,0,2.015,0.9,2.015,2.013v2.034C325.964,157.98,325.063,158.883,323.949,158.883z"/>
			</g>
			<g id="XMLID_4495_">
				<path id="XMLID_5262_" fill="#F14D53" d="M332.316,158.883h-1.992c-1.11,0-2.014-0.9-2.014-2.014v-2.034
					c0-1.11,0.901-2.013,2.014-2.013h1.992c1.111,0,2.013,0.9,2.013,2.013v2.034C334.327,157.98,333.428,158.883,332.316,158.883z"
					/>
			</g>
			<g id="XMLID_4494_">
				<path id="XMLID_5260_" fill="#F14D53" d="M340.682,158.883h-1.992c-1.112,0-2.013-0.9-2.013-2.014v-2.034
					c0-1.11,0.898-2.013,2.013-2.013h1.992c1.111,0,2.013,0.9,2.013,2.013v2.034C342.694,157.98,341.793,158.883,340.682,158.883z"
					/>
			</g>
			<g id="XMLID_4493_">
				<path id="XMLID_5258_" fill="#FBC248" d="M349.047,158.883h-1.992c-1.111,0-2.015-0.9-2.015-2.014v-2.034
					c0-1.11,0.901-2.013,2.015-2.013h1.992c1.11,0,2.014,0.9,2.014,2.013v2.034C351.061,157.98,350.157,158.883,349.047,158.883z"/>
			</g>
		</g>
		<g id="XMLID_4487_">
			<g id="XMLID_4491_">
				<path id="XMLID_5255_" fill="#FFFFFF" d="M323.949,166.973h-1.99c-1.112,0-2.016-0.899-2.016-2.014v-2.034
					c0-1.11,0.901-2.013,2.016-2.013h1.99c1.111,0,2.015,0.9,2.015,2.013v2.034C325.964,166.07,325.063,166.973,323.949,166.973z"/>
			</g>
			<g id="XMLID_4490_">
				<path id="XMLID_5253_" fill="#FFFFFF" d="M332.316,166.973h-1.992c-1.11,0-2.014-0.899-2.014-2.014v-2.034
					c0-1.11,0.901-2.013,2.014-2.013h1.992c1.111,0,2.013,0.9,2.013,2.013v2.034C334.327,166.07,333.428,166.973,332.316,166.973z"
					/>
			</g>
			<g id="XMLID_4489_">
				<path id="XMLID_5251_" fill="#FFFFFF" d="M340.682,166.973h-1.992c-1.112,0-2.013-0.899-2.013-2.014v-2.034
					c0-1.11,0.898-2.013,2.013-2.013h1.992c1.111,0,2.013,0.9,2.013,2.013v2.034C342.694,166.07,341.793,166.973,340.682,166.973z"
					/>
			</g>
			<g id="XMLID_4488_">
				<path id="XMLID_5249_" fill="#F14D53" d="M349.047,166.973h-1.992c-1.111,0-2.015-0.899-2.015-2.014v-2.034
					c0-1.11,0.901-2.013,2.015-2.013h1.992c1.11,0,2.014,0.9,2.014,2.013v2.034C351.061,166.07,350.157,166.973,349.047,166.973z"/>
			</g>
		</g>
		<g id="XMLID_4482_">
			<g id="XMLID_4486_">
				<path id="XMLID_5246_" fill="#FFFFFF" d="M323.949,175.063h-1.99c-1.112,0-2.016-0.899-2.016-2.014v-2.033
					c0-1.11,0.901-2.014,2.016-2.014h1.99c1.111,0,2.015,0.9,2.015,2.014v2.033C325.964,174.161,325.063,175.063,323.949,175.063z"
					/>
			</g>
			<g id="XMLID_4485_">
				<path id="XMLID_5244_" fill="#FFFFFF" d="M332.316,175.063h-1.992c-1.11,0-2.014-0.899-2.014-2.014v-2.033
					c0-1.11,0.901-2.014,2.014-2.014h1.992c1.111,0,2.013,0.9,2.013,2.014v2.033C334.327,174.161,333.428,175.063,332.316,175.063z"
					/>
			</g>
			<g id="XMLID_4484_">
				<path id="XMLID_5242_" fill="#FFFFFF" d="M340.682,175.063h-1.992c-1.112,0-2.013-0.899-2.013-2.014v-2.033
					c0-1.11,0.898-2.014,2.013-2.014h1.992c1.111,0,2.013,0.9,2.013,2.014v2.033C342.694,174.161,341.793,175.063,340.682,175.063z"
					/>
			</g>
			<g id="XMLID_4483_">
				<path id="XMLID_5240_" fill="#F14D53" d="M349.047,175.063h-1.992c-1.111,0-2.015-0.899-2.015-2.014v-2.033
					c0-1.11,0.901-2.014,2.015-2.014h1.992c1.11,0,2.014,0.9,2.014,2.014v2.033C351.061,174.161,350.157,175.063,349.047,175.063z"
					/>
			</g>
		</g>
		<g id="XMLID_4477_">
			<g id="XMLID_4481_">
				<path id="XMLID_5237_" fill="#FFFFFF" d="M323.949,183.152h-1.99c-1.112,0-2.016-0.901-2.016-2.014v-2.035
					c0-1.11,0.901-2.014,2.016-2.014h1.99c1.111,0,2.015,0.901,2.015,2.014v2.035C325.964,182.251,325.063,183.152,323.949,183.152z
					"/>
			</g>
			<g id="XMLID_4480_">
				<path id="XMLID_5235_" fill="#FFFFFF" d="M332.316,183.152h-1.992c-1.11,0-2.014-0.901-2.014-2.014v-2.035
					c0-1.11,0.901-2.014,2.014-2.014h1.992c1.111,0,2.013,0.901,2.013,2.014v2.035C334.327,182.251,333.428,183.152,332.316,183.152
					z"/>
			</g>
			<g id="XMLID_4479_">
				<path id="XMLID_5233_" fill="#FFFFFF" d="M340.682,183.152h-1.992c-1.112,0-2.013-0.901-2.013-2.014v-2.035
					c0-1.11,0.898-2.014,2.013-2.014h1.992c1.111,0,2.013,0.901,2.013,2.014v2.035C342.694,182.251,341.793,183.152,340.682,183.152
					z"/>
			</g>
			<g id="XMLID_4478_">
				<path id="XMLID_5231_" fill="#F14D53" d="M349.047,183.152h-1.992c-1.111,0-2.015-0.901-2.015-2.014v-2.035
					c0-1.11,0.901-2.014,2.015-2.014h1.992c1.11,0,2.014,0.901,2.014,2.014v2.035C351.061,182.251,350.157,183.152,349.047,183.152z
					"/>
			</g>
		</g>
	</g>
</g>
<g id="XMLID_4468_">
	<g id="XMLID_4474_">
		<path id="XMLID_4459_" fill="#12C48B" d="M391.073,148.316l5.36-9.125c-2.426-3.616-3.842-7.967-3.842-12.648
			c0-12.563,10.183-22.744,22.743-22.744c12.562,0,22.743,10.184,22.743,22.744s-10.183,22.743-22.743,22.743
			c-4.732,0-9.13-1.447-12.771-3.922l-9.736,4.837C391.634,150.796,390.396,149.47,391.073,148.316z"/>
		<path id="XMLID_4803_" fill="#1D1D1B" d="M392.227,151.25c-0.606,0-1.201-0.248-1.64-0.719c-0.686-0.733-0.804-1.809-0.294-2.674
			l5.074-8.643c-2.411-3.789-3.682-8.156-3.682-12.675c0-13.039,10.608-23.648,23.646-23.648c13.04,0,23.649,10.609,23.649,23.648
			c0,13.04-10.609,23.647-23.649,23.647c-4.582,0-9.009-1.307-12.834-3.782l-9.27,4.604
			C392.908,151.172,392.566,151.25,392.227,151.25z M415.336,104.703c-12.042,0-21.841,9.797-21.841,21.839
			c0,4.349,1.275,8.548,3.688,12.146c0.193,0.289,0.205,0.662,0.029,0.963l-5.36,9.125l0,0c-0.149,0.256-0.01,0.449,0.058,0.521
			s0.252,0.229,0.519,0.096l9.734-4.836c0.293-0.146,0.643-0.123,0.911,0.062c3.624,2.464,7.864,3.766,12.263,3.766
			c12.042,0,21.84-9.797,21.84-21.84C437.176,114.5,427.378,104.703,415.336,104.703z"/>
	</g>
	<g id="XMLID_4469_">
		<g id="XMLID_4470_">
			<path id="XMLID_5218_" fill="#F5F5F5" d="M413.846,142.307v-2.701c-2.251-0.354-4.375-1.187-6.372-2.496
				c-1.31-0.856-1.515-2.702-0.521-3.91l0,0c0.878-1.066,2.441-1.327,3.571-0.531c1.188,0.837,2.295,1.409,3.321,1.719v-5.516
				c-2.591-0.666-4.492-1.563-5.7-2.686c-1.21-1.123-1.814-2.74-1.814-4.851s0.69-3.851,2.073-5.22
				c1.382-1.37,3.195-2.189,5.441-2.463v-1.813h3.925v1.89c1.573,0.221,3.143,0.717,4.706,1.487
				c1.465,0.726,1.986,2.556,1.054,3.896l0,0c-0.752,1.082-2.205,1.465-3.36,0.834c-0.838-0.453-1.637-0.786-2.397-0.998v5.33
				c2.665,0.689,4.633,1.615,5.904,2.775c1.271,1.16,1.905,2.801,1.905,4.924s-0.71,3.875-2.129,5.256
				c-1.42,1.385-3.313,2.209-5.683,2.48v2.592h-3.924V142.307z M413.846,118.8c-1.063,0.37-1.591,1.05-1.591,2.035
				c0,0.988,0.528,1.74,1.591,2.259V118.8z M419.656,132.273c0-0.52-0.136-0.948-0.406-1.295c-0.271-0.347-0.767-0.666-1.479-0.963
				v4.555C419.029,134.176,419.656,133.411,419.656,132.273z"/>
		</g>
	</g>
</g>
<g id="XMLID_4461_">
	<g id="XMLID_4465_">
		<g id="XMLID_4467_">
			<path id="XMLID_4802_" fill="#1D1D1B" d="M30.93,117.475c-0.229,0-0.463-0.089-0.64-0.266c-0.354-0.354-0.354-0.926,0-1.279
				l4.325-4.325c0.169-0.169,0.398-0.265,0.64-0.265l0,0c0.24,0,0.47,0.096,0.64,0.265l4.325,4.325c0.354,0.354,0.354,0.928,0,1.279
				c-0.353,0.354-0.926,0.354-1.279,0l-3.685-3.686l-3.687,3.686C31.393,117.386,31.162,117.475,30.93,117.475z"/>
		</g>
		<g id="XMLID_4466_">
			<path id="XMLID_4801_" fill="#1D1D1B" d="M35.255,137.502c-0.5,0-0.905-0.404-0.905-0.904v-24.354
				c0-0.499,0.405-0.904,0.905-0.904s0.905,0.405,0.905,0.904v24.354C36.16,137.098,35.754,137.502,35.255,137.502z"/>
		</g>
	</g>
	<g id="XMLID_4462_">
		<g id="XMLID_4464_">
			<path id="XMLID_4800_" fill="#1D1D1B" d="M45.016,136.201c-0.24,0-0.47-0.096-0.64-0.266l-4.325-4.324
				c-0.354-0.354-0.354-0.926,0-1.279c0.353-0.354,0.927-0.354,1.279,0l3.686,3.686l3.687-3.686c0.353-0.354,0.926-0.354,1.278,0
				c0.354,0.354,0.354,0.926,0,1.279l-4.325,4.324C45.485,136.105,45.255,136.201,45.016,136.201z"/>
		</g>
		<g id="XMLID_4463_">
			<path id="XMLID_4460_" fill="#1D1D1B" d="M45.016,136.201c-0.5,0-0.905-0.405-0.905-0.904v-24.353c0-0.5,0.405-0.905,0.905-0.905
				s0.905,0.405,0.905,0.905v24.353C45.92,135.796,45.515,136.201,45.016,136.201z"/>
		</g>
	</g>
</g>
<g id="XMLID_4452_">
	<path id="XMLID_4786_" fill="#1D1D1B" d="M420.513,204.245H29.154c-0.5,0-0.903-0.405-0.903-0.905c0-0.499,0.403-0.904,0.903-0.904
		h391.358c0.5,0,0.903,0.405,0.903,0.904C421.418,203.84,421.013,204.245,420.513,204.245z"/>
</g>
<g id="XMLID_4450_">
	<circle id="XMLID_4777_" fill="#ECECEC" cx="46.261" cy="169.313" r="3.352"/>
	<path id="XMLID_4778_" fill="#1D1D1B" d="M46.262,173.568c-2.347,0-4.257-1.909-4.257-4.256c0-2.349,1.91-4.256,4.257-4.256
		s4.256,1.907,4.256,4.256C50.518,171.659,48.608,173.568,46.262,173.568z M46.262,166.866c-1.35,0-2.447,1.098-2.447,2.446
		c0,1.348,1.1,2.445,2.447,2.445s2.446-1.099,2.446-2.445C48.708,167.964,47.61,166.866,46.262,166.866z"/>
</g>
<g id="XMLID_4447_">
	<circle id="XMLID_4745_" fill="#ECECEC" cx="473.732" cy="139.76" r="3.352"/>
	<path id="XMLID_4766_" fill="#1D1D1B" d="M473.732,144.018c-2.347,0-4.257-1.91-4.257-4.258c0-2.347,1.91-4.256,4.257-4.256
		s4.256,1.909,4.256,4.256C477.988,142.107,476.077,144.018,473.732,144.018z M473.732,137.313c-1.35,0-2.447,1.1-2.447,2.446
		c0,1.351,1.1,2.447,2.447,2.447s2.446-1.099,2.446-2.447C476.179,138.411,475.079,137.313,473.732,137.313z"/>
</g>
<g id="XMLID_4435_">
	<g id="XMLID_4437_">
		<path id="XMLID_4759_" fill="#1D1D1B" d="M412.745,159.047h-4.198c-0.5,0-0.905-0.404-0.905-0.904s0.405-0.903,0.905-0.903h4.198
			c0.5,0,0.904,0.403,0.904,0.903S413.245,159.047,412.745,159.047z"/>
	</g>
	<g id="XMLID_4436_">
		<path id="XMLID_4758_" fill="#1D1D1B" d="M410.646,161.146c-0.499,0-0.904-0.404-0.904-0.904v-4.2c0-0.5,0.405-0.905,0.904-0.905
			c0.5,0,0.905,0.405,0.905,0.905v4.2C411.552,160.742,411.146,161.146,410.646,161.146z"/>
	</g>
</g>
<g id="XMLID_4429_">
	<g id="XMLID_4431_">
		<path id="XMLID_4755_" fill="#1D1D1B" d="M31.254,179.161h-4.2c-0.5,0-0.905-0.404-0.905-0.904s0.405-0.905,0.905-0.905h4.2
			c0.5,0,0.905,0.405,0.905,0.905S31.754,179.161,31.254,179.161z"/>
	</g>
	<g id="XMLID_4430_">
		<path id="XMLID_4754_" fill="#1D1D1B" d="M29.154,181.262c-0.5,0-0.903-0.404-0.903-0.904v-4.199c0-0.499,0.403-0.904,0.903-0.904
			s0.905,0.405,0.905,0.904v4.199C30.059,180.855,29.654,181.262,29.154,181.262z"/>
	</g>
</g>
<g id="XMLID_4423_">
	<g id="XMLID_4425_">
		<path id="XMLID_4751_" fill="#1D1D1B" d="M62.344,152.137h-4.2c-0.5,0-0.905-0.404-0.905-0.904s0.405-0.903,0.905-0.903h4.2
			c0.5,0,0.905,0.403,0.905,0.903S62.844,152.137,62.344,152.137z"/>
	</g>
	<g id="XMLID_4424_">
		<path id="XMLID_4750_" fill="#1D1D1B" d="M60.244,154.236c-0.5,0-0.905-0.404-0.905-0.904v-4.2c0-0.499,0.405-0.903,0.905-0.903
			s0.903,0.404,0.903,0.903v4.2C61.149,153.832,60.744,154.236,60.244,154.236z"/>
	</g>
</g>
<g id="XMLID_4422_">
	<path id="XMLID_4749_" fill="#1D1D1B" d="M24.66,204.279h-9.05c-0.5,0-0.903-0.404-0.903-0.904s0.403-0.905,0.903-0.905h9.05
		c0.5,0,0.903,0.405,0.903,0.905S25.16,204.279,24.66,204.279z"/>
</g>
<g id="XMLID_4421_">
	<path id="XMLID_4748_" fill="#1D1D1B" d="M447.578,204.245h-21.999c-0.499,0-0.902-0.405-0.902-0.905
		c0-0.499,0.403-0.904,0.902-0.904h21.999c0.5,0,0.905,0.405,0.905,0.904C448.485,203.84,448.078,204.245,447.578,204.245z"/>
</g>
<g id="XMLID_4420_">
	<path id="XMLID_4747_" fill="#1D1D1B" d="M464.163,204.275h-9.048c-0.5,0-0.903-0.404-0.903-0.904s0.403-0.904,0.903-0.904h9.048
		c0.499,0,0.904,0.404,0.904,0.904S464.662,204.275,464.163,204.275z"/>
</g>
<g id="XMLID_4419_">
	<path id="XMLID_4746_" fill="#1D1D1B" d="M476.688,204.245h-5.911c-0.499,0-0.904-0.405-0.904-0.905
		c0-0.499,0.405-0.904,0.904-0.904h5.911c0.5,0,0.905,0.405,0.905,0.904C477.593,203.84,477.188,204.245,476.688,204.245z"/>
</g>
<g id="XMLID_4418_">
	<line id="XMLID_4743_" fill="none" x1="417.379" y1="179.538" x2="422.926" y2="179.538"/>
	<path id="XMLID_4744_" fill="#1D1D1B" d="M422.926,180.443h-5.547c-0.5,0-0.905-0.405-0.905-0.905c0-0.499,0.405-0.904,0.905-0.904
		h5.547c0.499,0,0.902,0.405,0.902,0.904C423.828,180.038,423.425,180.443,422.926,180.443z"/>
</g>
<g id="XMLID_4417_">
	<line id="XMLID_4741_" fill="none" x1="431.709" y1="194.068" x2="431.709" y2="190.818"/>
	<path id="XMLID_4742_" fill="#1D1D1B" d="M431.709,194.975c-0.499,0-0.904-0.406-0.904-0.906v-3.248c0-0.5,0.405-0.904,0.904-0.904
		c0.5,0,0.903,0.404,0.903,0.904v3.248C432.614,194.568,432.209,194.975,431.709,194.975z"/>
</g>
<path id="XMLID_4730_" fill="#F14D53" d="M476.688,174.896c0-12.224-13.425-22.131-29.985-22.131c-3.977,0-7.771,0.57-11.245,1.608
	l0,0l-7.304-6.733c-0.966-0.893-2.527-0.192-2.509,1.12c0.063,4.077,0.129,10.288-0.063,10.427l0,0
	c-4.058,2.971-6.969,6.791-8.203,11.067h-4.857c-1.429,0-2.588,1.159-2.588,2.588v4.105c0,1.43,1.159,2.588,2.588,2.588h4.857
	c1.794,6.205,7.107,11.446,14.33,14.528v5.887c0,1.888,1.528,3.418,3.418,3.418h0.659c1.89,0,3.418-1.53,3.418-3.418v-3.62
	c2.396,0.455,4.907,0.696,7.496,0.696c2.591,0,5.103-0.241,7.496-0.696v3.62c0,1.888,1.53,3.418,3.418,3.418h0.661
	c1.888,0,3.418-1.53,3.418-3.418v-5.887C470.656,190.242,476.688,183.09,476.688,174.896z"/>
<path id="XMLID_4738_" fill="#1D1D1B" d="M458.277,204.275h-0.661c-2.384,0-4.32-1.938-4.32-4.322v-2.543
	c-4.313,0.697-8.874,0.697-13.186,0v2.543c0,2.384-1.938,4.322-4.322,4.322h-0.659c-2.386,0-4.322-1.938-4.322-4.322v-5.293
	c-7.049-3.155-12.132-8.287-14.093-14.217h-4.19c-1.926,0-3.492-1.566-3.492-3.493v-4.104c0-1.927,1.566-3.492,3.492-3.492h4.19
	c1.332-4.037,4.096-7.709,8.039-10.674c0.044-0.656,0.1-2.814-0.014-9.902c-0.015-0.977,0.529-1.828,1.419-2.229
	c0.894-0.398,1.893-0.234,2.608,0.428l6.929,6.39c3.515-0.998,7.213-1.505,11.007-1.505c17.033,0,30.893,10.336,30.893,23.037
	c0,8.086-5.729,15.613-14.993,19.764v5.293C462.6,202.337,460.659,204.275,458.277,204.275z M454.198,195.428
	c0.209,0,0.414,0.072,0.577,0.208c0.208,0.173,0.328,0.429,0.328,0.697v3.62c0,1.386,1.127,2.514,2.513,2.514h0.661
	c1.386,0,2.513-1.128,2.513-2.514v-5.885c0-0.362,0.219-0.689,0.552-0.832c8.907-3.805,14.441-10.83,14.441-18.34
	c0-11.705-13.046-21.229-29.081-21.229c-3.798,0-7.491,0.529-10.983,1.573c-0.309,0.091-0.64,0.015-0.873-0.202l-7.306-6.735
	c-0.258-0.237-0.533-0.151-0.643-0.104c-0.105,0.047-0.354,0.194-0.349,0.548c0.168,10.734,0.063,10.813-0.438,11.173
	c-3.982,2.918-6.705,6.58-7.863,10.587c-0.11,0.389-0.467,0.653-0.867,0.653h-4.857c-0.928,0-1.683,0.755-1.683,1.683v4.105
	c0,0.929,0.755,1.684,1.683,1.684h4.857c0.4,0,0.757,0.268,0.867,0.653c1.688,5.836,6.725,10.921,13.816,13.948
	c0.333,0.144,0.55,0.471,0.55,0.832v5.886c0,1.386,1.127,2.514,2.515,2.514h0.659c1.388,0,2.515-1.128,2.515-2.514v-3.62
	c0-0.271,0.12-0.523,0.328-0.697c0.208-0.172,0.479-0.24,0.746-0.189c4.759,0.904,9.895,0.904,14.652,0
	C454.086,195.434,454.143,195.428,454.198,195.428z"/>
<g id="XMLID_4415_">
	<path id="XMLID_4737_" fill="#1D1D1B" d="M461.025,161.227c-0.12,0-0.243-0.022-0.36-0.074c-4.479-1.951-9.616-2.982-14.856-2.982
		c-0.5,0-0.905-0.404-0.905-0.904c0-0.498,0.405-0.904,0.905-0.904c5.486,0,10.874,1.084,15.581,3.135
		c0.458,0.199,0.667,0.732,0.468,1.189C461.705,161.023,461.375,161.227,461.025,161.227z"/>
</g>
<g id="XMLID_4414_">
	<path id="XMLID_4736_" fill="#1D1D1B" d="M435.297,168.175c-2.621,0-4.754-2.134-4.754-4.755c0-0.5,0.402-0.904,0.902-0.904
		s0.905,0.404,0.905,0.904c0,1.624,1.32,2.945,2.944,2.945s2.943-1.321,2.943-2.945c0-0.5,0.405-0.904,0.905-0.904
		c0.499,0,0.904,0.404,0.904,0.904C440.052,166.041,437.919,168.175,435.297,168.175z"/>
</g>
<g id="XMLID_4413_">
	<path id="XMLID_4735_" fill="#1D1D1B" d="M480.536,179.161c-2.622,0-4.755-2.134-4.755-4.754c0-0.5,0.405-0.905,0.904-0.905
		c0.5,0,0.905,0.405,0.905,0.905c0,1.624,1.319,2.944,2.943,2.944s2.945-1.32,2.945-2.944c0-0.5,0.405-0.905,0.904-0.905
		c0.5,0,0.903,0.405,0.903,0.905C485.293,177.027,483.158,179.161,480.536,179.161z"/>
</g>
<g id="XMLID_4409_">
	<g id="XMLID_4411_">
		<path id="XMLID_4734_" fill="#F5F5F5" d="M460.722,191.049c-0.527,0-1.028-0.309-1.249-0.824
			c-0.294-0.688,0.024-1.485,0.716-1.781c6.784-2.896,10.998-8.211,10.998-13.867c0-0.749,0.607-1.356,1.357-1.356
			c0.749,0,1.355,0.607,1.355,1.356c0,6.764-4.847,13.033-12.646,16.363C461.078,191.014,460.899,191.049,460.722,191.049z"/>
	</g>
	<g id="XMLID_4410_">
		<path id="XMLID_4733_" fill="#F5F5F5" d="M420.513,176.837h-6.032c-0.749,0-1.357-0.606-1.357-1.356s0.608-1.356,1.357-1.356
			h6.032c0.75,0,1.355,0.606,1.355,1.356C421.868,176.229,421.263,176.837,420.513,176.837z"/>
	</g>
</g>
<g id="XMLID_4405_">
	<g id="XMLID_4407_">
		<path id="XMLID_4732_" fill="#1D1D1B" d="M456.826,132.303c-0.229,0-0.463-0.088-0.64-0.265l-4.324-4.325
			c-0.354-0.354-0.354-0.926,0-1.279c0.354-0.353,0.926-0.354,1.279,0l3.685,3.687l3.688-3.687c0.353-0.354,0.927-0.354,1.279,0
			c0.354,0.354,0.354,0.928,0,1.279l-4.325,4.325C457.29,132.215,457.06,132.303,456.826,132.303z"/>
	</g>
	<g id="XMLID_4406_">
		<path id="XMLID_4731_" fill="#1D1D1B" d="M456.826,132.303c-0.499,0-0.902-0.404-0.902-0.904v-24.353
			c0-0.5,0.403-0.905,0.902-0.905c0.5,0,0.905,0.405,0.905,0.905v24.353C457.733,131.896,457.326,132.303,456.826,132.303z"/>
	</g>
</g>
<g id="XMLID_4397_">
	<g id="XMLID_4404_">
		<circle id="XMLID_4722_" fill="#FBC248" cx="455.115" cy="146.026" r="9.721"/>
		<path id="XMLID_4727_" fill="#1D1D1B" d="M455.115,156.652c-5.857,0-10.626-4.769-10.626-10.627
			c0-5.857,4.769-10.625,10.626-10.625c5.858,0,10.625,4.768,10.625,10.625C465.74,151.886,460.976,156.652,455.115,156.652z
			 M455.115,137.211c-4.859,0-8.814,3.954-8.814,8.814s3.955,8.814,8.814,8.814c4.86,0,8.815-3.954,8.815-8.814
			C463.932,141.165,459.978,137.211,455.115,137.211z"/>
	</g>
	<g id="XMLID_4403_">
		<path id="XMLID_4724_" fill="#F2D496" d="M455.115,153.789c-4.278,0-7.763-3.482-7.763-7.764c0-4.28,3.482-7.762,7.763-7.762
			c4.279,0,7.764,3.48,7.764,7.762S459.396,153.789,455.115,153.789z M455.115,138.717c-4.029,0-7.311,3.279-7.311,7.311
			c0,4.033,3.279,7.312,7.311,7.312c4.03,0,7.312-3.278,7.312-7.312C462.427,141.996,459.147,138.717,455.115,138.717z"/>
	</g>
	<g id="XMLID_4398_">
		<g id="XMLID_4399_">
			<path id="XMLID_5067_" fill="#F2AD02" d="M454.462,150.754v-0.839c-0.698-0.108-1.357-0.368-1.979-0.774
				c-0.406-0.267-0.471-0.839-0.162-1.214l0,0c0.272-0.331,0.758-0.411,1.108-0.165c0.368,0.26,0.712,0.438,1.03,0.533v-1.711
				c-0.806-0.207-1.396-0.484-1.771-0.833c-0.376-0.349-0.563-0.851-0.563-1.505c0-0.655,0.215-1.195,0.644-1.62
				s0.992-0.68,1.688-0.765V141.3h1.218v0.586c0.487,0.068,0.976,0.222,1.461,0.462c0.454,0.227,0.616,0.793,0.327,1.209l0,0
				c-0.233,0.336-0.687,0.454-1.044,0.26c-0.261-0.142-0.508-0.243-0.744-0.312v1.654c0.827,0.215,1.438,0.502,1.833,0.86
				c0.394,0.359,0.591,0.869,0.591,1.527c0,0.659-0.22,1.202-0.66,1.633c-0.438,0.43-1.028,0.686-1.764,0.77v0.805H454.462z
				 M454.462,143.459c-0.329,0.115-0.493,0.326-0.493,0.632c0,0.308,0.164,0.54,0.493,0.701V143.459z M456.266,147.641
				c0-0.16-0.042-0.295-0.126-0.4c-0.085-0.106-0.237-0.206-0.46-0.301v1.414C456.07,148.23,456.266,147.993,456.266,147.641z"/>
		</g>
	</g>
</g>
<g id="XMLID_4396_">
	<path id="XMLID_4723_" fill="#F5F5F5" d="M107.358,166.656c-0.75,0-1.355-0.607-1.355-1.357c0-7.777,6.328-14.105,14.104-14.105
		c0.75,0,1.357,0.607,1.357,1.357c0,0.749-0.607,1.356-1.357,1.356c-6.28,0-11.392,5.11-11.392,11.392
		C108.716,166.049,108.108,166.656,107.358,166.656z"/>
</g>
<g id="XMLID_4390_">
	<g id="XMLID_4395_">
		<path id="XMLID_4718_" fill="#12C48B" d="M400.419,203.371h-1.864c-5.648,0-10.229-4.579-10.229-10.229l0,0
			c0-5.647,4.579-10.229,10.229-10.229h1.864c5.647,0,10.229,4.579,10.229,10.229l0,0
			C410.647,198.792,406.068,203.371,400.419,203.371z"/>
		<path id="XMLID_4719_" fill="#1D1D1B" d="M403.522,204.275h-8.071c-4.427,0-8.027-3.604-8.027-8.028v-6.207
			c0-4.427,3.603-8.029,8.027-8.029h8.071c4.428,0,8.029,3.604,8.029,8.029v6.207C411.552,200.674,407.948,204.275,403.522,204.275z
			 M395.449,183.82c-3.43,0-6.22,2.789-6.22,6.22v6.207c0,3.43,2.79,6.22,6.22,6.22h8.071c3.43,0,6.22-2.79,6.22-6.22v-6.207
			c0-3.431-2.79-6.22-6.22-6.22H395.449z"/>
	</g>
	<g id="XMLID_4393_">
		<g id="XMLID_4394_">
			<path id="XMLID_4714_" fill="#12C48B" d="M406.817,182.916h-3.079v-5.473c0-2.39-1.939-4.329-4.329-4.329
				c-2.387,0-4.329,1.94-4.329,4.329v5.473H392v-5.473c0-4.086,3.322-7.408,7.407-7.408s7.408,3.322,7.408,7.408L406.817,182.916
				L406.817,182.916z"/>
			<path id="XMLID_4715_" fill="#1D1D1B" d="M406.817,183.82h-3.079c-0.499,0-0.903-0.405-0.903-0.904v-5.473
				c0-1.891-1.535-3.426-3.426-3.426c-1.888,0-3.425,1.535-3.425,3.426v5.473c0,0.499-0.404,0.904-0.904,0.904h-3.077
				c-0.499,0-0.904-0.405-0.904-0.904v-5.473c0-4.584,3.729-8.313,8.313-8.313s8.313,3.729,8.313,8.313v5.473
				C407.723,183.415,407.317,183.82,406.817,183.82z M404.644,182.011h1.269v-4.567c0-3.586-2.917-6.502-6.503-6.502
				s-6.503,2.916-6.503,6.502v4.567h1.271v-4.567c0-2.885,2.349-5.232,5.232-5.232c2.887,0,5.234,2.35,5.234,5.232V182.011
				L404.644,182.011z"/>
		</g>
	</g>
	<g id="XMLID_4392_">
		<path id="XMLID_4388_" fill="#FBC248" d="M402.314,190.787c0-1.563-1.266-2.827-2.827-2.827c-1.561,0-2.828,1.267-2.828,2.827
			c0,0.855,0.381,1.622,0.981,2.141l-0.379,5.399h4.451l-0.382-5.399C401.934,192.409,402.314,191.643,402.314,190.787z"/>
		<path id="XMLID_4711_" fill="#1D1D1B" d="M401.713,199.23h-4.451c-0.251,0-0.491-0.104-0.662-0.287
			c-0.171-0.184-0.259-0.43-0.24-0.68l0.352-4.986c-0.611-0.68-0.954-1.564-0.954-2.49c0-2.059,1.674-3.73,3.73-3.73
			c2.06,0,3.731,1.674,3.731,3.73c0,0.926-0.343,1.811-0.954,2.49l0.351,4.986c0.02,0.25-0.068,0.495-0.239,0.68
			C402.202,199.128,401.963,199.23,401.713,199.23z M398.232,197.422h2.51l-0.312-4.431c-0.021-0.285,0.096-0.563,0.312-0.749
			c0.425-0.366,0.667-0.896,0.667-1.455c0-1.061-0.86-1.922-1.922-1.922c-1.061,0-1.923,0.861-1.923,1.922
			c0,0.559,0.243,1.089,0.667,1.455c0.216,0.188,0.332,0.464,0.313,0.749L398.232,197.422z"/>
	</g>
	<g id="XMLID_4391_">
		<path id="XMLID_4389_" fill="#F5F5F5" d="M404.214,200.938c-0.749,0-1.357-0.606-1.357-1.355c0-0.75,0.608-1.355,1.357-1.355
			c1.033,0,1.878-0.845,1.878-1.879v-4.361c0-0.75,0.605-1.356,1.355-1.356c0.749,0,1.357,0.606,1.357,1.356v4.361
			C408.807,198.878,406.744,200.938,404.214,200.938z"/>
	</g>
</g>
<g id="XMLID_4380_">
	<path id="XMLID_4697_" fill="#1D1D1B" d="M331.32,217.281H204.87c-0.5,0-0.905-0.405-0.905-0.905c0-0.499,0.405-0.903,0.905-0.903
		H331.32c0.499,0,0.904,0.404,0.904,0.903C332.225,216.876,331.819,217.281,331.32,217.281z"/>
</g>
<g id="XMLID_4379_">
	<path id="XMLID_4696_" fill="#1D1D1B" d="M362.439,217.281h-24.063c-0.5,0-0.905-0.405-0.905-0.905
		c0-0.499,0.405-0.903,0.905-0.903h24.063c0.499,0,0.904,0.404,0.904,0.903C363.344,216.876,362.938,217.281,362.439,217.281z"/>
</g>
<g id="XMLID_4378_">
	<path id="XMLID_4695_" fill="#1D1D1B" d="M388.978,217.281h-18.028c-0.5,0-0.903-0.405-0.903-0.905
		c0-0.499,0.403-0.903,0.903-0.903h18.028c0.499,0,0.904,0.404,0.904,0.903C389.882,216.876,389.477,217.281,388.978,217.281z"/>
</g>
<g id="XMLID_4377_">
	<path id="XMLID_4694_" fill="#1D1D1B" d="M401.823,217.281h-4.67c-0.5,0-0.903-0.405-0.903-0.905c0-0.499,0.403-0.903,0.903-0.903
		h4.67c0.5,0,0.905,0.404,0.905,0.903C402.73,216.876,402.323,217.281,401.823,217.281z"/>
</g>
<g id="XMLID_4373_">
	<path id="XMLID_4693_" fill="#1D1D1B" d="M221.482,210.495h-69.326c-0.5,0-0.903-0.405-0.903-0.904c0-0.5,0.403-0.905,0.903-0.905
		h69.326c0.5,0,0.905,0.405,0.905,0.905C222.387,210.09,221.981,210.495,221.482,210.495z"/>
</g>
<g id="XMLID_4375_">
	<path id="XMLID_4692_" fill="#1D1D1B" d="M103.314,217.281H67.238c-0.5,0-0.903-0.405-0.903-0.905c0-0.499,0.403-0.903,0.903-0.903
		h36.076c0.5,0,0.905,0.404,0.905,0.903C104.219,216.876,103.813,217.281,103.314,217.281z"/>
</g>
<g id="XMLID_4374_">
	<path id="XMLID_4691_" fill="#1D1D1B" d="M132.399,217.281h-15.602c-0.5,0-0.905-0.405-0.905-0.905
		c0-0.499,0.405-0.903,0.905-0.903h15.602c0.5,0,0.905,0.404,0.905,0.903C133.304,216.876,132.899,217.281,132.399,217.281z"/>
</g>
<g id="XMLID_4688_">
	<path id="XMLID_4690_" fill="#1D1D1B" d="M422.926,210.495H362.44c-0.5,0-0.905-0.405-0.905-0.904c0-0.5,0.405-0.905,0.905-0.905
		h60.486c0.499,0,0.902,0.405,0.902,0.905C423.828,210.09,423.425,210.495,422.926,210.495z"/>
</g>
<g id="XMLID_4689_">
	<path id="XMLID_4960_" fill="#1D1D1B" d="M454.462,210.495h-9.065c-0.5,0-0.905-0.405-0.905-0.904c0-0.5,0.405-0.905,0.905-0.905
		h9.065c0.5,0,0.903,0.405,0.903,0.905C455.365,210.09,454.962,210.495,454.462,210.495z"/>
</g>
<g id="XMLID_4962_">
	<path id="XMLID_4988_" fill="#1D1D1B" d="M87.735,210.495H51.673c-0.5,0-0.905-0.405-0.905-0.904c0-0.5,0.405-0.905,0.905-0.905
		h36.062c0.5,0,0.905,0.405,0.905,0.905C88.64,210.09,88.234,210.495,87.735,210.495z"/>
</g>
<g id="XMLID_5001_">
	<g id="XMLID_5005_">
		<g id="XMLID_5010_">
			<path id="XMLID_5011_" fill="#1D1D1B" d="M340.097,88.28c0-0.231,0.089-0.464,0.265-0.64c0.354-0.354,0.927-0.354,1.28,0
				l4.324,4.324c0.17,0.17,0.266,0.4,0.266,0.64l0,0c0,0.24-0.096,0.471-0.266,0.64l-4.324,4.325c-0.354,0.354-0.927,0.354-1.28,0
				c-0.353-0.353-0.353-0.927,0-1.279l3.688-3.686l-3.688-3.685C340.186,88.743,340.097,88.512,340.097,88.28z"/>
		</g>
		<g id="XMLID_5007_">
			<path id="XMLID_5009_" fill="#1D1D1B" d="M320.069,92.604c0-0.499,0.405-0.904,0.904-0.904h24.353c0.5,0,0.905,0.405,0.905,0.904
				c0,0.5-0.405,0.905-0.905,0.905h-24.353C320.475,93.51,320.069,93.104,320.069,92.604z"/>
		</g>
	</g>
	<g id="XMLID_5002_">
		<g id="XMLID_5003_">
			<path id="XMLID_5004_" fill="#1D1D1B" d="M321.368,102.365c0-0.24,0.097-0.47,0.267-0.64l4.325-4.325
				c0.354-0.353,0.926-0.353,1.277,0c0.354,0.354,0.354,0.927,0,1.28l-3.685,3.685l3.685,3.686c0.354,0.353,0.354,0.926,0,1.279
				c-0.354,0.353-0.926,0.354-1.277,0l-4.325-4.325C321.465,102.835,321.368,102.605,321.368,102.365z"/>
		</g>
		<g id="XMLID_5006_">
			<path id="XMLID_5008_" fill="#1D1D1B" d="M321.368,102.365c0-0.5,0.405-0.904,0.904-0.904h24.354c0.5,0,0.903,0.404,0.903,0.904
				s-0.403,0.905-0.903,0.905h-24.354C321.775,103.271,321.368,102.865,321.368,102.365z"/>
		</g>
	</g>
</g>
</svg>
