<svg version="1.1" id="rJ4J69LWX" xmlns="http://www.w3.org/2000/svg" xmlns:xlink="http://www.w3.org/1999/xlink" x="0px" y="0px" viewBox="0 0 500 225" enable-background="new 13 0 500 225" xml:space="preserve"><style>@-webkit-keyframes HJYzNkT5I-7_B11F6cUZQ_Animation{0%{-webkit-transform: rotate(0deg);transform: rotate(0deg);}100%{-webkit-transform: rotate(-360deg);transform: rotate(-360deg);}}@keyframes HJYzNkT5I-7_B11F6cUZQ_Animation{0%{-webkit-transform: rotate(0deg);transform: rotate(0deg);}100%{-webkit-transform: rotate(-360deg);transform: rotate(-360deg);}}@-webkit-keyframes SJufE1acLbm_SyWupqUW7_Animation{0%{-webkit-transform: rotate(0deg);transform: rotate(0deg);}100%{-webkit-transform: rotate(-360deg);transform: rotate(-360deg);}}@keyframes SJufE1acLbm_SyWupqUW7_Animation{0%{-webkit-transform: rotate(0deg);transform: rotate(0deg);}100%{-webkit-transform: rotate(-360deg);transform: rotate(-360deg);}}@-webkit-keyframes BkPVypqIZX_rkQ_T58Z7_Animation{0%{-webkit-transform: rotate(0deg);transform: rotate(0deg);}100%{-webkit-transform: rotate(-360deg);transform: rotate(-360deg);}}@keyframes BkPVypqIZX_rkQ_T58Z7_Animation{0%{-webkit-transform: rotate(0deg);transform: rotate(0deg);}100%{-webkit-transform: rotate(-360deg);transform: rotate(-360deg);}}@-webkit-keyframes HyUVJacLW7_HJUdp5I-7_Animation{0%{-webkit-transform: rotate(0deg);transform: rotate(0deg);}100%{-webkit-transform: rotate(-360deg);transform: rotate(-360deg);}}@keyframes HyUVJacLW7_HJUdp5I-7_Animation{0%{-webkit-transform: rotate(0deg);transform: rotate(0deg);}100%{-webkit-transform: rotate(-360deg);transform: rotate(-360deg);}}@-webkit-keyframes B1TGEyaq8-m_BkmMaqLZ7_Animation{0%{-webkit-transform: rotate(0deg);transform: rotate(0deg);}100%{-webkit-transform: rotate(360deg);transform: rotate(360deg);}}@keyframes B1TGEyaq8-m_BkmMaqLZ7_Animation{0%{-webkit-transform: rotate(0deg);transform: rotate(0deg);}100%{-webkit-transform: rotate(360deg);transform: rotate(360deg);}}@-webkit-keyframes SynGNya5LZm_r12bpqLZQ_Animation{0%{-webkit-transform: rotate(0deg);transform: rotate(0deg);}100%{-webkit-transform: rotate(360deg);transform: rotate(360deg);}}@keyframes SynGNya5LZm_r12bpqLZQ_Animation{0%{-webkit-transform: rotate(0deg);transform: rotate(0deg);}100%{-webkit-transform: rotate(360deg);transform: rotate(360deg);}}@-webkit-keyframes SkmN1aq8bm_HkJMaqIWm_Animation{0%{-webkit-transform: rotate(0deg);transform: rotate(0deg);}100%{-webkit-transform: rotate(360deg);transform: rotate(360deg);}}@keyframes SkmN1aq8bm_HkJMaqIWm_Animation{0%{-webkit-transform: rotate(0deg);transform: rotate(0deg);}100%{-webkit-transform: rotate(360deg);transform: rotate(360deg);}}@-webkit-keyframes r1fVJaqLWX_Bk-fT9LWm_Animation{0%{-webkit-transform: rotate(0deg);transform: rotate(0deg);}100%{-webkit-transform: rotate(360deg);transform: rotate(360deg);}}@keyframes r1fVJaqLWX_Bk-fT9LWm_Animation{0%{-webkit-transform: rotate(0deg);transform: rotate(0deg);}100%{-webkit-transform: rotate(360deg);transform: rotate(360deg);}}#rJ4J69LWX *{-webkit-animation-duration: 8s;animation-duration: 8s;-webkit-animation-iteration-count: infinite;animation-iteration-count: infinite;-webkit-animation-timing-function: cubic-bezier(0, 0, 1, 1);animation-timing-function: cubic-bezier(0, 0, 1, 1);}#r1fVJaqLWX{fill: #FBC248;}#SkmN1aq8bm{fill: #1D1D1B;}#HyUVJacLW7{fill: #12C48B;}#BkPVypqIZX{fill: #1D1D1B;}#H1YNyT98Z7{fill: #ECECEC;}#rkqN16c8ZX{fill: #1D1D1B;-webkit-transform-origin: 50% 50%;transform-origin: 50% 50%;transform-box: fill-box;}#S1nVk6qL-Q{fill: #ECECEC;}#SkpV1a58Z7{fill: #1D1D1B;}#SJJgNkp58ZQ{fill: #ECECEC;}#SJxxVy65UWX{fill: #1D1D1B;}#BJzg4k69I-Q{fill: #ECECEC;}#rkQgVJa9IWQ{fill: #1D1D1B;}#S1BeE1p98W7{fill: #ECECEC;}#SkUlEka58bX{fill: #1D1D1B;}#rytlN1Tq8-Q{fill: #1D1D1B;}#H1oxE16cUWm{fill: #1D1D1B;}#rJAx4JT5UWX{fill: #1D1D1B;}#Skeb41Tq8bm{fill: #1D1D1B;}#H1QZEypqI-Q{fill: #1D1D1B;}#BkHWEya9LZm{fill: #1D1D1B;}#ByuZEk65UbX{fill: #1D1D1B;}#SyqbEk6c8Zm{fill: #1D1D1B;}#HypWVkacUb7{fill: #1D1D1B;}#rkkfVyp5IZQ{fill: #1D1D1B;}#BkGMEka98Zm{fill: #1D1D1B;}#r1VM4J6cLZm{fill: #1D1D1B;}#SJufE1acLbm{fill: #FBC248;}#HJYzNkT5I-7{fill: #1D1D1B;}#SynGNya5LZm{fill: #12C48B;}#B1TGEyaq8-m{fill: #1D1D1B;}#r1fVJaqLWX_Bk-fT9LWm{-webkit-animation-name: r1fVJaqLWX_Bk-fT9LWm_Animation;animation-name: r1fVJaqLWX_Bk-fT9LWm_Animation;-webkit-transform-origin: 50% 50%;transform-origin: 50% 50%;transform-box: fill-box;-webkit-transform: rotate(0deg);transform: rotate(0deg);}#SkmN1aq8bm_HkJMaqIWm{-webkit-animation-name: SkmN1aq8bm_HkJMaqIWm_Animation;animation-name: SkmN1aq8bm_HkJMaqIWm_Animation;-webkit-transform-origin: 50% 50%;transform-origin: 50% 50%;transform-box: fill-box;-webkit-transform: rotate(0deg);transform: rotate(0deg);}#SynGNya5LZm_r12bpqLZQ{-webkit-animation-name: SynGNya5LZm_r12bpqLZQ_Animation;animation-name: SynGNya5LZm_r12bpqLZQ_Animation;-webkit-transform-origin: 50% 50%;transform-origin: 50% 50%;transform-box: fill-box;-webkit-transform: rotate(0deg);transform: rotate(0deg);}#B1TGEyaq8-m_BkmMaqLZ7{-webkit-animation-name: B1TGEyaq8-m_BkmMaqLZ7_Animation;animation-name: B1TGEyaq8-m_BkmMaqLZ7_Animation;-webkit-transform-origin: 50% 50%;transform-origin: 50% 50%;transform-box: fill-box;-webkit-transform: rotate(0deg);transform: rotate(0deg);}#HyUVJacLW7_HJUdp5I-7{-webkit-animation-name: HyUVJacLW7_HJUdp5I-7_Animation;animation-name: HyUVJacLW7_HJUdp5I-7_Animation;-webkit-transform-origin: 50% 50%;transform-origin: 50% 50%;transform-box: fill-box;-webkit-transform: rotate(0deg);transform: rotate(0deg);}#BkPVypqIZX_rkQ_T58Z7{-webkit-animation-name: BkPVypqIZX_rkQ_T58Z7_Animation;animation-name: BkPVypqIZX_rkQ_T58Z7_Animation;-webkit-transform-origin: 50% 50%;transform-origin: 50% 50%;transform-box: fill-box;-webkit-transform: rotate(0deg);transform: rotate(0deg);}#SJufE1acLbm_SyWupqUW7{-webkit-animation-name: SJufE1acLbm_SyWupqUW7_Animation;animation-name: SJufE1acLbm_SyWupqUW7_Animation;-webkit-transform-origin: 50% 50%;transform-origin: 50% 50%;transform-box: fill-box;-webkit-transform: rotate(0deg);transform: rotate(0deg);}#HJYzNkT5I-7_B11F6cUZQ{-webkit-animation-name: HJYzNkT5I-7_B11F6cUZQ_Animation;animation-name: HJYzNkT5I-7_B11F6cUZQ_Animation;-webkit-transform-origin: 50% 50%;transform-origin: 50% 50%;transform-box: fill-box;-webkit-transform: rotate(0deg);transform: rotate(0deg);}</style>
<g id="BJgE16qU-Q">
	<g id="SJbNkaqUWm">
		<g id="r1fVJaqLWX_Bk-fT9LWm" data-animator-group="true" data-animator-type="1"><path id="r1fVJaqLWX" d="M112.44,48.987l1.782,1.782c0.721,0.722,1.815,0.873,2.731,0.423&#10;&#9;&#9;&#9;c0.46-0.226,0.932-0.422,1.41-0.586c0.967-0.332,1.633-1.21,1.633-2.231v-2.517c0-1.299,1.053-2.353,2.352-2.353l0,0&#10;&#9;&#9;&#9;c1.299,0,2.354,1.053,2.354,2.353v2.517c0,1.021,0.667,1.899,1.632,2.231c0.479,0.165,0.951,0.36,1.412,0.586&#10;&#9;&#9;&#9;c0.916,0.45,2.01,0.298,2.73-0.423l1.782-1.782c0.918-0.918,2.408-0.918,3.327,0l0,0c0.918,0.918,0.918,2.408,0,3.327&#10;&#9;&#9;&#9;l-1.782,1.782c-0.722,0.722-0.873,1.815-0.423,2.731c0.226,0.46,0.421,0.932,0.586,1.411c0.332,0.966,1.21,1.632,2.23,1.632h2.518&#10;&#9;&#9;&#9;c1.299,0,2.352,1.053,2.352,2.352l0,0c0,1.299-1.053,2.353-2.352,2.353h-2.518c-1.021,0-1.898,0.667-2.23,1.632&#10;&#9;&#9;&#9;c-0.165,0.479-0.36,0.951-0.586,1.411c-0.45,0.916-0.298,2.01,0.423,2.731l1.782,1.781c0.918,0.919,0.918,2.408,0,3.327l0,0&#10;&#9;&#9;&#9;c-0.919,0.919-2.408,0.919-3.327,0l-1.782-1.782c-0.722-0.721-1.814-0.873-2.73-0.423c-0.46,0.226-0.933,0.422-1.411,0.587&#10;&#9;&#9;&#9;c-0.966,0.332-1.632,1.21-1.632,2.231v2.517c0,1.299-1.054,2.353-2.353,2.353l0,0c-1.299,0-2.352-1.054-2.352-2.353V76.07&#10;&#9;&#9;&#9;c0-1.021-0.667-1.899-1.632-2.231c-0.479-0.165-0.951-0.36-1.411-0.587c-0.916-0.45-2.011-0.298-2.731,0.423l-1.782,1.782&#10;&#9;&#9;&#9;c-0.918,0.919-2.407,0.919-3.327,0l0,0c-0.918-0.919-0.918-2.408,0-3.327l1.782-1.781c0.723-0.722,0.873-1.815,0.423-2.731&#10;&#9;&#9;&#9;c-0.226-0.46-0.422-0.932-0.587-1.411c-0.332-0.965-1.21-1.632-2.23-1.632h-2.518c-1.299,0-2.353-1.053-2.353-2.352l0,0&#10;&#9;&#9;&#9;c0-1.299,1.053-2.352,2.353-2.352h2.518c1.021,0,1.898-0.667,2.23-1.632c0.165-0.479,0.36-0.951,0.586-1.411&#10;&#9;&#9;&#9;c0.45-0.916,0.299-2.01-0.423-2.731l-1.782-1.782c-0.918-0.918-0.918-2.408,0-3.327l0,0&#10;&#9;&#9;&#9;C110.032,48.068,111.522,48.068,112.44,48.987z M117.083,67.489c2.909,2.908,7.624,2.908,10.533,0&#10;&#9;&#9;&#9;c2.908-2.909,2.908-7.625,0-10.533c-2.909-2.909-7.624-2.909-10.533,0C114.174,59.864,114.174,64.58,117.083,67.489z"/></g>
		<g id="SkmN1aq8bm_HkJMaqIWm" data-animator-group="true" data-animator-type="1"><path id="SkmN1aq8bm" d="M122.35,81.845c-1.796,0-3.257-1.461-3.257-3.257v-2.517&#10;&#9;&#9;&#9;c0-0.623-0.401-1.163-1.022-1.376c-0.517-0.178-1.025-0.39-1.516-0.63c-0.579-0.284-1.259-0.184-1.693,0.25l-1.781,1.782&#10;&#9;&#9;&#9;c-1.271,1.27-3.336,1.271-4.606,0c-0.615-0.615-0.954-1.434-0.954-2.303c0-0.87,0.339-1.688,0.954-2.304l1.782-1.781&#10;&#9;&#9;&#9;c0.434-0.434,0.535-1.114,0.25-1.693c-0.24-0.489-0.453-0.999-0.63-1.515c-0.213-0.621-0.753-1.022-1.376-1.022h-2.518&#10;&#9;&#9;&#9;c-1.796,0-3.257-1.461-3.257-3.257c0-1.796,1.461-3.257,3.257-3.257h2.518c0.623,0,1.163-0.401,1.376-1.021&#10;&#9;&#9;&#9;c0.177-0.515,0.389-1.025,0.63-1.516c0.284-0.579,0.184-1.259-0.25-1.693l-1.782-1.782c-1.27-1.27-1.27-3.336,0-4.606&#10;&#9;&#9;&#9;c1.271-1.27,3.337-1.27,4.606,0l0,0l1.781,1.782c0.436,0.434,1.115,0.535,1.693,0.25c0.491-0.241,1-0.453,1.516-0.63&#10;&#9;&#9;&#9;c0.621-0.213,1.022-0.753,1.022-1.375v-2.517c0-1.796,1.461-3.257,3.257-3.257s3.257,1.461,3.257,3.257v2.517&#10;&#9;&#9;&#9;c0,0.623,0.401,1.163,1.021,1.376c0.515,0.177,1.024,0.389,1.516,0.629c0.579,0.284,1.259,0.183,1.693-0.25l1.782-1.782&#10;&#9;&#9;&#9;c1.27-1.27,3.336-1.27,4.605,0c0.615,0.615,0.954,1.433,0.954,2.303s-0.339,1.688-0.954,2.303l-1.782,1.782&#10;&#9;&#9;&#9;c-0.434,0.434-0.534,1.114-0.251,1.693c0.241,0.491,0.453,1.001,0.63,1.516c0.214,0.621,0.754,1.022,1.377,1.022h2.517&#10;&#9;&#9;&#9;c1.796,0,3.257,1.461,3.257,3.257c0,1.796-1.461,3.257-3.257,3.257h-2.517c-0.623,0-1.163,0.401-1.377,1.021&#10;&#9;&#9;&#9;c-0.178,0.518-0.39,1.027-0.63,1.517c-0.283,0.578-0.183,1.259,0.251,1.692l1.782,1.782c0.615,0.614,0.954,1.433,0.954,2.303&#10;&#9;&#9;&#9;c0,0.869-0.339,1.688-0.954,2.303c-1.27,1.27-3.336,1.271-4.605,0l-1.782-1.782c-0.435-0.434-1.114-0.534-1.693-0.25&#10;&#9;&#9;&#9;c-0.491,0.24-1.001,0.452-1.516,0.63c-0.621,0.213-1.022,0.753-1.022,1.376v2.517C125.606,80.384,124.146,81.845,122.35,81.845z&#10;&#9;&#9;&#9; M115.874,72.096c0.5,0,1.006,0.113,1.479,0.345c0.422,0.208,0.862,0.391,1.308,0.544c1.341,0.461,2.242,1.701,2.242,3.087v2.517&#10;&#9;&#9;&#9;c0,0.798,0.649,1.447,1.447,1.447s1.448-0.649,1.448-1.447v-2.517c0-1.386,0.901-2.626,2.243-3.087&#10;&#9;&#9;&#9;c0.442-0.153,0.883-0.336,1.307-0.544c1.273-0.625,2.788-0.386,3.771,0.596l1.781,1.782c0.564,0.564,1.482,0.564,2.047,0&#10;&#9;&#9;&#9;c0.273-0.273,0.425-0.637,0.425-1.023c0-0.386-0.15-0.75-0.425-1.023l-1.781-1.782c-0.981-0.981-1.222-2.496-0.596-3.77&#10;&#9;&#9;&#9;c0.207-0.422,0.391-0.861,0.543-1.307c0.462-1.341,1.702-2.243,3.088-2.243h2.517c0.798,0,1.447-0.649,1.447-1.447&#10;&#9;&#9;&#9;c0-0.798-0.649-1.448-1.447-1.448H136.2c-1.386,0-2.626-0.901-3.088-2.243c-0.152-0.443-0.335-0.883-0.543-1.307&#10;&#9;&#9;&#9;c-0.625-1.273-0.386-2.788,0.597-3.77l1.781-1.782c0.273-0.273,0.425-0.637,0.425-1.023c0-0.387-0.15-0.75-0.425-1.024&#10;&#9;&#9;&#9;c-0.563-0.564-1.482-0.564-2.047,0l-1.781,1.782c-0.981,0.981-2.497,1.221-3.771,0.595c-0.423-0.208-0.863-0.39-1.307-0.542&#10;&#9;&#9;&#9;c-1.341-0.462-2.243-1.702-2.243-3.087v-2.517c0-0.798-0.649-1.448-1.447-1.448s-1.448,0.649-1.448,1.448v2.517&#10;&#9;&#9;&#9;c0,1.385-0.9,2.626-2.242,3.087c-0.443,0.153-0.884,0.335-1.308,0.543c-1.272,0.625-2.789,0.386-3.77-0.596l-1.782-1.781&#10;&#9;&#9;&#9;c-0.564-0.565-1.483-0.565-2.047,0c-0.564,0.564-0.564,1.482,0,2.047l1.781,1.782c0.981,0.982,1.221,2.497,0.596,3.77&#10;&#9;&#9;&#9;c-0.208,0.424-0.391,0.863-0.543,1.307c-0.461,1.342-1.702,2.243-3.087,2.243h-2.518c-0.798,0-1.447,0.649-1.447,1.447&#10;&#9;&#9;&#9;c0,0.798,0.648,1.448,1.447,1.448h2.516c1.386,0,2.626,0.901,3.087,2.243c0.153,0.444,0.336,0.884,0.543,1.307&#10;&#9;&#9;&#9;c0.625,1.273,0.386,2.788-0.596,3.77l-1.781,1.782c-0.274,0.273-0.424,0.637-0.424,1.023c0,0.386,0.149,0.75,0.424,1.023&#10;&#9;&#9;&#9;c0.563,0.564,1.481,0.564,2.047,0l1.782-1.782C114.2,72.42,115.027,72.096,115.874,72.096z M122.35,70.571&#10;&#9;&#9;&#9;c-2.139,0-4.278-0.814-5.906-2.442c-3.257-3.257-3.257-8.556,0-11.813c3.257-3.257,8.557-3.257,11.813,0&#10;&#9;&#9;&#9;c3.257,3.257,3.257,8.556,0,11.813C126.627,69.757,124.488,70.571,122.35,70.571z M122.35,55.682&#10;&#9;&#9;&#9;c-1.676,0-3.351,0.638-4.627,1.914c-2.551,2.551-2.551,6.702,0,9.253c2.551,2.551,6.702,2.551,9.253,0&#10;&#9;&#9;&#9;c2.551-2.551,2.551-6.703,0-9.253C125.7,56.32,124.025,55.682,122.35,55.682z"/></g>
	</g>
</g>
<g id="Sk4NkacU-X">
	<g id="S1HV1TqLb7">
		<g id="HyUVJacLW7_HJUdp5I-7" data-animator-group="true" data-animator-type="1"><path id="HyUVJacLW7" d="M140.041,70.821l0.819,1.744c0.332,0.706,1.08,1.099,1.855,1.013&#10;&#9;&#9;&#9;c0.39-0.043,0.78-0.062,1.167-0.056c0.781,0.012,1.488-0.447,1.753-1.183l0.653-1.811c0.337-0.935,1.368-1.419,2.302-1.082l0,0&#10;&#9;&#9;&#9;c0.934,0.337,1.419,1.368,1.082,2.303l-0.653,1.811c-0.265,0.734-0.013,1.539,0.597,2.028c0.302,0.243,0.59,0.506,0.862,0.788&#10;&#9;&#9;&#9;c0.542,0.562,1.368,0.735,2.074,0.404l1.744-0.82c0.898-0.423,1.97-0.036,2.393,0.862l0,0c0.422,0.899,0.036,1.971-0.862,2.394&#10;&#9;&#9;&#9;l-1.744,0.819c-0.706,0.332-1.1,1.08-1.014,1.855c0.043,0.39,0.063,0.779,0.057,1.167c-0.012,0.781,0.447,1.488,1.182,1.753&#10;&#9;&#9;&#9;l1.812,0.653c0.935,0.337,1.419,1.367,1.082,2.302l0,0c-0.337,0.935-1.368,1.419-2.303,1.082l-1.811-0.652&#10;&#9;&#9;&#9;c-0.734-0.265-1.539-0.013-2.028,0.596c-0.243,0.302-0.506,0.591-0.788,0.863c-0.561,0.542-0.735,1.368-0.403,2.074l0.819,1.744&#10;&#9;&#9;&#9;c0.422,0.898,0.036,1.97-0.862,2.393l0,0c-0.899,0.423-1.972,0.036-2.394-0.862l-0.82-1.744c-0.332-0.706-1.079-1.099-1.854-1.013&#10;&#9;&#9;&#9;c-0.39,0.043-0.78,0.062-1.167,0.056c-0.781-0.012-1.488,0.448-1.753,1.183l-0.653,1.811c-0.337,0.935-1.367,1.419-2.302,1.082&#10;&#9;&#9;&#9;l0,0c-0.936-0.337-1.419-1.367-1.083-2.302l0.653-1.812c0.265-0.734,0.013-1.539-0.596-2.028&#10;&#9;&#9;&#9;c-0.303-0.243-0.591-0.506-0.862-0.788c-0.542-0.561-1.369-0.735-2.075-0.403l-1.744,0.819c-0.899,0.423-1.971,0.036-2.393-0.862&#10;&#9;&#9;&#9;l0,0c-0.424-0.899-0.037-1.971,0.861-2.394l1.744-0.819c0.706-0.332,1.099-1.08,1.013-1.855c-0.043-0.39-0.062-0.779-0.056-1.167&#10;&#9;&#9;&#9;c0.012-0.781-0.448-1.488-1.182-1.753l-1.812-0.652c-0.935-0.337-1.419-1.368-1.082-2.303l0,0&#10;&#9;&#9;&#9;c0.337-0.935,1.368-1.419,2.302-1.082l1.812,0.652c0.734,0.265,1.54,0.014,2.028-0.596c0.242-0.302,0.506-0.59,0.788-0.862&#10;&#9;&#9;&#9;c0.561-0.543,0.735-1.369,0.403-2.075l-0.819-1.743c-0.423-0.899-0.036-1.971,0.862-2.394l0,0&#10;&#9;&#9;&#9;C138.546,69.536,139.618,69.923,140.041,70.821z M138.583,85.336c1.338,2.847,4.729,4.069,7.577,2.731&#10;&#9;&#9;&#9;c2.846-1.339,4.068-4.73,2.73-7.577c-1.338-2.847-4.73-4.07-7.577-2.731C138.467,79.097,137.244,82.489,138.583,85.336z"/></g>
		<g id="BkPVypqIZX_rkQ_T58Z7" data-animator-group="true" data-animator-type="1"><path id="BkPVypqIZX" d="M139.49,97.39c-0.305,0-0.613-0.052-0.915-0.161c-0.68-0.244-1.224-0.739-1.53-1.393&#10;&#9;&#9;&#9;c-0.308-0.654-0.342-1.388-0.098-2.067l0.653-1.811c0.13-0.36,0.008-0.76-0.312-1.017c-0.332-0.267-0.65-0.558-0.947-0.864&#10;&#9;&#9;&#9;c-0.284-0.294-0.692-0.377-1.039-0.214l-1.744,0.82c-0.654,0.308-1.388,0.342-2.066,0.096c-0.681-0.244-1.224-0.739-1.53-1.393&#10;&#9;&#9;&#9;c-0.634-1.35-0.053-2.963,1.296-3.597l1.744-0.82c0.348-0.163,0.543-0.53,0.499-0.937c-0.047-0.424-0.068-0.854-0.063-1.28&#10;&#9;&#9;&#9;c0.006-0.409-0.223-0.758-0.584-0.889l-1.811-0.652c-0.679-0.245-1.224-0.739-1.529-1.394c-0.308-0.653-0.342-1.388-0.097-2.066&#10;&#9;&#9;&#9;c0.245-0.679,0.739-1.223,1.393-1.53c0.653-0.307,1.388-0.342,2.067-0.097l1.811,0.653c0.361,0.129,0.761,0.008,1.018-0.312&#10;&#9;&#9;&#9;c0.269-0.334,0.559-0.652,0.864-0.947c0.293-0.283,0.377-0.691,0.214-1.039l-0.819-1.743c-0.308-0.653-0.342-1.388-0.097-2.067&#10;&#9;&#9;&#9;c0.244-0.68,0.738-1.223,1.393-1.529c1.35-0.635,2.962-0.053,3.597,1.296l0.82,1.744c0.164,0.348,0.529,0.543,0.937,0.498&#10;&#9;&#9;&#9;c0.425-0.047,0.854-0.066,1.281-0.062c0.412,0.021,0.758-0.223,0.889-0.584l0.652-1.811c0.245-0.679,0.739-1.223,1.394-1.529&#10;&#9;&#9;&#9;c0.652-0.308,1.388-0.342,2.066-0.097c1.402,0.505,2.132,2.058,1.626,3.46l-0.652,1.811c-0.13,0.361-0.009,0.76,0.312,1.017&#10;&#9;&#9;&#9;c0.332,0.267,0.65,0.558,0.947,0.864c0.284,0.293,0.69,0.377,1.039,0.214l1.745-0.819c0.653-0.308,1.388-0.342,2.065-0.097&#10;&#9;&#9;&#9;c0.681,0.244,1.224,0.739,1.53,1.393c0.634,1.349,0.052,2.963-1.296,3.598l-1.745,0.819c-0.342,0.161-0.542,0.537-0.498,0.937&#10;&#9;&#9;&#9;c0.047,0.423,0.068,0.854,0.063,1.28c-0.007,0.409,0.223,0.758,0.584,0.889l1.811,0.652c1.402,0.506,2.132,2.058,1.627,3.46&#10;&#9;&#9;&#9;c-0.506,1.403-2.058,2.134-3.46,1.627l-1.811-0.653c-0.361-0.13-0.761-0.008-1.018,0.312c-0.268,0.333-0.558,0.651-0.865,0.947&#10;&#9;&#9;&#9;c-0.293,0.283-0.377,0.691-0.213,1.039l0.82,1.743c0.634,1.35,0.052,2.963-1.296,3.598c-1.351,0.633-2.963,0.052-3.598-1.297&#10;&#9;&#9;&#9;l-0.819-1.744c-0.163-0.348-0.529-0.542-0.938-0.498c-0.424,0.047-0.854,0.067-1.279,0.062c-0.407-0.017-0.76,0.223-0.89,0.584&#10;&#9;&#9;&#9;l-0.651,1.811C141.639,96.703,140.598,97.39,139.49,97.39z M135.667,87.974c0.726,0,1.443,0.294,1.979,0.846&#10;&#9;&#9;&#9;c0.244,0.253,0.506,0.492,0.78,0.712c0.916,0.737,1.27,1.959,0.88,3.041l-0.653,1.811c-0.081,0.225-0.068,0.467,0.032,0.683&#10;&#9;&#9;&#9;c0.103,0.217,0.281,0.38,0.506,0.461c0.463,0.167,0.978-0.073,1.145-0.537l0.652-1.812c0.391-1.081,1.458-1.783,2.618-1.779&#10;&#9;&#9;&#9;c0.352,0.006,0.705-0.012,1.055-0.051c1.168-0.13,2.283,0.484,2.772,1.527l0.82,1.743c0.102,0.217,0.281,0.38,0.506,0.461&#10;&#9;&#9;&#9;s0.467,0.069,0.684-0.031c0.217-0.103,0.379-0.281,0.46-0.507c0.081-0.225,0.07-0.467-0.031-0.683l-0.82-1.744&#10;&#9;&#9;&#9;c-0.49-1.043-0.252-2.293,0.594-3.11c0.252-0.243,0.491-0.505,0.712-0.779c0.736-0.916,1.958-1.27,3.041-0.88l1.812,0.653&#10;&#9;&#9;&#9;c0.464,0.168,0.977-0.074,1.144-0.538s-0.074-0.978-0.538-1.145l-1.811-0.652c-1.082-0.39-1.797-1.441-1.78-2.617&#10;&#9;&#9;&#9;c0.005-0.352-0.012-0.706-0.05-1.055c-0.13-1.169,0.483-2.283,1.527-2.773l1.743-0.82c0.446-0.209,0.639-0.743,0.43-1.189&#10;&#9;&#9;&#9;c-0.103-0.216-0.281-0.379-0.506-0.46c-0.226-0.081-0.468-0.069-0.685,0.031l-1.744,0.82c-1.042,0.49-2.292,0.252-3.109-0.594&#10;&#9;&#9;&#9;c-0.244-0.253-0.506-0.492-0.779-0.712c-0.917-0.736-1.271-1.958-0.88-3.04l0.652-1.811c0.168-0.464-0.074-0.978-0.537-1.145&#10;&#9;&#9;&#9;c-0.226-0.081-0.468-0.069-0.684,0.032c-0.216,0.102-0.38,0.281-0.461,0.506l-0.653,1.811c-0.39,1.082-1.453,1.782-2.616,1.779&#10;&#9;&#9;&#9;c-0.351-0.005-0.705,0.012-1.055,0.051c-1.167,0.129-2.282-0.483-2.773-1.526l-0.82-1.745l0,0&#10;&#9;&#9;&#9;c-0.102-0.216-0.281-0.379-0.506-0.46s-0.467-0.069-0.684,0.032c-0.217,0.102-0.38,0.281-0.46,0.506&#10;&#9;&#9;&#9;c-0.081,0.224-0.07,0.467,0.031,0.683l0.82,1.744c0.49,1.043,0.251,2.293-0.594,3.11c-0.251,0.243-0.491,0.505-0.712,0.779&#10;&#9;&#9;&#9;c-0.736,0.916-1.959,1.27-3.04,0.88l-1.812-0.653c-0.464-0.167-0.977,0.075-1.144,0.538c-0.081,0.225-0.069,0.468,0.031,0.684&#10;&#9;&#9;&#9;c0.103,0.217,0.281,0.38,0.507,0.461l1.811,0.652c1.082,0.391,1.797,1.442,1.78,2.617c-0.005,0.351,0.012,0.705,0.051,1.055&#10;&#9;&#9;&#9;c0.129,1.169-0.484,2.283-1.527,2.773l-1.743,0.82c-0.217,0.102-0.381,0.281-0.462,0.506c-0.08,0.225-0.068,0.467,0.032,0.684&#10;&#9;&#9;&#9;c0.103,0.216,0.281,0.379,0.506,0.46c0.226,0.081,0.468,0.069,0.685-0.031l1.743-0.82&#10;&#9;&#9;&#9;C134.896,88.056,135.282,87.974,135.667,87.974z M143.741,89.517c-0.756,0-1.513-0.131-2.242-0.395&#10;&#9;&#9;&#9;c-1.659-0.598-2.985-1.807-3.735-3.401c-0.75-1.596-0.834-3.388-0.236-5.046c0.599-1.659,1.807-2.985,3.401-3.735&#10;&#9;&#9;&#9;s3.387-0.834,5.045-0.236c1.659,0.599,2.985,1.807,3.735,3.402s0.834,3.387,0.235,5.045c-0.598,1.659-1.806,2.985-3.4,3.735&#10;&#9;&#9;&#9;C145.652,89.306,144.698,89.517,143.741,89.517z M143.733,78.119c-0.694,0-1.387,0.153-2.035,0.458&#10;&#9;&#9;&#9;c-1.157,0.544-2.034,1.507-2.469,2.711c-0.434,1.204-0.373,2.505,0.171,3.662v0.001c0.544,1.157,1.508,2.034,2.71,2.469&#10;&#9;&#9;&#9;c1.204,0.434,2.506,0.373,3.663-0.172c1.158-0.544,2.035-1.507,2.47-2.711c0.434-1.203,0.372-2.504-0.173-3.662&#10;&#9;&#9;&#9;c-0.544-1.158-1.507-2.035-2.71-2.469C144.831,78.215,144.281,78.119,143.733,78.119z"/></g>
	</g>
</g>
<g id="Bkd4Ja9Ubm">
	<circle id="H1YNyT98Z7" cx="237.833" cy="103.627" r="3.352"/>
	<path id="rkqN16c8ZX" d="M237.833,107.883c-2.348,0-4.256-1.909-4.256-4.256c0-2.348,1.909-4.257,4.256-4.257&#10;&#9;&#9;c2.346,0,4.256,1.909,4.256,4.257C242.09,105.974,240.18,107.883,237.833,107.883z M237.833,101.18&#10;&#9;&#9;c-1.35,0-2.447,1.098-2.447,2.447s1.098,2.446,2.447,2.446c1.349,0,2.446-1.098,2.446-2.446&#10;&#9;&#9;C240.28,102.277,239.183,101.18,237.833,101.18z"/>
</g>
<g id="rkiNkpcLZm">
	<circle id="S1nVk6qL-Q" cx="184.959" cy="70.341" r="3.352"/>
	<path id="SkpV1a58Z7" d="M184.959,74.597c-2.348,0-4.256-1.909-4.256-4.256c0-2.348,1.908-4.257,4.256-4.257&#10;&#9;&#9;c2.347,0,4.256,1.909,4.256,4.257C189.216,72.688,187.306,74.597,184.959,74.597z M184.959,67.894c-1.35,0-2.447,1.098-2.447,2.447&#10;&#9;&#9;c0,1.349,1.098,2.446,2.447,2.446c1.349,0,2.446-1.098,2.446-2.446C187.406,68.991,186.309,67.894,184.959,67.894z"/>
</g>
<g id="H10E1pcU-X">
	<circle id="SJJgNkp58ZQ" cx="395.734" cy="83.913" r="3.352"/>
	<path id="SJxxVy65UWX" d="M395.734,88.169c-2.348,0-4.257-1.909-4.257-4.256c0-2.348,1.909-4.257,4.257-4.257&#10;&#9;&#9;c2.347,0,4.256,1.909,4.256,4.257C399.99,86.26,398.08,88.169,395.734,88.169z M395.734,81.466c-1.35,0-2.447,1.098-2.447,2.447&#10;&#9;&#9;s1.099,2.446,2.447,2.446s2.446-1.098,2.446-2.446C398.181,82.563,397.082,81.466,395.734,81.466z"/>
</g>
<g id="HJZlN1pc8Zm">
	<circle id="BJzg4k69I-Q" cx="366.808" cy="42.6" r="3.352"/>
	<path id="rkQgVJa9IWQ" d="M366.808,46.856c-2.348,0-4.257-1.91-4.257-4.257c0-2.347,1.909-4.256,4.257-4.256&#10;&#9;&#9;c2.347,0,4.256,1.91,4.256,4.256C371.063,44.947,369.154,46.856,366.808,46.856z M366.808,40.153c-1.351,0-2.447,1.098-2.447,2.447&#10;&#9;&#9;s1.099,2.447,2.447,2.447s2.446-1.098,2.446-2.447S368.156,40.153,366.808,40.153z"/>
</g>
<g id="ByVe416cLbm">
	<circle id="S1BeE1p98W7" cx="288.429" cy="20.88" r="3.352"/>
	<path id="SkUlEka58bX" d="M288.429,25.136c-2.347,0-4.256-1.909-4.256-4.256c0-2.347,1.909-4.256,4.256-4.256&#10;&#9;&#9;s4.257,1.91,4.257,4.256C292.686,23.227,290.775,25.136,288.429,25.136z M288.429,18.433c-1.349,0-2.446,1.098-2.446,2.447&#10;&#9;&#9;c0,1.349,1.099,2.447,2.446,2.447c1.35,0,2.447-1.098,2.447-2.447C290.876,19.531,289.778,18.433,288.429,18.433z"/>
</g>
<g id="B1DeEkpcL-X">
	<g id="ry_gEyp58WQ">
		<path id="rytlN1Tq8-Q" d="M315.996,61.313h-4.2c-0.5,0-0.905-0.405-0.905-0.905s0.405-0.905,0.905-0.905h4.2&#10;&#9;&#9;&#9;c0.499,0,0.903,0.405,0.903,0.905S316.495,61.313,315.996,61.313z"/>
	</g>
	<g id="SJ5eVk65U-X">
		<path id="H1oxE16cUWm" d="M313.896,63.414c-0.499,0-0.903-0.405-0.903-0.905v-4.2c0-0.5,0.404-0.905,0.903-0.905&#10;&#9;&#9;&#9;c0.5,0,0.905,0.405,0.905,0.905v4.2C314.801,63.008,314.396,63.414,313.896,63.414z"/>
	</g>
</g>
<g id="BJ3lNJ658-m">
	<g id="B16l4Jp5U-X">
		<path id="rJAx4JT5UWX" d="M420.932,65.966h-4.2c-0.5,0-0.905-0.405-0.905-0.905s0.405-0.905,0.905-0.905h4.2&#10;&#9;&#9;&#9;c0.5,0,0.904,0.405,0.904,0.905S421.432,65.966,420.932,65.966z"/>
	</g>
	<g id="BkyZEkaqL-7">
		<path id="Skeb41Tq8bm" d="M418.83,68.065c-0.499,0-0.903-0.404-0.903-0.904v-4.2c0-0.5,0.404-0.905,0.903-0.905&#10;&#9;&#9;&#9;c0.5,0,0.905,0.405,0.905,0.905v4.2C419.736,67.661,419.33,68.065,418.83,68.065z"/>
	</g>
</g>
<g id="ry-ZNJpqLWQ">
	<g id="H1GbVJTcLZX">
		<path id="H1QZEypqI-Q" d="M479.938,100.077h-4.2c-0.5,0-0.905-0.404-0.905-0.904s0.405-0.905,0.905-0.905h4.2&#10;&#9;&#9;&#9;c0.5,0,0.904,0.405,0.904,0.905S480.438,100.077,479.938,100.077z"/>
	</g>
	<g id="ByVWEkpqUbQ">
		<path id="BkHWEya9LZm" d="M477.838,102.178c-0.5,0-0.905-0.405-0.905-0.905v-4.2c0-0.499,0.405-0.904,0.905-0.904&#10;&#9;&#9;&#9;c0.499,0,0.903,0.405,0.903,0.904v4.2C478.741,101.772,478.337,102.178,477.838,102.178z"/>
	</g>
</g>
<g id="BkU-V1T98-X">
	<g id="r1wWN16cU-Q">
		<path id="ByuZEk65UbX" d="M236.582,72.198h-4.2c-0.5,0-0.905-0.405-0.905-0.904c0-0.5,0.405-0.905,0.905-0.905h4.2&#10;&#9;&#9;&#9;c0.5,0,0.904,0.405,0.904,0.905C237.487,71.793,237.082,72.198,236.582,72.198z"/>
	</g>
	<g id="r1YbV1acUbX">
		<path id="SyqbEk6c8Zm" d="M234.482,74.299c-0.5,0-0.904-0.405-0.904-0.905v-4.2c0-0.5,0.404-0.904,0.904-0.904&#10;&#9;&#9;&#9;s0.905,0.404,0.905,0.904v4.2C235.387,73.894,234.981,74.299,234.482,74.299z"/>
	</g>
</g>
<g id="H1jZE1ac8-7">
	<g id="rynWNyacLZm">
		<path id="HypWVkacUb7" d="M198.852,102.692h-4.2c-0.5,0-0.904-0.405-0.904-0.905c0-0.499,0.404-0.904,0.904-0.904&#10;&#9;&#9;&#9;h4.2c0.5,0,0.905,0.405,0.905,0.904C199.757,102.287,199.352,102.692,198.852,102.692z"/>
	</g>
	<g id="B1R-N1TqIbm">
		<path id="rkkfVyp5IZQ" d="M196.752,104.792c-0.5,0-0.905-0.405-0.905-0.904v-4.2c0-0.5,0.405-0.905,0.905-0.905&#10;&#9;&#9;&#9;s0.905,0.405,0.905,0.905v4.2C197.657,104.387,197.251,104.792,196.752,104.792z"/>
	</g>
</g>
<g id="S1eM4Ja5Lb7">
	<g id="SyZMNJa9IWX">
		<path id="BkGMEka98Zm" d="M156.223,62.218h-4.2c-0.5,0-0.904-0.405-0.904-0.905s0.404-0.905,0.904-0.905h4.2&#10;&#9;&#9;&#9;c0.5,0,0.905,0.405,0.905,0.905C157.127,61.813,156.722,62.218,156.223,62.218z"/>
	</g>
	<g id="ryQfEy6qU-X">
		<path id="r1VM4J6cLZm" d="M154.123,64.318c-0.5,0-0.905-0.405-0.905-0.905v-4.2c0-0.5,0.405-0.905,0.905-0.905&#10;&#9;&#9;&#9;s0.904,0.405,0.904,0.905v4.2C155.027,63.913,154.622,64.318,154.123,64.318z"/>
	</g>
</g>
<g id="Skrf41T9LWm">
	<g id="SkLGVJp5LbX">
		<g id="Skvf4kTcU-Q">
			<g id="SJufE1acLbm_SyWupqUW7" data-animator-group="true" data-animator-type="1"><path id="SJufE1acLbm" d="M479.904,60.218L479.904,60.218c0.77,0.769,0.77,2.015,0,2.784l-1.49,1.491&#10;&#9;&#9;&#9;&#9;c-0.604,0.604-0.73,1.519-0.354,2.286c0.188,0.385,0.353,0.779,0.491,1.181c0.276,0.809,1.013,1.366,1.867,1.366h2.104&#10;&#9;&#9;&#9;&#9;c1.088,0,1.969,0.881,1.969,1.969l0,0c0,1.087-0.881,1.968-1.969,1.968h-2.104c-0.854,0-1.591,0.559-1.867,1.366&#10;&#9;&#9;&#9;&#9;c-0.14,0.401-0.303,0.796-0.491,1.181c-0.377,0.767-0.25,1.682,0.354,2.286l1.49,1.49c0.77,0.77,0.77,2.016,0,2.784l0,0&#10;&#9;&#9;&#9;&#9;c-0.769,0.769-2.015,0.769-2.783,0l-1.49-1.491c-0.604-0.604-1.521-0.73-2.285-0.354c-0.386,0.188-0.78,0.353-1.183,0.49&#10;&#9;&#9;&#9;&#9;c-0.808,0.278-1.364,1.014-1.364,1.867v2.106c0,1.087-0.882,1.969-1.97,1.969l0,0c-1.087,0-1.969-0.882-1.969-1.969v-2.106&#10;&#9;&#9;&#9;&#9;c0-0.854-0.558-1.589-1.366-1.867c-0.4-0.138-0.795-0.302-1.181-0.49c-0.767-0.377-1.682-0.25-2.285,0.354l-1.491,1.491&#10;&#9;&#9;&#9;&#9;c-0.769,0.769-2.015,0.769-2.783,0l0,0c-0.77-0.769-0.77-2.015,0-2.784l1.49-1.49c0.604-0.604,0.73-1.52,0.354-2.286&#10;&#9;&#9;&#9;&#9;c-0.189-0.385-0.354-0.779-0.491-1.181c-0.277-0.809-1.013-1.366-1.867-1.366h-2.105c-1.087,0-1.968-0.881-1.968-1.968l0,0&#10;&#9;&#9;&#9;&#9;c0-1.088,0.881-1.969,1.968-1.969h2.105c0.854,0,1.59-0.558,1.867-1.366c0.138-0.401,0.302-0.796,0.491-1.181&#10;&#9;&#9;&#9;&#9;c0.376-0.767,0.249-1.682-0.354-2.286l-1.49-1.491c-0.77-0.769-0.77-2.015,0-2.784l0,0c0.77-0.769,2.016-0.769,2.783,0&#10;&#9;&#9;&#9;&#9;l1.491,1.491c0.604,0.604,1.52,0.73,2.285,0.354c0.386-0.189,0.78-0.353,1.182-0.491c0.809-0.278,1.365-1.013,1.365-1.867v-2.106&#10;&#9;&#9;&#9;&#9;c0-1.087,0.882-1.968,1.969-1.968l0,0c1.088,0,1.97,0.881,1.969,1.968v2.106c0,0.854,0.559,1.59,1.365,1.868&#10;&#9;&#9;&#9;&#9;c0.401,0.138,0.797,0.302,1.183,0.491c0.766,0.376,1.682,0.25,2.285-0.354l1.49-1.491&#10;&#9;&#9;&#9;&#9;C477.89,59.449,479.136,59.449,479.904,60.218z M473.236,66.886c-2.435-2.434-6.381-2.434-8.813,0&#10;&#9;&#9;&#9;&#9;c-2.435,2.434-2.435,6.38,0,8.814c2.434,2.435,6.38,2.435,8.813,0C475.67,73.267,475.67,69.32,473.236,66.886z"/></g>
			<g id="HJYzNkT5I-7_B11F6cUZQ" data-animator-group="true" data-animator-type="1"><path id="HJYzNkT5I-7" d="M468.828,87.861c-1.585,0-2.873-1.288-2.873-2.873v-2.106&#10;&#9;&#9;&#9;&#9;c0-0.456-0.297-0.854-0.756-1.011c-0.438-0.151-0.87-0.331-1.285-0.535c-0.428-0.21-0.929-0.137-1.246,0.182l-1.491,1.491&#10;&#9;&#9;&#9;&#9;c-0.543,0.543-1.266,0.842-2.031,0.842c-0.768,0-1.489-0.299-2.032-0.842c-0.542-0.542-0.842-1.264-0.842-2.031&#10;&#9;&#9;&#9;&#9;s0.299-1.489,0.842-2.032l1.491-1.49c0.318-0.319,0.392-0.82,0.182-1.247c-0.204-0.416-0.384-0.849-0.533-1.286&#10;&#9;&#9;&#9;&#9;c-0.158-0.459-0.556-0.755-1.013-0.755h-2.105c-1.584,0-2.873-1.289-2.873-2.873c0-1.585,1.289-2.874,2.873-2.874h2.105&#10;&#9;&#9;&#9;&#9;c0.457,0,0.854-0.296,1.013-0.755c0.149-0.438,0.329-0.871,0.533-1.286c0.21-0.427,0.138-0.928-0.182-1.247l-1.491-1.491&#10;&#9;&#9;&#9;&#9;c-1.12-1.121-1.12-2.943,0-4.063c1.12-1.121,2.943-1.121,4.063,0l1.491,1.491c0.318,0.318,0.819,0.391,1.246,0.182&#10;&#9;&#9;&#9;&#9;c0.415-0.204,0.849-0.384,1.285-0.534c0.459-0.158,0.756-0.555,0.756-1.012V57.6c0-1.584,1.288-2.873,2.873-2.873&#10;&#9;&#9;&#9;&#9;c1.584,0,2.873,1.289,2.873,2.873v2.106c0,0.457,0.297,0.854,0.755,1.012c0.437,0.149,0.868,0.329,1.286,0.534&#10;&#9;&#9;&#9;&#9;c0.429,0.21,0.929,0.136,1.247-0.182l1.491-1.491c1.12-1.121,2.943-1.121,4.063,0c1.12,1.12,1.12,2.943,0,4.063l-1.49,1.491&#10;&#9;&#9;&#9;&#9;c-0.319,0.319-0.393,0.82-0.184,1.247c0.205,0.416,0.386,0.848,0.535,1.286c0.157,0.459,0.556,0.755,1.013,0.755h2.104&#10;&#9;&#9;&#9;&#9;c1.585,0,2.874,1.289,2.874,2.874c0,1.584-1.289,2.873-2.874,2.873h-2.104c-0.457,0-0.854,0.296-1.013,0.755&#10;&#9;&#9;&#9;&#9;c-0.149,0.436-0.33,0.868-0.534,1.286c-0.21,0.427-0.138,0.928,0.183,1.247l1.49,1.49c0.543,0.543,0.842,1.265,0.842,2.032&#10;&#9;&#9;&#9;&#9;s-0.299,1.488-0.842,2.031c-1.119,1.12-2.942,1.12-4.063,0l-1.491-1.49c-0.318-0.319-0.818-0.393-1.247-0.183&#10;&#9;&#9;&#9;&#9;c-0.416,0.204-0.849,0.384-1.286,0.534c-0.458,0.158-0.755,0.556-0.755,1.012v2.106&#10;&#9;&#9;&#9;&#9;C471.701,86.573,470.412,87.861,468.828,87.861z M463.409,79.408c0.44,0,0.887,0.099,1.304,0.304&#10;&#9;&#9;&#9;&#9;c0.348,0.171,0.71,0.321,1.075,0.447c1.183,0.406,1.978,1.501,1.978,2.723v2.106c0,0.587,0.477,1.063,1.063,1.063&#10;&#9;&#9;&#9;&#9;s1.063-0.477,1.063-1.063v-2.106c0-1.222,0.794-2.315,1.977-2.723c0.366-0.126,0.729-0.276,1.076-0.447&#10;&#9;&#9;&#9;&#9;c1.122-0.551,2.458-0.34,3.324,0.526l1.491,1.491c0.415,0.414,1.089,0.414,1.504,0c0.201-0.201,0.312-0.468,0.312-0.752&#10;&#9;&#9;&#9;&#9;c0-0.284-0.109-0.552-0.312-0.752l-1.491-1.491c-0.866-0.866-1.077-2.202-0.526-3.324c0.172-0.35,0.322-0.712,0.447-1.076&#10;&#9;&#9;&#9;&#9;c0.407-1.183,1.501-1.977,2.724-1.977h2.105c0.587,0,1.064-0.478,1.064-1.063c0-0.587-0.479-1.064-1.064-1.064h-2.105&#10;&#9;&#9;&#9;&#9;c-1.223,0-2.315-0.794-2.724-1.976c-0.126-0.366-0.276-0.729-0.447-1.077c-0.551-1.122-0.34-2.458,0.526-3.324l1.491-1.491&#10;&#9;&#9;&#9;&#9;c0.415-0.415,0.415-1.089,0-1.504c-0.415-0.414-1.089-0.414-1.504,0l-1.491,1.491c-0.866,0.867-2.201,1.078-3.324,0.526&#10;&#9;&#9;&#9;&#9;c-0.35-0.171-0.711-0.322-1.076-0.447c-1.183-0.407-1.977-1.501-1.977-2.724v-2.106c0-0.586-0.479-1.063-1.063-1.063&#10;&#9;&#9;&#9;&#9;c-0.587,0-1.063,0.477-1.063,1.063v2.106c0,1.222-0.795,2.316-1.978,2.723c-0.365,0.126-0.729,0.276-1.076,0.448&#10;&#9;&#9;&#9;&#9;c-1.122,0.551-2.457,0.339-3.323-0.527l-1.491-1.491c-0.415-0.414-1.09-0.414-1.505,0c-0.414,0.415-0.414,1.09,0,1.504&#10;&#9;&#9;&#9;&#9;l1.491,1.491c0.866,0.866,1.078,2.202,0.526,3.324c-0.171,0.349-0.321,0.71-0.447,1.077c-0.406,1.182-1.5,1.976-2.724,1.976&#10;&#9;&#9;&#9;&#9;h-2.105c-0.586,0-1.063,0.478-1.063,1.064s0.479,1.063,1.063,1.063h2.105c1.223,0,2.316,0.794,2.724,1.977&#10;&#9;&#9;&#9;&#9;c0.126,0.365,0.275,0.728,0.446,1.076c0.553,1.122,0.341,2.458-0.525,3.324l-1.491,1.491c-0.2,0.2-0.313,0.468-0.313,0.752&#10;&#9;&#9;&#9;&#9;c0,0.284,0.111,0.551,0.313,0.752s0.469,0.312,0.753,0.312l0,0c0.284,0,0.551-0.11,0.752-0.312l1.491-1.491&#10;&#9;&#9;&#9;&#9;C461.933,79.693,462.663,79.408,463.409,79.408z M468.828,78.428c-1.827,0-3.654-0.696-5.047-2.088&#10;&#9;&#9;&#9;&#9;c-1.349-1.348-2.091-3.14-2.091-5.046c0-1.907,0.742-3.699,2.091-5.047c2.782-2.783,7.312-2.783,10.095,0l0,0l0,0&#10;&#9;&#9;&#9;&#9;c1.348,1.348,2.09,3.14,2.09,5.047c0,1.906-0.742,3.698-2.09,5.046C472.484,77.731,470.656,78.428,468.828,78.428z&#10;&#9;&#9;&#9;&#9; M468.828,65.968c-1.363,0-2.729,0.52-3.768,1.558c-1.006,1.006-1.561,2.344-1.561,3.768c0,1.423,0.555,2.761,1.561,3.767&#10;&#9;&#9;&#9;&#9;c2.077,2.077,5.457,2.077,7.534,0c1.007-1.006,1.561-2.344,1.561-3.767c0-1.424-0.554-2.762-1.561-3.768l0,0&#10;&#9;&#9;&#9;&#9;C471.558,66.488,470.193,65.968,468.828,65.968z"/></g>
		</g>
	</g>
	<g id="rJ9zVkp98ZX">
		<g id="S1jGNkT58WQ">
			<g id="SynGNya5LZm_r12bpqLZQ" data-animator-group="true" data-animator-type="1"><path id="SynGNya5LZm" d="M456.864,78.604L456.864,78.604c0.752,0.354,1.075,1.25,0.723,2.003l-0.687,1.459&#10;&#9;&#9;&#9;&#9;c-0.278,0.591-0.132,1.282,0.338,1.736c0.235,0.228,0.456,0.469,0.659,0.722c0.409,0.51,1.083,0.72,1.697,0.499l1.516-0.547&#10;&#9;&#9;&#9;&#9;c0.781-0.281,1.646,0.124,1.926,0.905v0.001c0.282,0.781-0.123,1.645-0.904,1.926l-1.517,0.547&#10;&#9;&#9;&#9;&#9;c-0.614,0.221-0.998,0.813-0.987,1.467c0.005,0.324-0.012,0.65-0.048,0.977c-0.071,0.648,0.257,1.274,0.848,1.553l1.46,0.686&#10;&#9;&#9;&#9;&#9;c0.752,0.354,1.075,1.25,0.722,2.003l0,0c-0.354,0.752-1.25,1.075-2.003,0.722l-1.459-0.687&#10;&#9;&#9;&#9;&#9;c-0.591-0.277-1.282-0.131-1.736,0.338c-0.228,0.236-0.469,0.456-0.722,0.66c-0.51,0.409-0.72,1.083-0.499,1.697l0.547,1.515&#10;&#9;&#9;&#9;&#9;c0.281,0.782-0.124,1.646-0.906,1.927l0,0c-0.78,0.282-1.645-0.123-1.926-0.905l-0.547-1.516&#10;&#9;&#9;&#9;&#9;c-0.222-0.614-0.813-0.998-1.467-0.989c-0.324,0.005-0.65-0.01-0.978-0.046c-0.648-0.072-1.273,0.256-1.553,0.847l-0.686,1.46&#10;&#9;&#9;&#9;&#9;c-0.354,0.752-1.25,1.075-2.003,0.722l0,0c-0.752-0.354-1.075-1.251-0.723-2.003l0.687-1.459&#10;&#9;&#9;&#9;&#9;c0.277-0.591,0.132-1.282-0.338-1.736c-0.235-0.228-0.456-0.469-0.659-0.722c-0.409-0.51-1.083-0.721-1.697-0.499l-1.516,0.547&#10;&#9;&#9;&#9;&#9;c-0.781,0.281-1.646-0.124-1.926-0.906l0,0c-0.282-0.782,0.122-1.645,0.904-1.926l1.517-0.547&#10;&#9;&#9;&#9;&#9;c0.613-0.222,0.998-0.813,0.987-1.467c-0.004-0.324,0.012-0.65,0.047-0.977c0.072-0.649-0.256-1.274-0.847-1.553l-1.46-0.686&#10;&#9;&#9;&#9;&#9;c-0.752-0.354-1.075-1.25-0.722-2.003l0,0c0.354-0.752,1.25-1.075,2.003-0.722l1.459,0.686c0.591,0.278,1.282,0.132,1.736-0.338&#10;&#9;&#9;&#9;&#9;c0.228-0.235,0.469-0.456,0.722-0.659c0.51-0.409,0.721-1.083,0.499-1.697l-0.547-1.516c-0.281-0.782,0.124-1.645,0.905-1.926&#10;&#9;&#9;&#9;&#9;l0,0c0.782-0.282,1.646,0.123,1.927,0.905l0.547,1.515c0.221,0.615,0.813,0.999,1.467,0.989c0.324-0.005,0.65,0.011,0.977,0.047&#10;&#9;&#9;&#9;&#9;c0.649,0.072,1.274-0.256,1.554-0.847l0.686-1.46C455.215,78.574,456.111,78.251,456.864,78.604z M453.796,85.131&#10;&#9;&#9;&#9;&#9;c-2.383-1.119-5.222-0.097-6.342,2.286c-1.118,2.382-0.096,5.221,2.286,6.341c2.382,1.119,5.222,0.096,6.341-2.286&#10;&#9;&#9;&#9;&#9;C457.2,89.09,456.178,86.251,453.796,85.131z"/></g>
			<g id="B1TGEyaq8-m_BkmMaqLZ7" data-animator-group="true" data-animator-type="1"><path id="B1TGEyaq8-m" d="M455.322,101.706c-0.986,0-1.916-0.611-2.27-1.593l-0.546-1.516&#10;&#9;&#9;&#9;&#9;c-0.088-0.241-0.331-0.402-0.604-0.391c-0.363,0.005-0.729-0.013-1.09-0.053c-0.276-0.031-0.524,0.101-0.634,0.333l-0.687,1.46&#10;&#9;&#9;&#9;&#9;c-0.273,0.582-0.759,1.023-1.363,1.242c-0.605,0.218-1.261,0.188-1.844-0.087c-0.582-0.273-1.022-0.758-1.24-1.363&#10;&#9;&#9;&#9;&#9;c-0.22-0.605-0.188-1.261,0.085-1.843l0.687-1.459c0.109-0.233,0.052-0.508-0.147-0.701c-0.263-0.253-0.511-0.524-0.735-0.806&#10;&#9;&#9;&#9;&#9;c-0.175-0.217-0.443-0.301-0.687-0.214l-1.515,0.546c-1.252,0.45-2.635-0.2-3.085-1.449c-0.218-0.606-0.188-1.261,0.086-1.843&#10;&#9;&#9;&#9;&#9;c0.274-0.583,0.759-1.023,1.364-1.242l1.515-0.546c0.242-0.088,0.396-0.324,0.393-0.603c-0.005-0.363,0.013-0.73,0.053-1.091&#10;&#9;&#9;&#9;&#9;c0.03-0.274-0.101-0.523-0.334-0.633l-1.459-0.687c-0.582-0.273-1.023-0.758-1.242-1.363c-0.218-0.605-0.188-1.26,0.087-1.843&#10;&#9;&#9;&#9;&#9;c0.564-1.202,2.004-1.722,3.206-1.156l1.459,0.687c0.232,0.109,0.508,0.051,0.7-0.148c0.254-0.262,0.525-0.51,0.807-0.735&#10;&#9;&#9;&#9;&#9;c0.218-0.175,0.302-0.443,0.214-0.686l-0.546-1.515c-0.45-1.25,0.199-2.634,1.449-3.085c0.606-0.219,1.261-0.188,1.843,0.086&#10;&#9;&#9;&#9;&#9;c0.583,0.274,1.023,0.759,1.242,1.364l0.546,1.515c0.088,0.242,0.313,0.409,0.604,0.392c0.36-0.005,0.729,0.012,1.09,0.052&#10;&#9;&#9;&#9;&#9;c0.279,0.03,0.523-0.1,0.634-0.333l0.688-1.459c0.272-0.583,0.758-1.023,1.362-1.242c0.605-0.218,1.261-0.188,1.844,0.086&#10;&#9;&#9;&#9;&#9;c1.201,0.565,1.721,2.004,1.155,3.207l-0.687,1.459c-0.109,0.232-0.052,0.508,0.147,0.7c0.262,0.253,0.509,0.524,0.735,0.806&#10;&#9;&#9;&#9;&#9;c0.175,0.218,0.444,0.302,0.686,0.215l1.516-0.546c0.604-0.219,1.261-0.188,1.843,0.086c0.583,0.273,1.023,0.758,1.242,1.363&#10;&#9;&#9;&#9;&#9;c0.218,0.606,0.188,1.261-0.086,1.843c-0.274,0.583-0.759,1.023-1.364,1.242l-1.515,0.546c-0.242,0.088-0.396,0.323-0.393,0.603&#10;&#9;&#9;&#9;&#9;c0.005,0.363-0.013,0.729-0.053,1.09c-0.03,0.275,0.101,0.524,0.334,0.634l1.459,0.686c1.202,0.565,1.721,2.004,1.156,3.206&#10;&#9;&#9;&#9;&#9;c-0.274,0.583-0.759,1.024-1.364,1.242c-0.605,0.219-1.261,0.188-1.843-0.086l-1.459-0.686c-0.233-0.11-0.508-0.052-0.7,0.147&#10;&#9;&#9;&#9;&#9;c-0.254,0.263-0.525,0.51-0.807,0.736c-0.218,0.175-0.302,0.443-0.215,0.686l0.547,1.515c0.219,0.605,0.188,1.26-0.086,1.843&#10;&#9;&#9;&#9;&#9;s-0.759,1.023-1.363,1.242C455.867,101.66,455.593,101.706,455.322,101.706z M451.914,96.397c1.031,0,1.95,0.634,2.295,1.587&#10;&#9;&#9;&#9;&#9;l0.546,1.516c0.111,0.312,0.457,0.473,0.769,0.361c0.151-0.055,0.271-0.165,0.34-0.31c0.068-0.146,0.076-0.309,0.021-0.459&#10;&#9;&#9;&#9;&#9;l-0.546-1.516c-0.349-0.965-0.033-2.054,0.781-2.709c0.224-0.18,0.438-0.375,0.641-0.584c0.727-0.752,1.84-0.965,2.771-0.527&#10;&#9;&#9;&#9;&#9;l1.459,0.686c0.301,0.141,0.658,0.012,0.8-0.288c0.141-0.299,0.012-0.657-0.287-0.799l-1.46-0.686&#10;&#9;&#9;&#9;&#9;c-0.931-0.438-1.479-1.431-1.361-2.471c0.031-0.286,0.046-0.577,0.041-0.864c-0.016-1.046,0.622-1.983,1.587-2.331l1.516-0.546&#10;&#9;&#9;&#9;&#9;c0.313-0.112,0.475-0.457,0.361-0.769c-0.055-0.151-0.164-0.271-0.31-0.34c-0.146-0.068-0.31-0.076-0.459-0.021l-1.517,0.546&#10;&#9;&#9;&#9;&#9;c-0.965,0.349-2.054,0.033-2.709-0.782c-0.18-0.224-0.376-0.438-0.584-0.64c-0.752-0.728-0.965-1.841-0.526-2.771l0.687-1.46&#10;&#9;&#9;&#9;&#9;c0.141-0.299,0.011-0.657-0.288-0.799h-0.001c-0.145-0.067-0.307-0.075-0.459-0.021c-0.15,0.054-0.271,0.164-0.339,0.309&#10;&#9;&#9;&#9;&#9;l-0.688,1.459c-0.438,0.931-1.429,1.477-2.471,1.362c-0.286-0.032-0.58-0.048-0.864-0.041c-0.013,0-0.024,0-0.037,0&#10;&#9;&#9;&#9;&#9;c-1.03,0-1.949-0.634-2.294-1.587l-0.546-1.516c-0.055-0.15-0.165-0.271-0.31-0.34c-0.146-0.069-0.31-0.076-0.459-0.021&#10;&#9;&#9;&#9;&#9;c-0.313,0.112-0.475,0.457-0.361,0.769l0.546,1.516c0.349,0.965,0.033,2.054-0.782,2.709c-0.223,0.179-0.438,0.375-0.639,0.584&#10;&#9;&#9;&#9;&#9;c-0.729,0.752-1.842,0.964-2.771,0.527l-1.46-0.687c-0.301-0.14-0.657-0.012-0.799,0.288c-0.142,0.3-0.012,0.658,0.287,0.799&#10;&#9;&#9;&#9;&#9;l1.46,0.687c0.931,0.438,1.479,1.431,1.361,2.471c-0.031,0.286-0.045,0.576-0.041,0.864c0.016,1.046-0.622,1.983-1.587,2.331&#10;&#9;&#9;&#9;&#9;l-1.516,0.546c-0.313,0.112-0.475,0.457-0.361,0.769c0.055,0.151,0.165,0.271,0.31,0.34c0.146,0.067,0.309,0.075,0.459,0.021&#10;&#9;&#9;&#9;&#9;l1.517-0.546c0.965-0.349,2.053-0.033,2.709,0.782c0.18,0.223,0.375,0.438,0.584,0.639c0.752,0.728,0.965,1.842,0.527,2.771&#10;&#9;&#9;&#9;&#9;l-0.687,1.459c-0.142,0.3-0.012,0.658,0.287,0.799c0.299,0.141,0.658,0.012,0.799-0.287l0.688-1.46&#10;&#9;&#9;&#9;&#9;c0.437-0.93,1.43-1.478,2.471-1.361c0.286,0.031,0.576,0.047,0.864,0.041C451.891,96.397,451.903,96.397,451.914,96.397z&#10;&#9;&#9;&#9;&#9; M451.765,95.118c-0.822,0-1.643-0.182-2.408-0.542c-2.83-1.33-4.05-4.715-2.72-7.544c0.645-1.371,1.783-2.409,3.209-2.923&#10;&#9;&#9;&#9;&#9;c1.425-0.514,2.965-0.441,4.335,0.203c1.371,0.644,2.409,1.783,2.923,3.209c0.514,1.425,0.441,2.964-0.203,4.335&#10;&#9;&#9;&#9;&#9;c-0.644,1.371-1.784,2.409-3.209,2.923C453.063,95.005,452.412,95.118,451.765,95.118z M451.771,85.581&#10;&#9;&#9;&#9;&#9;c-0.442,0-0.885,0.076-1.313,0.23c-0.97,0.351-1.745,1.057-2.185,1.99c-0.906,1.927-0.075,4.23,1.853,5.137&#10;&#9;&#9;&#9;&#9;c0.934,0.438,1.98,0.488,2.951,0.138c0.971-0.35,1.746-1.056,2.186-1.989c0.438-0.933,0.486-1.982,0.138-2.952&#10;&#9;&#9;&#9;&#9;c-0.349-0.97-1.056-1.746-1.989-2.185C452.89,85.704,452.33,85.581,451.771,85.581z"/></g>
		</g>
	</g>
</g>
<script>(function(){var a=document.querySelector('#rJ4J69LWX'),b=a.querySelectorAll('style'),c=function(d){b.forEach(function(f){var g=f.textContent;g&amp;&amp;(f.textContent=g.replace(/transform-box:[^;\r\n]*/gi,'transform-box: '+d))})};c('initial'),window.requestAnimationFrame(function(){return c('fill-box')})})();</script></svg>