<?xml version="1.0" encoding="utf-8"?>
<!-- Generator: Adobe Illustrator 16.0.0, SVG Export Plug-In . SVG Version: 6.00 Build 0)  -->
<!DOCTYPE svg PUBLIC "-//W3C//DTD SVG 1.1//EN" "http://www.w3.org/Graphics/SVG/1.1/DTD/svg11.dtd">
<svg version="1.1" id="Layer_1" xmlns="http://www.w3.org/2000/svg" xmlns:xlink="http://www.w3.org/1999/xlink" x="0px" y="0px"
	 width="270px" height="68px" viewBox="0 0 270 68" enable-background="new 0 0 270 68" xml:space="preserve">
<path fill="#12C48B" d="M76.015,34.57c0-5.229,4.241-9.466,9.464-9.466c5.233,0,9.47,4.236,9.47,9.466
	c0,5.231-4.236,9.468-9.47,9.468C80.256,44.038,76.015,39.802,76.015,34.57z"/>
<g>
	<g>
		<path fill="#12C48B" d="M25.732,25.738c0.193,0.074,0.381,0.148,0.566,0.232C26.113,25.886,25.925,25.812,25.732,25.738z"/>
		<path fill="#12C48B" d="M27.358,26.541c0.122,0.076,0.26,0.14,0.384,0.227C27.618,26.681,27.48,26.617,27.358,26.541z"/>
		<path fill="#12C48B" d="M24.109,25.28c0.18,0.033,0.356,0.077,0.539,0.12C24.465,25.357,24.29,25.313,24.109,25.28z"/>
		<path fill="#12C48B" d="M24.648,43.739c-0.183,0.044-0.358,0.088-0.539,0.123C24.29,43.827,24.465,43.783,24.648,43.739z"/>
		<path fill="#12C48B" d="M27.742,42.371c-0.124,0.086-0.262,0.153-0.384,0.228C27.48,42.524,27.618,42.457,27.742,42.371z"/>
		<path fill="#12C48B" d="M29.243,41.078l-1.487,1.284C28.301,41.99,28.793,41.552,29.243,41.078z"/>
		<path fill="#12C48B" d="M26.298,43.172c-0.186,0.085-0.374,0.153-0.566,0.229C25.925,43.325,26.113,43.257,26.298,43.172z"/>
		<path fill="#12C48B" d="M29.908,28.877c-0.608-0.81-1.322-1.528-2.152-2.098l1.498,1.304
			C29.49,28.334,29.698,28.602,29.908,28.877z"/>
		<path fill="#12C48B" d="M29.765,40.449c0.141-0.178,0.296-0.34,0.423-0.522l0,0C30.061,40.113,29.906,40.271,29.765,40.449z"/>
		<path fill="#12C48B" d="M52.193,43.862c-0.184-0.035-0.358-0.079-0.535-0.123C51.837,43.783,52.01,43.827,52.193,43.862z"/>
		<path fill="#12C48B" d="M47.063,28.06l1.484-1.28C48.005,27.149,47.513,27.589,47.063,28.06z"/>
		<path fill="#12C48B" d="M46.538,28.693c-0.141,0.176-0.299,0.335-0.427,0.521c0,0,0.004,0,0.004-0.003
			C46.242,29.024,46.397,28.87,46.538,28.693z"/>
		<path fill="#12C48B" d="M50.571,43.4c-0.193-0.075-0.387-0.144-0.566-0.229C50.184,43.257,50.377,43.325,50.571,43.4z"/>
		<path fill="#12C48B" d="M50.004,25.97c0.18-0.084,0.373-0.158,0.566-0.232C50.377,25.812,50.184,25.886,50.004,25.97z"/>
		<path fill="#12C48B" d="M51.659,25.4c0.176-0.043,0.351-0.087,0.535-0.12C52.01,25.313,51.837,25.357,51.659,25.4z"/>
		<path fill="#12C48B" d="M46.394,40.266c0.609,0.808,1.323,1.526,2.153,2.097l-1.505-1.31
			C46.805,40.808,46.604,40.535,46.394,40.266z"/>
		<path fill="#12C48B" d="M48.558,26.768c0.123-0.087,0.257-0.151,0.391-0.227C48.815,26.617,48.681,26.681,48.558,26.768z"/>
		<path fill="#12C48B" d="M48.948,42.599c-0.133-0.074-0.268-0.142-0.391-0.228C48.681,42.457,48.815,42.524,48.948,42.599z"/>
		<path fill="#12C48B" d="M22.392,44.038c0.591,0,1.158-0.071,1.718-0.176c0.18-0.035,0.356-0.079,0.539-0.123
			c0.366-0.096,0.731-0.207,1.084-0.339c0.193-0.075,0.381-0.144,0.566-0.229c0.366-0.169,0.718-0.361,1.06-0.573
			c0.122-0.074,0.26-0.142,0.384-0.228l0,0l0.014-0.009l1.487-1.284v-0.005c0.191-0.196,0.343-0.418,0.521-0.624
			c0.141-0.178,0.296-0.336,0.423-0.522l0,0c4.236-4.489,11.754-4.47,15.971,0.051c0.07,0.104,0.162,0.19,0.235,0.288
			c0.211,0.27,0.411,0.542,0.648,0.787l1.505,1.31l0.011,0.009l0,0c0.123,0.086,0.257,0.153,0.391,0.228
			c0.334,0.212,0.687,0.404,1.056,0.573c0.18,0.085,0.373,0.153,0.566,0.229c0.352,0.132,0.714,0.243,1.088,0.339
			c0.176,0.044,0.351,0.088,0.535,0.123c0.559,0.104,1.13,0.176,1.716,0.176c5.227,0,9.472-4.236,9.472-9.468
			c0-5.229-4.245-9.466-9.472-9.466c-0.586,0-1.157,0.07-1.716,0.175c-0.184,0.033-0.358,0.077-0.535,0.12
			c-0.374,0.098-0.736,0.208-1.088,0.338c-0.193,0.074-0.387,0.148-0.566,0.232c-0.37,0.165-0.722,0.359-1.056,0.571
			c-0.133,0.076-0.268,0.14-0.391,0.227l0,0l-0.011,0.012l-1.484,1.28l-0.007,0.007c-0.184,0.197-0.345,0.416-0.517,0.626
			c-0.141,0.176-0.296,0.331-0.423,0.517c0,0.003-0.004,0.003-0.004,0.003c-4.233,4.489-11.75,4.471-15.966-0.052
			c-0.071-0.103-0.163-0.187-0.237-0.285c-0.21-0.276-0.418-0.543-0.654-0.793l-1.498-1.304l-0.014-0.012l0,0
			c-0.124-0.087-0.262-0.151-0.384-0.227c-0.342-0.212-0.694-0.406-1.06-0.571c-0.186-0.084-0.374-0.158-0.566-0.232
			c-0.353-0.13-0.718-0.24-1.084-0.338c-0.183-0.043-0.358-0.087-0.539-0.12c-0.56-0.105-1.126-0.175-1.718-0.175
			c-5.229,0-9.47,4.236-9.47,9.466C12.921,39.802,17.162,44.038,22.392,44.038z"/>
	</g>
	<g>
		<path fill="#12C48B" d="M57.299,25.738c0.197,0.074,0.384,0.148,0.571,0.232C57.683,25.886,57.497,25.812,57.299,25.738z"/>
		<path fill="#12C48B" d="M58.926,26.541c0.125,0.076,0.263,0.14,0.39,0.227C59.189,26.681,59.052,26.617,58.926,26.541z"/>
		<path fill="#12C48B" d="M55.682,25.28c0.179,0.033,0.354,0.077,0.534,0.12C56.036,25.357,55.86,25.313,55.682,25.28z"/>
		<path fill="#12C48B" d="M56.216,43.739c-0.18,0.044-0.355,0.088-0.534,0.123C55.86,43.827,56.036,43.783,56.216,43.739z"/>
		<path fill="#12C48B" d="M59.316,42.371c-0.127,0.086-0.265,0.153-0.39,0.228C59.052,42.524,59.189,42.457,59.316,42.371z"/>
		<path fill="#12C48B" d="M60.812,41.078l-1.488,1.284C59.869,41.99,60.361,41.552,60.812,41.078z"/>
		<path fill="#12C48B" d="M57.871,43.172c-0.188,0.085-0.374,0.153-0.571,0.229C57.497,43.325,57.683,43.257,57.871,43.172z"/>
		<path fill="#12C48B" d="M61.48,28.877c-0.612-0.81-1.326-1.528-2.156-2.098l1.502,1.304C61.062,28.334,61.269,28.602,61.48,28.877
			z"/>
		<path fill="#12C48B" d="M61.333,40.449c0.141-0.178,0.296-0.34,0.426-0.522l0,0C61.628,40.113,61.473,40.271,61.333,40.449z"/>
		<path fill="#12C48B" d="M83.765,43.862c-0.179-0.035-0.363-0.079-0.535-0.123C83.409,43.783,83.586,43.827,83.765,43.862z"/>
		<path fill="#12C48B" d="M78.63,28.06l1.49-1.28C79.573,27.149,79.081,27.589,78.63,28.06z"/>
		<path fill="#12C48B" d="M78.109,28.693c-0.14,0.176-0.299,0.335-0.43,0.521c0,0,0.008,0,0.008-0.003
			C77.813,29.024,77.969,28.87,78.109,28.693z"/>
		<path fill="#12C48B" d="M82.139,43.4c-0.19-0.075-0.384-0.144-0.563-0.229C81.755,43.257,81.948,43.325,82.139,43.4z"/>
		<path fill="#12C48B" d="M81.576,25.97c0.179-0.084,0.373-0.158,0.563-0.232C81.948,25.812,81.755,25.886,81.576,25.97z"/>
		<path fill="#12C48B" d="M83.23,25.4c0.172-0.043,0.356-0.087,0.535-0.12C83.586,25.313,83.409,25.357,83.23,25.4z"/>
		<path fill="#12C48B" d="M77.965,40.266c0.608,0.808,1.322,1.526,2.154,2.097l-1.508-1.31
			C78.38,40.808,78.172,40.535,77.965,40.266z"/>
		<path fill="#12C48B" d="M80.129,26.768c0.12-0.087,0.257-0.151,0.392-0.227C80.386,26.617,80.25,26.681,80.129,26.768z"/>
		<path fill="#12C48B" d="M80.521,42.599c-0.135-0.074-0.271-0.142-0.392-0.228C80.25,42.457,80.386,42.524,80.521,42.599z"/>
	</g>
</g>
<g>
	<g>
		<path fill="#F14D53" d="M41.938,41.623c0.194,0.074,0.384,0.144,0.57,0.232C42.322,41.767,42.132,41.697,41.938,41.623z"/>
		<path fill="#F14D53" d="M43.557,42.427c0.13,0.077,0.268,0.14,0.386,0.225C43.825,42.566,43.687,42.504,43.557,42.427z"/>
		<path fill="#F14D53" d="M40.313,41.167c0.179,0.031,0.359,0.075,0.539,0.118C40.671,41.242,40.495,41.198,40.313,41.167z"/>
		<path fill="#F14D53" d="M40.851,59.628c-0.18,0.042-0.36,0.085-0.539,0.121C40.495,59.713,40.671,59.67,40.851,59.628z"/>
		<path fill="#F14D53" d="M43.943,58.256c-0.119,0.089-0.256,0.155-0.386,0.228C43.687,58.411,43.825,58.345,43.943,58.256z"/>
		<path fill="#F14D53" d="M45.447,56.964l-1.492,1.285C44.503,57.875,44.993,57.438,45.447,56.964z"/>
		<path fill="#F14D53" d="M42.508,59.058c-0.187,0.086-0.376,0.155-0.57,0.233C42.132,59.213,42.322,59.144,42.508,59.058z"/>
		<path fill="#F14D53" d="M46.111,44.763c-0.608-0.809-1.32-1.527-2.156-2.098l1.509,1.307C45.7,44.222,45.904,44.491,46.111,44.763
			z"/>
		<path fill="#F14D53" d="M45.968,56.335c0.141-0.177,0.298-0.338,0.426-0.523l0,0C46.266,56,46.109,56.158,45.968,56.335z"/>
		<path fill="#F14D53" d="M68.4,59.749c-0.187-0.036-0.359-0.079-0.54-0.121C68.041,59.67,68.213,59.713,68.4,59.749z"/>
		<path fill="#F14D53" d="M63.264,43.947l1.486-1.282C64.212,43.038,63.723,43.475,63.264,43.947z"/>
		<path fill="#F14D53" d="M62.748,44.579c-0.145,0.177-0.302,0.336-0.429,0.521c0,0,0,0,0-0.003
			C62.445,44.911,62.603,44.756,62.748,44.579z"/>
		<path fill="#F14D53" d="M66.777,59.291c-0.197-0.078-0.387-0.147-0.569-0.233C66.39,59.144,66.58,59.213,66.777,59.291z"/>
		<path fill="#F14D53" d="M66.208,41.855c0.183-0.089,0.373-0.158,0.569-0.232C66.58,41.697,66.39,41.767,66.208,41.855z"/>
		<path fill="#F14D53" d="M67.86,41.285c0.18-0.043,0.353-0.087,0.54-0.118C68.213,41.198,68.041,41.242,67.86,41.285z"/>
		<path fill="#F14D53" d="M62.6,56.151c0.608,0.809,1.322,1.528,2.15,2.098l-1.503-1.31C63.016,56.693,62.808,56.423,62.6,56.151z"
			/>
		<path fill="#F14D53" d="M64.764,42.651c0.124-0.085,0.26-0.147,0.388-0.225C65.024,42.504,64.888,42.566,64.764,42.651z"/>
		<path fill="#F14D53" d="M65.152,58.483c-0.127-0.072-0.264-0.139-0.388-0.228C64.888,58.345,65.024,58.411,65.152,58.483z"/>
		<path fill="#F14D53" d="M38.591,59.925c0.599,0,1.161-0.07,1.721-0.176c0.179-0.036,0.359-0.079,0.539-0.121
			c0.372-0.1,0.731-0.212,1.087-0.337c0.194-0.078,0.384-0.147,0.57-0.233c0.362-0.168,0.714-0.361,1.049-0.574
			c0.13-0.072,0.268-0.139,0.386-0.228h0.007l0.004-0.007l1.492-1.285V56.96c0.19-0.195,0.347-0.419,0.521-0.625
			c0.141-0.177,0.298-0.335,0.426-0.523l0,0c4.237-4.488,11.751-4.472,15.963,0.052c0.073,0.105,0.166,0.19,0.243,0.288
			c0.208,0.271,0.416,0.542,0.647,0.788l1.503,1.31l0.01,0.007h0.004c0.124,0.089,0.26,0.155,0.388,0.228
			c0.341,0.213,0.69,0.406,1.056,0.574c0.183,0.086,0.373,0.155,0.569,0.233c0.353,0.125,0.714,0.237,1.083,0.337
			c0.18,0.042,0.353,0.085,0.54,0.121c0.563,0.105,1.126,0.176,1.714,0.176c5.229,0,9.47-4.237,9.47-9.468
			c0-5.229-4.241-9.466-9.47-9.466c-0.588,0-1.152,0.069-1.714,0.176c-0.187,0.031-0.359,0.075-0.54,0.118
			c-0.37,0.1-0.731,0.208-1.083,0.338c-0.197,0.074-0.387,0.144-0.569,0.232c-0.366,0.166-0.714,0.359-1.056,0.571
			c-0.127,0.077-0.264,0.14-0.388,0.225H64.76l-0.01,0.014l-1.486,1.282v0.007c-0.186,0.197-0.347,0.415-0.517,0.625
			c-0.145,0.177-0.302,0.332-0.429,0.518c0,0.003,0,0.003,0,0.003c-4.237,4.488-11.755,4.473-15.963-0.051
			c-0.074-0.104-0.166-0.188-0.244-0.286c-0.208-0.271-0.411-0.541-0.647-0.791l-1.509-1.307l-0.004-0.014h-0.007
			c-0.119-0.085-0.256-0.147-0.386-0.225c-0.334-0.212-0.687-0.405-1.049-0.571c-0.187-0.089-0.376-0.158-0.57-0.232
			c-0.355-0.13-0.715-0.238-1.087-0.338c-0.18-0.043-0.36-0.087-0.539-0.118c-0.56-0.106-1.123-0.176-1.721-0.176
			c-5.223,0-9.46,4.236-9.46,9.466C29.131,55.688,33.369,59.925,38.591,59.925z"/>
	</g>
	<g>
		<path fill="#F14D53" d="M41.938,9.852c0.194,0.074,0.384,0.148,0.57,0.231C42.322,10,42.132,9.925,41.938,9.852z"/>
		<path fill="#F14D53" d="M43.557,10.653c0.13,0.078,0.268,0.141,0.386,0.229C43.825,10.794,43.687,10.731,43.557,10.653z"/>
		<path fill="#F14D53" d="M40.313,9.394c0.179,0.033,0.359,0.079,0.539,0.12C40.667,9.472,40.495,9.426,40.313,9.394z"/>
		<path fill="#F14D53" d="M40.851,27.853c-0.18,0.046-0.36,0.089-0.539,0.123C40.495,27.941,40.667,27.898,40.851,27.853z"/>
		<path fill="#F14D53" d="M43.943,26.484c-0.119,0.087-0.256,0.155-0.386,0.229C43.687,26.639,43.825,26.571,43.943,26.484z"/>
		<path fill="#F14D53" d="M45.447,25.192l-1.492,1.285C44.503,26.104,44.993,25.668,45.447,25.192z"/>
		<path fill="#F14D53" d="M42.508,27.286c-0.187,0.085-0.376,0.155-0.57,0.229C42.132,27.441,42.322,27.371,42.508,27.286z"/>
		<path fill="#F14D53" d="M46.111,12.991c-0.608-0.809-1.322-1.527-2.156-2.098l1.509,1.306
			C45.7,12.448,45.904,12.716,46.111,12.991z"/>
		<path fill="#F14D53" d="M45.968,24.559c0.141-0.173,0.298-0.334,0.426-0.517l0,0C46.266,24.229,46.109,24.386,45.968,24.559z"/>
		<path fill="#F14D53" d="M68.4,27.975c-0.187-0.034-0.359-0.077-0.54-0.123C68.041,27.898,68.213,27.941,68.4,27.975z"/>
		<path fill="#F14D53" d="M63.264,12.174l1.486-1.28C64.212,11.263,63.723,11.703,63.264,12.174z"/>
		<path fill="#F14D53" d="M62.748,12.807c-0.147,0.177-0.302,0.335-0.429,0.521c0,0,0,0,0-0.003
			C62.445,13.139,62.6,12.984,62.748,12.807z"/>
		<path fill="#F14D53" d="M66.777,27.515c-0.197-0.074-0.387-0.144-0.569-0.229C66.39,27.371,66.58,27.441,66.777,27.515z"/>
		<path fill="#F14D53" d="M66.208,10.083C66.39,10,66.58,9.925,66.777,9.852C66.58,9.925,66.39,10,66.208,10.083z"/>
		<path fill="#F14D53" d="M67.86,9.514c0.18-0.042,0.353-0.087,0.54-0.12C68.213,9.426,68.041,9.472,67.86,9.514z"/>
		<path fill="#F14D53" d="M62.6,24.38c0.608,0.809,1.322,1.526,2.15,2.097l-1.503-1.309C63.016,24.92,62.808,24.646,62.6,24.38z"/>
		<path fill="#F14D53" d="M64.764,10.882c0.124-0.087,0.26-0.15,0.388-0.229C65.024,10.731,64.888,10.794,64.764,10.882z"/>
		<path fill="#F14D53" d="M65.152,26.712c-0.127-0.074-0.264-0.141-0.388-0.229C64.888,26.571,65.024,26.639,65.152,26.712z"/>
		<path fill="#F14D53" d="M38.591,28.152c0.599,0,1.161-0.07,1.721-0.177c0.179-0.034,0.359-0.077,0.539-0.123
			c0.372-0.095,0.731-0.208,1.087-0.337c0.194-0.074,0.384-0.144,0.57-0.229c0.362-0.169,0.714-0.362,1.049-0.574
			c0.13-0.074,0.268-0.141,0.386-0.229h0.007l0.004-0.007l1.492-1.285v-0.003c0.19-0.197,0.347-0.418,0.521-0.63
			c0.141-0.173,0.298-0.33,0.426-0.517l0,0c4.237-4.49,11.751-4.47,15.963,0.049c0.073,0.106,0.166,0.19,0.243,0.29
			c0.208,0.267,0.416,0.541,0.647,0.788l1.503,1.309l0.01,0.007h0.004c0.124,0.087,0.26,0.155,0.388,0.229
			c0.341,0.211,0.69,0.405,1.056,0.574c0.183,0.085,0.373,0.155,0.569,0.229c0.353,0.129,0.714,0.242,1.083,0.337
			c0.18,0.046,0.353,0.089,0.54,0.123c0.556,0.106,1.126,0.177,1.714,0.177c5.229,0,9.47-4.237,9.47-9.466
			c0-5.23-4.241-9.467-9.47-9.467c-0.588,0-1.159,0.07-1.714,0.175c-0.187,0.033-0.359,0.079-0.54,0.12
			c-0.37,0.095-0.731,0.208-1.083,0.338C66.58,9.925,66.39,10,66.208,10.083c-0.366,0.166-0.714,0.36-1.056,0.57
			c-0.127,0.078-0.264,0.141-0.388,0.229H64.76l-0.01,0.012l-1.486,1.28v0.008c-0.186,0.196-0.347,0.415-0.517,0.625
			c-0.147,0.177-0.302,0.332-0.429,0.518c0,0.003,0,0.003,0,0.003c-4.237,4.487-11.755,4.469-15.963-0.048
			c-0.074-0.109-0.166-0.191-0.244-0.289c-0.208-0.275-0.411-0.543-0.647-0.792l-1.509-1.306l-0.004-0.012h-0.007
			c-0.119-0.087-0.256-0.15-0.386-0.229c-0.334-0.21-0.687-0.404-1.049-0.57c-0.187-0.083-0.376-0.158-0.57-0.231
			c-0.355-0.13-0.715-0.243-1.087-0.338c-0.18-0.042-0.36-0.087-0.539-0.12c-0.56-0.104-1.123-0.175-1.721-0.175
			c-5.223,0-9.46,4.237-9.46,9.467C29.131,23.915,33.369,28.152,38.591,28.152z"/>
	</g>
</g>
<g>
	<path d="M113.747,25.725c2.32,0,4.137,0.905,5.449,2.716s1.969,4.292,1.969,7.444c0,3.246-0.677,5.76-2.03,7.541
		s-3.196,2.672-5.528,2.672c-2.309,0-4.119-0.838-5.432-2.514h-0.369l-0.896,2.162h-4.096V18.395h5.361v6.363
		c0,0.809-0.07,2.104-0.211,3.885h0.211C109.429,26.697,111.286,25.725,113.747,25.725z M112.024,30.014
		c-1.324,0-2.291,0.407-2.9,1.222s-0.926,2.159-0.949,4.034v0.58c0,2.109,0.313,3.621,0.94,4.535s1.62,1.371,2.979,1.371
		c1.102,0,1.978-0.507,2.628-1.521s0.976-2.487,0.976-4.421s-0.328-3.384-0.984-4.351S113.161,30.014,112.024,30.014z"/>
	<path d="M139.517,45.746l-0.721-2.514h-0.281c-0.574,0.914-1.389,1.62-2.443,2.118s-2.256,0.747-3.604,0.747
		c-2.309,0-4.049-0.618-5.221-1.854s-1.758-3.015-1.758-5.335V26.094h5.361v11.479c0,1.418,0.252,2.481,0.756,3.19
		s1.307,1.063,2.408,1.063c1.5,0,2.584-0.501,3.252-1.503s1.002-2.663,1.002-4.983v-9.246h5.361v19.652H139.517z"/>
	<path d="M155.478,46.098c-2.309,0-4.122-0.896-5.44-2.689s-1.978-4.277-1.978-7.453c0-3.223,0.671-5.733,2.013-7.532
		s3.19-2.698,5.546-2.698c2.473,0,4.359,0.961,5.66,2.883h0.176c-0.27-1.465-0.404-2.771-0.404-3.92v-6.293h5.379v27.352h-4.113
		l-1.037-2.549h-0.229C159.831,45.131,157.974,46.098,155.478,46.098z M157.358,41.826c1.371,0,2.376-0.398,3.015-1.195
		s0.987-2.15,1.046-4.061v-0.58c0-2.109-0.325-3.621-0.976-4.535s-1.708-1.371-3.173-1.371c-1.195,0-2.124,0.507-2.786,1.521
		s-0.993,2.487-0.993,4.421s0.334,3.384,1.002,4.351S156.116,41.826,157.358,41.826z"/>
	<path d="M189.14,26.094v2.725l-3.076,0.791c0.563,0.879,0.844,1.863,0.844,2.953c0,2.109-0.735,3.753-2.206,4.931
		s-3.513,1.767-6.126,1.767l-0.967-0.053l-0.791-0.088c-0.551,0.422-0.826,0.891-0.826,1.406c0,0.773,0.984,1.16,2.953,1.16h3.34
		c2.156,0,3.8,0.463,4.931,1.389s1.696,2.285,1.696,4.078c0,2.297-0.958,4.078-2.874,5.344s-4.667,1.898-8.253,1.898
		c-2.742,0-4.837-0.478-6.284-1.433s-2.171-2.294-2.171-4.017c0-1.184,0.369-2.174,1.107-2.971s1.822-1.365,3.252-1.705
		c-0.551-0.234-1.031-0.618-1.441-1.151s-0.615-1.099-0.615-1.696c0-0.75,0.217-1.374,0.65-1.872s1.061-0.987,1.881-1.468
		c-1.031-0.445-1.849-1.16-2.452-2.145s-0.905-2.145-0.905-3.48c0-2.145,0.697-3.803,2.092-4.975s3.387-1.758,5.977-1.758
		c0.551,0,1.204,0.05,1.96,0.149s1.239,0.173,1.45,0.22H189.14z M173.97,48.523c0,0.738,0.354,1.318,1.063,1.74
		s1.702,0.633,2.979,0.633c1.922,0,3.428-0.264,4.518-0.791s1.635-1.248,1.635-2.162c0-0.738-0.322-1.248-0.967-1.529
		s-1.641-0.422-2.988-0.422h-2.777c-0.984,0-1.808,0.231-2.47,0.694S173.97,47.762,173.97,48.523z M175.921,32.527
		c0,1.066,0.243,1.91,0.729,2.531s1.228,0.932,2.224,0.932c1.008,0,1.746-0.311,2.215-0.932s0.703-1.465,0.703-2.531
		c0-2.367-0.973-3.551-2.918-3.551C176.905,28.977,175.921,30.16,175.921,32.527z"/>
	<path d="M201.269,46.098c-3.164,0-5.637-0.873-7.418-2.619s-2.672-4.219-2.672-7.418c0-3.293,0.823-5.839,2.47-7.638
		s3.923-2.698,6.829-2.698c2.777,0,4.939,0.791,6.486,2.373s2.32,3.768,2.32,6.557v2.602H196.61c0.059,1.523,0.51,2.713,1.354,3.568
		s2.027,1.283,3.551,1.283c1.184,0,2.303-0.123,3.357-0.369s2.156-0.639,3.305-1.178v4.148c-0.938,0.469-1.939,0.817-3.006,1.046
		S202.804,46.098,201.269,46.098z M200.513,29.539c-1.137,0-2.027,0.36-2.672,1.081s-1.014,1.743-1.107,3.067h7.523
		c-0.023-1.324-0.369-2.347-1.037-3.067S201.649,29.539,200.513,29.539z"/>
	<path d="M221.923,41.826c0.938,0,2.063-0.205,3.375-0.615v3.99c-1.336,0.598-2.977,0.896-4.922,0.896
		c-2.145,0-3.706-0.542-4.685-1.626s-1.468-2.71-1.468-4.878v-9.475h-2.566v-2.268l2.953-1.793l1.547-4.148h3.428v4.184h5.502v4.025
		h-5.502v9.475c0,0.762,0.214,1.324,0.642,1.688S221.22,41.826,221.923,41.826z"/>
	<path d="M226.458,26.094h5.871l3.709,11.057c0.316,0.961,0.533,2.098,0.65,3.41h0.105c0.129-1.207,0.381-2.344,0.756-3.41
		l3.639-11.057h5.748l-8.314,22.166c-0.762,2.051-1.849,3.586-3.261,4.605s-3.062,1.529-4.948,1.529c-0.926,0-1.834-0.1-2.725-0.299
		v-4.254c0.645,0.152,1.348,0.229,2.109,0.229c0.949,0,1.778-0.29,2.487-0.87s1.263-1.456,1.661-2.628l0.316-0.967L226.458,26.094z"
		/>
	<path d="M248.993,43.232c0-0.984,0.264-1.729,0.791-2.232s1.295-0.756,2.303-0.756c0.973,0,1.726,0.258,2.259,0.773
		s0.8,1.254,0.8,2.215c0,0.926-0.27,1.655-0.809,2.188s-1.289,0.8-2.25,0.8c-0.984,0-1.746-0.261-2.285-0.782
		S248.993,44.182,248.993,43.232z"/>
</g>
</svg>
